<svg width="319" height="293" viewBox="0 0 319 293" fill="none" xmlns="http://www.w3.org/2000/svg">
<circle cx="146.5" cy="146.5" r="146.5" fill="#DE4D6C"/>
<path d="M178.415 91.6154H120.817C117.227 91.6176 113.784 92.9716 111.245 95.38C108.706 97.7885 107.278 101.054 107.276 104.46V133.923H191.966V104.46C191.961 101.054 190.531 97.7877 187.991 95.3795C185.451 92.9713 182.007 91.6176 178.415 91.6154Z" fill="white"/>
<path d="M244.897 158.464C244.883 153.075 242.717 147.863 238.78 143.746C234.844 139.629 229.389 136.87 223.375 135.954V70.4615H75.8662V135.954C69.8528 136.87 64.3977 139.629 60.461 143.746C56.5244 147.863 54.3586 153.075 54.3448 158.464V201.289H75.8662V218.538H85.0738V201.289H214.168V218.538H223.375V201.289H244.897V158.464ZM85.0738 78.5851H214.168V135.555H85.0738V78.5851ZM235.697 193.128H63.5439V158.464C63.5484 154.546 65.3129 150.789 68.4502 148.019C71.5875 145.248 75.8412 143.69 80.278 143.686H218.963C223.4 143.69 227.654 145.248 230.791 148.019C233.928 150.789 235.693 154.546 235.697 158.464V193.128Z" fill="white"/>
</svg>
