<svg width="354" height="275" viewBox="0 0 354 275" fill="none" xmlns="http://www.w3.org/2000/svg">
<path d="M354 163.433C353.974 153.425 349.951 143.746 342.638 136.1C335.324 128.454 325.19 123.329 314.018 121.63V0H39.9815V121.63C28.81 123.329 18.6758 128.454 11.3624 136.1C4.04914 143.746 0.0255968 153.425 0 163.433V242.966H39.9815V275H57.0871V242.966H296.913V275H314.018V242.966H354V163.433ZM57.0871 15.0865H296.913V120.888H57.0871V15.0865ZM336.91 227.809H17.0897V163.433C17.098 156.156 20.3761 149.18 26.2044 144.035C32.0327 138.89 39.9351 135.996 48.1776 135.989H305.822C314.065 135.996 321.967 138.89 327.796 144.035C333.624 149.18 336.902 156.156 336.91 163.433V227.809Z" fill="#DE4D6C"/>
</svg>
