<svg width="553" height="438" viewBox="0 0 553 438" fill="none" xmlns="http://www.w3.org/2000/svg">
<path d="M552.205 260.112C552.165 244.224 545.891 228.858 534.488 216.718C523.085 204.578 507.283 196.443 489.864 193.745V0.641602H62.5758V193.745C45.1568 196.443 29.355 204.578 17.9519 216.718C6.54868 228.858 0.275019 244.224 0.235107 260.112V386.381H62.5758V437.24H89.2473V386.381H463.193V437.24H489.864V386.381H552.205V260.112ZM89.2473 24.5934H463.193V192.567H89.2473V24.5934ZM525.558 362.318H26.8819V260.112C26.895 248.56 32.0062 237.484 41.0939 229.316C50.1816 221.147 62.5034 216.553 75.3554 216.541H477.085C489.936 216.553 502.258 221.147 511.346 229.316C520.434 237.484 525.545 248.56 525.558 260.112V362.318Z" fill="#FC8040"/>
</svg>
