<svg width="512" height="512" viewBox="0 0 512 512" fill="none" xmlns="http://www.w3.org/2000/svg">
<path d="M483.642 77.092L444.825 23.172C444.076 22.1614 443.095 21.3457 441.965 20.7936C440.835 20.2416 439.588 19.9694 438.331 20C437.074 19.9689 435.829 20.24 434.699 20.7906C433.569 21.3412 432.588 22.1552 431.838 23.164L393.017 77.018C392.868 77.2109 392.728 77.4111 392.599 77.618C383.999 92.367 384.099 110.245 392.846 125.477C397.6 133.742 404.5 140.568 412.815 145.234L399.531 235.734C399.46 236.221 399.434 236.713 399.452 237.204L407.418 442C407.726 449.991 411.118 457.552 416.88 463.097C422.643 468.641 430.329 471.738 438.326 471.738C446.323 471.738 454.009 468.641 459.772 463.097C465.534 457.552 468.926 449.991 469.234 442L477.2 237.2C477.22 236.684 477.19 236.167 477.11 235.656L463.074 145.656C471.751 140.971 478.948 133.955 483.853 125.4C492.563 110.2 492.636 92.371 484.045 77.711C483.92 77.5 483.786 77.292 483.642 77.092ZM453.242 441.427C453.083 445.276 451.442 448.915 448.663 451.583C445.884 454.251 442.181 455.742 438.328 455.744C434.476 455.745 430.771 454.258 427.99 451.592C425.208 448.927 423.564 445.289 423.402 441.44L415.764 245H460.889L453.242 441.427ZM459.861 229H416.706L428.15 150.983C434.609 152.247 441.246 152.301 447.725 151.143L459.861 229ZM469.97 117.446C466.814 123.056 462.223 127.726 456.668 130.977C451.113 134.228 444.793 135.944 438.357 135.948C431.92 135.952 425.598 134.245 420.039 131.001C414.479 127.757 409.882 123.094 406.719 117.488C400.831 107.242 400.663 95.769 406.24 85.953L438.317 41.381L470.417 86.104C475.979 95.833 475.821 107.236 469.97 117.446Z" fill="#EDF075"/>
<path d="M461.587 92.325C459.465 92.325 457.43 93.1679 455.93 94.6682C454.43 96.1685 453.587 98.2033 453.587 100.325C453.565 104.433 451.915 108.364 448.999 111.257C446.082 114.15 442.137 115.768 438.029 115.756C435.907 115.756 433.872 116.599 432.372 118.099C430.872 119.599 430.029 121.634 430.029 123.756C430.029 125.878 430.872 127.913 432.372 129.413C433.872 130.913 435.907 131.756 438.029 131.756C446.379 131.763 454.391 128.458 460.307 122.566C466.223 116.674 469.561 108.675 469.587 100.325C469.587 98.2033 468.744 96.1685 467.244 94.6682C465.744 93.1679 463.709 92.325 461.587 92.325ZM345.335 376.723C316.219 369.052 293.796 346.623 284 315.187C282.022 308.879 281.01 302.307 281 295.696C281.011 289.086 282.022 282.515 284 276.208C293.8 244.773 316.168 222.344 345.283 214.671C351.002 213.211 356.235 210.268 360.453 206.14C364.671 202.011 367.726 196.843 369.309 191.157C370.908 185.566 371.002 179.651 369.583 174.011C368.164 168.372 365.281 163.207 361.226 159.038C360.626 158.416 360.031 157.795 359.419 157.175C322.707 119.939 273.093 99.306 219.71 99.075H218.81C165.786 99.075 116.36 119.253 79.555 155.944C61.1635 174.279 46.5715 196.063 36.6156 220.048C26.6596 244.033 21.5355 269.747 21.537 295.716C21.5385 321.686 26.6656 347.399 36.6242 371.383C46.5829 395.367 61.1774 417.15 79.571 435.482C116.371 472.163 165.788 492.33 218.804 492.33C219.109 492.33 219.416 492.33 219.723 492.33C273.103 492.096 322.714 471.462 359.417 434.23C360.029 433.609 360.637 432.984 361.242 432.355C365.298 428.188 368.183 423.024 369.604 417.384C371.025 411.745 370.933 405.831 369.336 400.239C367.759 394.554 364.709 389.386 360.495 385.257C356.281 381.128 351.051 378.184 345.335 376.723ZM349.707 421.264C349.151 421.842 348.593 422.417 348.024 422.992C314.331 457.169 268.74 476.11 219.651 476.325C219.367 476.325 219.089 476.325 218.805 476.325C170.055 476.325 124.645 457.812 90.865 424.145C73.9624 407.299 60.551 387.282 51.3997 365.243C42.2483 343.203 37.537 319.574 37.5358 295.71C37.5346 271.846 42.2435 248.217 51.3926 226.176C60.5418 204.136 73.9511 184.118 90.852 167.27C124.637 133.588 170.052 115.07 218.812 115.07H219.644C268.737 115.282 314.333 134.223 348.029 168.401C348.594 168.974 349.152 169.547 349.703 170.121C351.834 172.274 353.351 174.958 354.094 177.894C354.838 180.831 354.782 183.913 353.932 186.821C353.096 189.817 351.484 192.54 349.259 194.714C347.034 196.887 344.274 198.435 341.259 199.2C306.7 208.306 280.301 234.639 268.828 271.448C264.001 287.254 264.001 304.142 268.828 319.948C280.3 356.757 306.7 383.09 341.259 392.2C344.273 392.964 347.032 394.511 349.257 396.683C351.482 398.855 353.095 401.575 353.932 404.57C354.782 407.476 354.838 410.557 354.095 413.493C353.352 416.428 351.837 419.112 349.707 421.264Z" fill="#EDF075"/>
<path d="M236.854 383.74C232.124 388.47 228.903 394.496 227.598 401.056C226.293 407.617 226.963 414.417 229.522 420.597C232.082 426.777 236.417 432.059 241.979 435.775C247.54 439.491 254.079 441.475 260.768 441.475C267.457 441.475 273.996 439.491 279.558 435.775C285.119 432.059 289.454 426.777 292.014 420.597C294.573 414.417 295.243 407.617 293.938 401.056C292.633 394.496 289.412 388.47 284.682 383.74C281.556 380.573 277.833 378.059 273.728 376.342C269.623 374.626 265.217 373.743 260.768 373.743C256.319 373.743 251.913 374.626 247.808 376.342C243.703 378.059 239.98 380.573 236.854 383.74ZM273.367 420.254C270.452 423.168 266.617 424.982 262.515 425.385C258.412 425.789 254.297 424.758 250.87 422.467C247.443 420.177 244.916 416.769 243.72 412.825C242.524 408.88 242.732 404.643 244.31 400.835C245.887 397.027 248.737 393.883 252.372 391.94C256.007 389.997 260.204 389.375 264.247 390.179C268.289 390.984 271.928 393.165 274.543 396.351C277.158 399.538 278.587 403.532 278.587 407.654C278.585 412.38 276.707 416.911 273.367 420.254ZM130.717 323.1C125.988 318.377 119.966 315.162 113.41 313.861C106.855 312.56 100.061 313.231 93.8869 315.791C87.713 318.35 82.4365 322.682 78.7242 328.24C75.0119 333.797 73.0306 340.331 73.0306 347.014C73.0306 353.697 75.0119 360.231 78.7242 365.788C82.4365 371.346 87.713 375.678 93.8869 378.237C100.061 380.797 106.855 381.468 113.41 380.167C119.966 378.866 125.988 375.651 130.717 370.928C137.05 364.581 140.607 355.98 140.607 347.014C140.607 338.048 137.05 329.447 130.717 323.1ZM119.4 359.618C116.909 362.107 113.735 363.801 110.281 364.487C106.826 365.173 103.246 364.819 99.9931 363.471C96.7398 362.122 93.9593 359.839 92.0031 356.911C90.0469 353.982 89.0029 350.54 89.0029 347.018C89.0029 343.496 90.0469 340.054 92.0031 337.125C93.9593 334.197 96.7398 331.914 99.9931 330.565C103.246 329.217 106.826 328.863 110.281 329.549C113.735 330.235 116.909 331.929 119.4 334.418C122.737 337.762 124.611 342.294 124.611 347.018C124.611 351.742 122.737 356.274 119.4 359.618ZM101.094 291.45C108.913 291.444 116.489 288.728 122.53 283.763C128.571 278.798 132.704 271.892 134.224 264.222C135.745 256.552 134.559 248.592 130.868 241.698C127.178 234.804 121.212 229.403 113.986 226.415C106.76 223.427 98.7213 223.037 91.2399 225.311C83.7584 227.585 77.2968 232.382 72.956 238.886C68.6151 245.39 66.6636 253.198 67.4338 260.979C68.204 268.761 71.6484 276.034 77.18 281.561C80.3184 284.703 84.0466 287.194 88.1505 288.891C92.2544 290.588 96.6531 291.458 101.094 291.45ZM88.494 245.05C90.9861 242.558 94.1611 240.861 97.6176 240.173C101.074 239.486 104.657 239.839 107.913 241.187C111.169 242.536 113.952 244.82 115.91 247.75C117.868 250.681 118.913 254.126 118.913 257.65C118.913 261.174 117.868 264.619 115.91 267.55C113.952 270.48 111.169 272.764 107.913 274.113C104.657 275.461 101.074 275.814 97.6176 275.127C94.1611 274.439 90.9861 272.742 88.494 270.25C85.1562 266.906 83.2817 262.374 83.2817 257.648C83.2817 252.923 85.1562 248.391 88.494 245.047V245.05ZM159.449 219.743C167.268 219.737 174.844 217.021 180.885 212.056C186.926 207.091 191.059 200.185 192.579 192.515C194.1 184.845 192.914 176.885 189.223 169.991C185.533 163.097 179.567 157.696 172.341 154.708C165.115 151.72 157.076 151.33 149.595 153.604C142.113 155.878 135.652 160.675 131.311 167.179C126.97 173.683 125.019 181.491 125.789 189.272C126.559 197.054 130.003 204.327 135.535 209.854C138.673 212.996 142.402 215.487 146.505 217.184C150.609 218.881 155.008 219.751 159.449 219.743ZM146.849 173.343C149.341 170.851 152.516 169.154 155.973 168.466C159.429 167.779 163.012 168.132 166.268 169.48C169.524 170.829 172.307 173.113 174.265 176.043C176.223 178.974 177.268 182.419 177.268 185.943C177.268 189.467 176.223 192.912 174.265 195.843C172.307 198.773 169.524 201.057 166.268 202.406C163.012 203.754 159.429 204.107 155.973 203.42C152.516 202.732 149.341 201.035 146.849 198.543C145.187 196.892 143.868 194.929 142.968 192.766C142.068 190.603 141.604 188.284 141.604 185.941C141.604 183.599 142.068 181.279 142.968 179.117C143.869 176.954 145.188 174.991 146.85 173.34L146.849 173.343ZM254.01 208.5C261.828 208.494 269.402 205.778 275.441 200.814C281.481 195.85 285.613 188.945 287.133 181.277C288.653 173.608 287.467 165.65 283.778 158.757C280.088 151.865 274.123 146.465 266.899 143.477C259.675 140.49 251.638 140.099 244.158 142.372C236.678 144.645 230.217 149.441 225.877 155.944C221.536 162.446 219.585 170.252 220.354 178.032C221.123 185.811 224.566 193.084 230.096 198.61C233.235 201.752 236.963 204.243 241.067 205.94C245.17 207.637 249.569 208.507 254.01 208.5ZM241.41 162.1C243.902 159.608 247.077 157.912 250.533 157.224C253.989 156.537 257.572 156.89 260.828 158.239C264.083 159.587 266.866 161.871 268.824 164.801C270.782 167.731 271.826 171.176 271.826 174.7C271.826 178.224 270.782 181.669 268.824 184.599C266.866 187.529 264.083 189.813 260.828 191.161C257.572 192.51 253.989 192.863 250.533 192.176C247.077 191.488 243.902 189.792 241.41 187.3C239.755 185.645 238.442 183.681 237.547 181.519C236.651 179.357 236.19 177.04 236.19 174.7C236.19 172.36 236.651 170.043 237.547 167.881C238.442 165.719 239.755 163.755 241.41 162.1ZM147.392 384.8C142.662 389.53 139.442 395.556 138.137 402.116C136.832 408.676 137.502 415.476 140.061 421.655C142.621 427.835 146.956 433.117 152.517 436.833C158.079 440.549 164.617 442.532 171.306 442.532C177.995 442.532 184.533 440.549 190.095 436.833C195.656 433.117 199.991 427.835 202.551 421.655C205.11 415.476 205.78 408.676 204.475 402.116C203.17 395.556 199.95 389.53 195.22 384.8C188.873 378.467 180.272 374.91 171.306 374.91C162.34 374.91 153.739 378.467 147.392 384.8ZM183.905 421.314C181.413 423.803 178.24 425.498 174.785 426.184C171.331 426.87 167.75 426.516 164.497 425.168C161.243 423.819 158.462 421.536 156.506 418.608C154.55 415.679 153.505 412.236 153.505 408.714C153.505 405.192 154.55 401.749 156.506 398.82C158.462 395.892 161.243 393.609 164.497 392.26C167.75 390.912 171.331 390.558 174.785 391.244C178.24 391.93 181.413 393.625 183.905 396.114C187.241 399.458 189.115 403.989 189.115 408.713C189.115 413.437 187.241 417.968 183.905 421.312V421.314ZM258.205 295.365C258.205 285.41 255.253 275.678 249.722 267.401C244.191 259.124 236.33 252.673 227.132 248.863C217.935 245.054 207.814 244.057 198.051 245.999C188.287 247.942 179.318 252.735 172.279 259.775C165.24 266.814 160.446 275.783 158.504 285.547C156.562 295.31 157.559 305.431 161.369 314.628C165.178 323.825 171.63 331.687 179.907 337.217C188.184 342.748 197.916 345.7 207.871 345.7C221.216 345.685 234.01 340.377 243.446 330.94C252.882 321.504 258.19 308.71 258.205 295.365ZM207.871 329.7C201.08 329.7 194.442 327.686 188.796 323.914C183.15 320.141 178.749 314.779 176.15 308.505C173.552 302.231 172.872 295.328 174.197 288.667C175.522 282.007 178.792 275.889 183.594 271.088C188.395 266.286 194.513 263.016 201.173 261.692C207.834 260.367 214.737 261.047 221.011 263.646C227.284 266.245 232.647 270.645 236.419 276.292C240.192 281.938 242.205 288.576 242.205 295.367C242.195 304.47 238.574 313.197 232.137 319.633C225.701 326.07 216.974 329.69 207.871 329.7Z" fill="#EDF075"/>
</svg>
