<svg width="148" height="126" viewBox="0 0 148 126" fill="none" xmlns="http://www.w3.org/2000/svg">
<path d="M66.5343 22.1776C50.2294 22.1776 36.9639 35.4396 36.9639 51.748C36.9639 68.0565 50.2294 81.3184 66.5343 81.3184C82.8392 81.3184 96.1047 68.0565 96.1047 51.748C96.1047 35.4396 82.8392 22.1776 66.5343 22.1776ZM66.5343 66.5332C58.38 66.5332 51.7491 59.8986 51.7491 51.748C51.7491 43.5974 58.38 36.9628 66.5343 36.9628C74.6885 36.9628 81.3195 43.5974 81.3195 51.748C81.3195 59.8986 74.6885 66.5332 66.5343 66.5332Z" fill="#F65A82"/>
<path d="M140.459 67.6104V27.3541C140.459 12.2729 128.19 0 113.105 0H27.3541C12.2693 0 0 12.2729 0 27.3541V76.1424C0 91.2235 12.2693 103.496 27.3541 103.496H98.6883C102.962 114.811 110.819 125.97 121.534 125.97C138.727 125.97 148 97.692 148 86.1267C148 79.0635 145.199 72.5575 140.459 67.6104ZM27.3541 88.7112C20.4235 88.7112 14.7852 83.0729 14.7852 76.1423V27.3541C14.7852 20.4235 20.4235 14.7852 27.3541 14.7852H113.105C120.036 14.7852 125.674 20.4235 125.674 27.3541V59.6101C124.321 59.3935 122.934 59.2852 121.534 59.2852C106.94 59.2852 95.0678 71.3271 95.0678 86.1267C95.0678 86.9425 95.1039 87.8088 95.1797 88.7112H27.3541ZM121.534 111.185C119.549 111.185 114.094 104.702 111.167 94.2484C110.08 90.0612 109.853 87.52 109.853 86.1267C109.853 79.4777 115.094 74.0704 121.534 74.0704C124.093 74.0704 126.497 74.9006 128.54 76.5105C131.511 78.8135 133.215 82.3221 133.215 86.1267C133.215 96.3565 125.014 111.185 121.534 111.185Z" fill="#F65A82"/>
<path d="M29.5702 36.9628C33.653 36.9628 36.9628 33.653 36.9628 29.5702C36.9628 25.4874 33.653 22.1776 29.5702 22.1776C25.4874 22.1776 22.1776 25.4874 22.1776 29.5702C22.1776 33.653 25.4874 36.9628 29.5702 36.9628Z" fill="#F65A82"/>
</svg>
