<svg width="299" height="299" viewBox="0 0 299 299" fill="none" xmlns="http://www.w3.org/2000/svg">
<circle cx="149.5" cy="149.5" r="149.5" fill="#7EC2DF"/>
<path d="M146.099 108.739C126.579 108.739 110.698 124.616 110.698 144.14C110.698 163.665 126.579 179.542 146.099 179.542C165.619 179.542 181.501 163.665 181.501 144.14C181.501 124.616 165.619 108.739 146.099 108.739ZM146.099 161.841C136.337 161.841 128.398 153.898 128.398 144.14C128.398 134.382 136.337 126.44 146.099 126.44C155.861 126.44 163.8 134.382 163.8 144.14C163.8 153.898 155.861 161.841 146.099 161.841Z" fill="white"/>
<path d="M234.602 163.131V114.936C234.602 96.8808 219.913 82.1877 201.854 82.1877H99.1927C81.1332 82.1877 66.4445 96.8808 66.4445 114.936V173.345C66.4445 191.4 81.1332 206.093 99.1927 206.093H184.594C189.71 219.639 199.116 232.999 211.944 232.999C232.528 232.999 243.63 199.144 243.63 185.298C243.63 176.842 240.277 169.053 234.602 163.131ZM99.1927 188.393C90.8955 188.393 84.1453 181.642 84.1453 173.345V114.936C84.1453 106.639 90.8955 99.8885 99.1927 99.8885H201.854C210.151 99.8885 216.901 106.639 216.901 114.936V153.553C215.281 153.293 213.621 153.164 211.944 153.164C194.473 153.164 180.259 167.58 180.259 185.298C180.259 186.275 180.303 187.312 180.393 188.393H99.1927ZM211.944 215.298C209.568 215.298 203.038 207.537 199.533 195.022C198.232 190.009 197.96 186.966 197.96 185.298C197.96 177.338 204.235 170.865 211.945 170.865C215.009 170.865 217.887 171.858 220.333 173.786C223.889 176.543 225.929 180.743 225.929 185.298C225.929 197.545 216.11 215.298 211.944 215.298Z" fill="white"/>
<path d="M101.846 126.44C106.734 126.44 110.696 122.477 110.696 117.589C110.696 112.701 106.734 108.739 101.846 108.739C96.9579 108.739 92.9955 112.701 92.9955 117.589C92.9955 122.477 96.9579 126.44 101.846 126.44Z" fill="white"/>
</svg>
