<svg width="334" height="334" viewBox="0 0 334 334" fill="none" xmlns="http://www.w3.org/2000/svg">
<path d="M264.417 153.083H99.365L149.883 92.4067C152.245 89.5647 153.381 85.9007 153.042 82.2207C152.703 78.5408 150.915 75.1464 148.073 72.7842C145.231 70.422 141.567 69.2855 137.887 69.6248C134.207 69.9641 130.813 71.7513 128.451 74.5933L58.8675 158.093C58.3994 158.758 57.9807 159.455 57.615 160.181C57.615 160.877 57.615 161.294 56.6409 161.99C56.0101 163.586 55.6798 165.284 55.6667 167C55.6798 168.716 56.0101 170.414 56.6409 172.01C56.6409 172.706 56.6409 173.123 57.615 173.819C57.9807 174.545 58.3994 175.243 58.8675 175.907L128.451 259.407C129.759 260.978 131.398 262.241 133.25 263.107C135.102 263.973 137.122 264.42 139.167 264.417C142.418 264.423 145.57 263.291 148.073 261.216C149.483 260.048 150.647 258.613 151.501 256.994C152.355 255.374 152.881 253.603 153.049 251.78C153.217 249.957 153.024 248.119 152.481 246.371C151.937 244.623 151.054 243 149.883 241.593L99.365 180.917H264.417C268.108 180.917 271.647 179.45 274.257 176.841C276.867 174.231 278.333 170.691 278.333 167C278.333 163.309 276.867 159.769 274.257 157.159C271.647 154.55 268.108 153.083 264.417 153.083Z" fill="#525151"/>
</svg>
