<svg width="394" height="394" viewBox="0 0 394 394" fill="none" xmlns="http://www.w3.org/2000/svg">
<circle cx="197" cy="197" r="197" fill="#D9D9D9"/>
<g clip-path="url(#clip0_568_105)">
<path d="M276.165 185.691H142.037L183.09 136.382C185.009 134.073 185.933 131.095 185.657 128.105C185.381 125.114 183.929 122.356 181.619 120.436C179.31 118.517 176.332 117.593 173.342 117.869C170.351 118.145 167.593 119.597 165.673 121.907L109.127 189.762C108.747 190.302 108.406 190.869 108.109 191.458C108.109 192.024 108.109 192.363 107.318 192.929C106.805 194.225 106.537 195.606 106.526 197C106.537 198.394 106.805 199.775 107.318 201.071C107.318 201.637 107.318 201.976 108.109 202.542C108.406 203.131 108.747 203.698 109.127 204.238L165.673 272.093C166.737 273.37 168.068 274.397 169.573 275.1C171.078 275.804 172.72 276.168 174.381 276.165C177.024 276.17 179.585 275.25 181.619 273.564C182.765 272.614 183.711 271.448 184.405 270.133C185.099 268.817 185.526 267.377 185.663 265.896C185.799 264.414 185.642 262.921 185.201 261.5C184.759 260.08 184.042 258.76 183.09 257.618L142.037 208.309H276.165C279.164 208.309 282.041 207.118 284.162 204.997C286.283 202.876 287.474 199.999 287.474 197C287.474 194.001 286.283 191.124 284.162 189.003C282.041 186.882 279.164 185.691 276.165 185.691Z" fill="#525151"/>
</g>
<defs>
<clipPath id="clip0_568_105">
<rect width="271.422" height="271.422" fill="white" transform="translate(61.2888 61.2889)"/>
</clipPath>
</defs>
</svg>
