<svg width="667" height="667" viewBox="0 0 667 667" fill="none" xmlns="http://www.w3.org/2000/svg">
<path d="M616.558 153.827L338.641 42.6604C335.306 41.2708 331.694 41.2708 328.359 42.6604L50.4419 153.827C45.1615 155.911 41.6875 161.053 41.6875 166.75V368.24C41.6875 375.882 47.9406 382.136 55.5833 382.136C63.226 382.136 69.4792 375.882 69.4792 368.24V176.199L333.5 70.591L597.521 176.199V368.24C597.521 375.882 603.774 382.136 611.417 382.136C619.059 382.136 625.312 375.882 625.312 368.24V166.75C625.312 161.053 621.839 155.911 616.558 153.827Z" fill="#FC8040"/>
<path d="M125.062 319.604V416.875C94.3527 416.875 69.4791 441.748 69.4791 472.458V569.729C69.4791 577.372 75.7323 583.625 83.375 583.625H97.2708V611.416C97.2708 619.059 103.524 625.312 111.167 625.312H166.75C174.393 625.312 180.646 619.059 180.646 611.416V583.625H486.354V611.416C486.354 619.059 492.607 625.312 500.25 625.312H555.833C563.476 625.312 569.729 619.059 569.729 611.416V583.625H583.625C591.268 583.625 597.521 577.372 597.521 569.729V472.458C597.521 441.748 572.647 416.875 541.937 416.875V319.604C541.937 296.676 523.178 277.916 500.25 277.916H166.75C143.822 277.916 125.062 296.676 125.062 319.604ZM152.854 597.521H125.062V583.625H152.854V597.521ZM541.937 597.521H514.146V583.625H541.937V597.521ZM569.729 555.833H97.2708V528.041H569.729V555.833ZM541.937 444.666C557.223 444.666 569.729 457.173 569.729 472.458V500.25H97.2708V472.458C97.2708 457.173 109.777 444.666 125.062 444.666H541.937ZM194.542 416.875V389.083H277.917V416.875H194.542ZM389.083 416.875V389.083H472.458V416.875H389.083ZM514.146 319.604V416.875H500.25V389.083C500.25 373.798 487.744 361.291 472.458 361.291H389.083C373.798 361.291 361.292 373.798 361.292 389.083V416.875H305.708V389.083C305.708 373.798 293.202 361.291 277.917 361.291H194.542C179.256 361.291 166.75 373.798 166.75 389.083V416.875H152.854V319.604C152.854 311.961 159.107 305.708 166.75 305.708H500.25C507.893 305.708 514.146 311.961 514.146 319.604ZM401.59 145.489L363.098 139.931L346.006 105.052C341.421 95.881 325.579 95.881 321.133 105.052L303.902 139.931L265.41 145.489C260.13 146.184 255.822 149.936 254.155 154.938C252.487 159.941 253.877 165.499 257.629 169.112L285.42 196.209L278.889 234.422C278.056 239.703 280.14 244.844 284.448 248.04C286.81 249.847 289.728 250.681 292.646 250.681C294.87 250.681 297.093 250.125 299.038 249.013L333.361 230.949L367.684 249.013C372.269 251.514 378.106 250.959 382.274 247.901C386.582 244.705 388.666 239.564 387.833 234.284L381.302 196.07L409.093 168.973C412.845 165.221 414.235 159.802 412.567 154.799C411.178 149.797 406.87 146.184 401.59 145.489ZM356.845 181.479C353.51 184.675 352.12 189.261 352.815 193.708L355.872 211.494L340.031 203.157C336.001 201.072 330.999 201.072 327.108 203.157L311.128 211.494L314.185 193.708C315.019 189.261 313.49 184.536 310.155 181.479L297.232 168.973L315.019 166.333C319.604 165.638 323.495 162.859 325.44 158.69L333.5 142.571L341.421 158.69C343.505 162.859 347.396 165.638 351.842 166.333L369.629 168.973L356.845 181.479Z" fill="#FC8040"/>
</svg>
