<svg width="176" height="404" viewBox="0 0 176 404" fill="none" xmlns="http://www.w3.org/2000/svg">
<g clip-path="url(#clip0_685_110)">
<path d="M176 328.355V259.086H161.526V248.089C165.869 246.023 168.989 241.726 169.292 236.582C169.974 224.768 170.293 213.926 170.298 203.949C170.225 152.538 162.021 124.087 150.825 106.979C145.232 98.4863 138.69 93.0391 132.642 90.0208C126.896 87.1217 121.841 86.4421 118.764 86.391C118.524 86.3774 118.289 86.3552 118.046 86.3552H52.2642C52.0105 86.3552 51.7602 86.3791 51.5099 86.3927C48.4281 86.4455 43.3849 87.1302 37.6538 90.0208C28.4953 94.5653 18.6218 104.501 11.7124 122.115C4.71801 139.79 0.0238369 165.355 0 203.951C0.00340528 213.926 0.321799 224.774 1.01818 236.587C1.44213 243.829 7.44393 249.415 14.6069 249.415C14.8742 249.415 15.1433 249.406 15.4157 249.391C22.9243 248.946 28.6537 242.501 28.2161 234.989C27.5487 223.659 27.2456 213.343 27.249 203.949C27.1877 162.686 33.2031 139.513 39.1096 127.422V382.938C39.1096 394.572 48.5371 403.997 60.1593 403.997C71.7849 403.997 81.2124 394.572 81.2124 382.938V229.177H89.1042V382.938C89.1042 394.572 98.5317 403.997 110.154 403.997C121.779 403.997 131.207 394.572 131.207 382.938V127.519C132.215 129.589 133.23 131.962 134.233 134.728C139.034 148.038 143.068 169.871 143.052 203.949C143.057 213.345 142.754 223.662 142.094 234.994C141.704 241.665 146.183 247.483 152.449 249.014V259.086H139.964V328.355H176ZM78.6823 100.295H85.154H91.6224L94.8574 113.07L94.3653 113.847C91.7007 116.071 88.435 117.185 85.1506 117.189C81.8679 117.185 78.6074 116.073 75.9445 113.854L75.4473 113.07L78.6823 100.295ZM85.154 210.16L68.979 189.72L78.2958 121.04C80.5041 121.868 82.8282 122.301 85.1506 122.299H85.154C85.154 122.299 85.1608 122.299 85.1643 122.299C87.4849 122.299 89.8056 121.866 92.0106 121.038L101.331 189.72L85.154 210.16Z" fill="#FC8040"/>
<path d="M85.1541 76.6497C106.312 76.6497 123.463 59.4911 123.463 38.3248C123.463 17.1586 106.312 0 85.1541 0C63.9964 0 46.8447 17.1586 46.8447 38.3248C46.8447 59.4911 63.9964 76.6497 85.1541 76.6497Z" fill="#FC8040"/>
</g>
<defs>
<clipPath id="clip0_685_110">
<rect width="176" height="404" fill="white"/>
</clipPath>
</defs>
</svg>
