<svg width="336" height="336" viewBox="0 0 336 336" fill="none" xmlns="http://www.w3.org/2000/svg">
<path d="M84 134.463C92.3068 134.463 100.427 136.925 107.334 141.539C114.241 146.152 119.624 152.71 122.803 160.382C125.982 168.054 126.814 176.496 125.193 184.641C123.572 192.786 119.572 200.267 113.698 206.139C107.825 212.011 100.341 216.01 92.1938 217.63C84.0466 219.25 75.6018 218.418 67.9273 215.24C60.2528 212.063 53.6933 206.681 49.0783 199.776C44.4633 192.872 42 184.754 42 176.45C42 165.314 46.425 154.634 54.3015 146.76C62.178 138.886 72.8609 134.463 84 134.463ZM84 252.026C61.7218 252.026 40.3561 260.873 24.603 276.621C8.84997 292.37 0 313.729 0 336H168C168 324.972 165.827 314.053 161.606 303.865C157.384 293.676 151.197 284.419 143.397 276.621C135.597 268.824 126.337 262.638 116.145 258.418C105.954 254.198 95.031 252.026 84 252.026ZM252 218.437C260.307 218.437 268.427 215.974 275.334 211.36C282.241 206.747 287.624 200.189 290.803 192.517C293.982 184.845 294.814 176.403 293.193 168.258C291.572 160.114 287.572 152.632 281.698 146.76C275.825 140.888 268.341 136.89 260.194 135.269C252.047 133.649 243.602 134.481 235.927 137.659C228.253 140.837 221.693 146.218 217.078 153.123C212.463 160.028 210 168.145 210 176.45C210 187.585 214.425 198.265 222.302 206.139C230.178 214.013 240.861 218.437 252 218.437ZM252 252.026C229.722 252.026 208.356 260.873 192.603 276.621C176.85 292.37 168 313.729 168 336H336C336 313.729 327.15 292.37 311.397 276.621C295.644 260.873 274.278 252.026 252 252.026ZM241.92 60.0114C250.102 20.6109 226.246 0.104485 201.6 0.104485C195.112 -0.379151 188.609 0.821787 182.722 3.59079C176.835 6.35979 171.763 10.6029 168 15.9084C164.237 10.6029 159.165 6.35979 153.278 3.59079C147.391 0.821787 140.888 -0.379151 134.4 0.104485C109.754 0.104485 85.8984 20.6109 94.08 60.0114C102.228 99.9326 168 134.463 168 134.463C168 134.463 233.772 99.9326 241.92 60.0114Z" fill="#FC8040"/>
</svg>
