<?xml version="1.0" standalone="no"?>
<!DOCTYPE svg PUBLIC "-//W3C//DTD SVG 20010904//EN"
 "http://www.w3.org/TR/2001/REC-SVG-20010904/DTD/svg10.dtd">
<svg version="1.0" xmlns="http://www.w3.org/2000/svg"
 width="2380.000000pt" height="2380.000000pt" viewBox="0 0 2380.000000 2380.000000"
 preserveAspectRatio="xMidYMid meet">

<g transform="translate(0.000000,2380.000000) scale(0.100000,-0.100000)"
fill="#000000" stroke="none">
<path d="M8650 18665 c0 -14 -5 -25 -11 -25 -8 0 -7 -5 1 -15 9 -11 10 -19 3
-26 -12 -12 -353 -21 -353 -10 0 4 41 12 92 19 50 6 95 15 100 20 5 5 -121 9
-309 9 -175 -1 -320 -3 -323 -7 -12 -14 -166 -72 -197 -73 -41 -2 -41 -3 -45
-164 -3 -109 -1 -122 15 -127 23 -6 22 -33 -3 -48 -18 -11 -20 -24 -20 -110 0
-55 4 -98 9 -98 6 0 20 -27 32 -60 12 -33 24 -60 26 -60 2 0 21 9 43 20 45 23
71 25 88 8 32 -32 5 -66 -80 -98 -31 -11 -62 -27 -68 -35 -7 -8 -21 -15 -31
-15 -18 0 -19 -22 -19 -683 l0 -682 166 -18 c91 -10 173 -21 182 -24 14 -6 15
-4 5 8 -9 12 -8 21 9 47 28 45 55 49 118 17 54 -27 57 -36 36 -86 -9 -21 5
-26 95 -33 41 -3 66 -3 57 0 -26 8 -22 35 10 73 26 31 31 33 65 27 21 -4 52
-20 70 -36 l32 -28 -22 -30 c-16 -21 -19 -32 -11 -40 7 -7 8 -16 1 -24 -33
-45 -185 -228 -192 -232 -8 -6 -286 85 -325 106 -42 23 -263 97 -288 98 -5 0
-8 -178 -8 -395 l0 -395 78 0 c82 -1 207 -14 233 -24 12 -5 31 19 82 104 37
60 67 115 67 121 0 17 83 172 135 252 117 180 145 220 215 308 41 51 86 108
100 125 178 228 299 344 421 407 137 70 224 57 248 -36 17 -69 14 -100 -20
-199 -44 -132 -93 -220 -212 -383 -45 -60 -51 -64 -97 -51 -20 5 -21 5 -8 -3
10 -7 14 -19 11 -31 -3 -11 -9 -18 -13 -15 -10 6 -20 -19 -20 -50 0 -14 -12
-38 -27 -54 -16 -16 -36 -41 -46 -55 -24 -35 -37 -33 -37 5 0 26 -3 29 -14 20
-7 -6 -21 -9 -29 -5 -11 4 -22 -6 -36 -34 -11 -22 -25 -42 -31 -44 -5 -1 -12
-32 -15 -68 -4 -47 -12 -74 -31 -101 -29 -43 -167 -179 -181 -179 -12 0 -101
-84 -189 -180 -38 -41 -62 -69 -54 -62 19 17 40 15 40 -3 0 -8 -5 -15 -11 -15
-8 0 -9 -13 -5 -38 3 -22 2 -42 -2 -46 -7 -8 -8 -13 -11 -41 0 -8 -8 -15 -16
-15 -8 0 -15 -5 -15 -11 0 -6 9 -9 20 -6 11 3 20 1 20 -5 0 -5 4 -7 9 -3 11 6
26 -32 22 -54 -2 -11 6 -13 36 -8 21 3 32 3 26 0 -19 -7 -16 -30 6 -45 10 -7
21 -23 25 -34 6 -19 0 -25 -40 -44 -55 -27 -118 -32 -119 -10 -1 24 -16 60
-25 60 -4 0 -27 38 -51 84 l-42 85 43 58 43 58 -61 -63 c-66 -68 -110 -92
-172 -92 -34 0 -42 4 -50 26 -25 64 -9 126 62 242 32 52 15 37 -27 -24 -31
-45 -42 -54 -59 -49 -12 3 -43 10 -71 14 -27 5 -62 12 -77 16 l-28 7 0 -531
c0 -465 2 -531 15 -531 8 0 15 -7 15 -15 0 -8 -7 -15 -15 -15 -13 0 -15 -22
-15 -139 0 -114 3 -140 15 -145 8 -3 15 -14 15 -24 0 -11 -7 -25 -15 -32 -12
-10 -15 -43 -15 -180 0 -148 2 -169 17 -174 11 -4 21 0 27 11 19 32 87 256 82
269 -3 7 -15 14 -28 16 -29 4 -37 43 -11 56 25 13 100 0 148 -26 22 -12 48
-22 58 -22 28 0 95 -38 111 -63 13 -19 20 -66 17 -104 -2 -23 -62 -82 -89 -88
-25 -5 -27 -9 -27 -58 0 -28 -3 -59 -5 -67 -3 -9 3 -16 18 -18 33 -5 57 -45
42 -71 -13 -26 -58 -28 -106 -5 -38 18 -50 46 -40 97 18 98 18 102 -1 119 -38
34 -56 27 -74 -27 l-16 -50 34 -18 c25 -13 33 -24 31 -39 -5 -35 -30 -43 -84
-26 -27 9 -61 19 -76 22 l-28 6 0 -119 0 -118 45 -13 c24 -7 56 -12 70 -12 14
0 25 -5 25 -10 0 -6 11 -7 24 -4 14 3 28 0 35 -8 6 -7 38 -19 71 -25 32 -7 89
-25 125 -42 36 -16 88 -34 115 -39 58 -11 196 -1 162 11 -12 5 -22 13 -22 19
0 15 382 14 398 -2 9 -9 12 -9 12 1 0 7 6 11 15 8 8 -4 17 -2 20 3 3 5 31 7
63 6 35 -2 65 1 78 9 11 7 47 15 80 18 32 2 117 18 187 36 71 17 133 31 138
31 5 0 2 -11 -7 -25 -9 -14 -25 -25 -35 -25 -10 0 -21 -4 -24 -10 -3 -5 -15
-10 -26 -10 -10 0 -19 -4 -19 -10 0 -13 5 -12 75 13 47 17 61 27 63 45 2 12
14 30 28 38 22 15 26 15 47 1 22 -14 23 -14 23 5 -1 16 18 27 100 58 55 21
114 45 132 54 35 18 72 21 72 6 0 -5 7 -10 15 -10 17 0 20 16 4 26 -15 9 35
41 78 49 21 4 40 2 48 -5 8 -7 22 -10 31 -8 16 3 16 4 1 19 -15 16 -13 29 5
29 5 0 6 -4 3 -10 -3 -5 0 -10 8 -10 19 0 30 27 14 33 -7 2 -9 8 -5 12 4 4 28
0 54 -9 58 -20 60 -20 62 -1 1 8 3 22 4 30 2 18 14 20 21 3 3 -7 6 740 6 1661
1 1606 0 1676 -17 1695 -33 38 -152 206 -152 216 0 5 10 12 21 15 29 9 64 -18
112 -85 l37 -53 0 32 c0 47 25 99 55 113 21 9 67 9 203 0 97 -6 178 -10 179
-8 2 2 0 20 -5 42 -7 32 -15 42 -55 64 -26 13 -42 27 -35 29 7 2 15 7 18 11 3
4 19 14 37 23 25 14 32 25 38 59 13 87 13 87 61 34 23 -26 47 -46 51 -43 4 3
30 8 56 11 38 5 48 4 43 -6 -3 -7 -9 -21 -12 -31 -4 -10 -12 -16 -18 -14 -6 3
-21 -3 -33 -13 -20 -16 -21 -19 -7 -36 13 -16 15 -16 10 -2 -2 9 1 21 8 27 11
9 13 3 13 -28 0 -26 7 -47 22 -62 36 -39 28 -47 -35 -36 -50 8 -58 7 -76 -11
l-21 -20 44 -6 c24 -3 85 -8 134 -11 106 -7 276 -30 358 -49 47 -11 57 -11 57
0 0 22 -110 231 -136 259 -31 34 -144 201 -144 214 0 5 -18 29 -41 53 -47 49
-99 122 -99 137 0 19 -64 101 -78 101 -12 0 -13 11 -8 56 4 35 3 53 -3 49 -13
-7 -61 5 -61 16 0 15 -51 64 -67 64 -9 0 -23 11 -32 25 -15 24 -15 24 2 11 36
-29 15 7 -30 49 -26 25 -41 37 -34 27 24 -31 6 -27 -32 7 -20 18 -37 38 -37
44 0 7 -3 11 -7 11 -16 -3 -29 2 -51 19 l-24 18 27 18 c25 17 28 17 68 -4 23
-12 73 -35 112 -50 79 -32 194 -91 238 -122 18 -13 42 -49 63 -95 38 -84 36
-104 -17 -122 -18 -6 -30 -14 -26 -17 3 -3 14 -1 24 5 31 16 55 7 67 -27 21
-58 151 -177 182 -165 25 9 196 -172 206 -217 2 -8 11 -23 21 -34 9 -11 17
-27 17 -36 0 -9 4 -20 9 -25 5 -6 11 -71 14 -145 3 -74 8 -144 12 -155 4 -14
36 -32 103 -59 189 -76 339 -170 479 -301 180 -167 312 -370 407 -626 46 -126
107 -372 121 -489 3 -25 7 -58 10 -75 12 -78 15 -144 7 -149 -5 -3 -19 -7 -33
-9 -97 -18 -397 -121 -579 -199 -83 -35 -295 -141 -385 -193 -44 -25 -90 -51
-103 -57 -12 -6 -21 -16 -19 -22 2 -6 0 -22 -5 -35 -5 -14 -10 -78 -12 -143
-4 -117 -5 -121 -47 -205 -31 -64 -60 -105 -113 -158 -63 -64 -77 -74 -126
-84 -80 -17 -135 -48 -193 -110 -29 -31 -55 -55 -59 -53 -5 1 -8 -4 -8 -11 0
-7 -9 -30 -19 -51 -11 -21 -25 -61 -31 -89 -12 -56 -54 -127 -76 -127 -7 0
-15 -9 -19 -20 -12 -38 -181 -148 -211 -136 -7 3 -16 1 -19 -5 -4 -5 -11 -7
-16 -4 -5 4 -12 -2 -16 -12 -3 -10 -30 -43 -60 -73 -29 -31 -60 -66 -69 -78
-8 -12 -23 -22 -33 -22 -26 0 -66 -40 -50 -50 7 -5 18 -6 26 -3 25 10 13 -18
-27 -59 -22 -23 -40 -45 -40 -50 0 -4 -7 -5 -15 -1 -9 3 -24 -2 -34 -11 -47
-42 -121 -59 -281 -65 l-155 -6 -77 -43 c-42 -24 -96 -63 -120 -86 -58 -59
-190 -127 -229 -119 -19 4 -29 1 -29 -7 0 -7 7 -10 15 -7 8 4 17 2 20 -4 10
-16 -17 -19 -85 -11 -47 6 -64 12 -62 21 5 21 -20 32 -38 17 -8 -8 -51 -16
-95 -19 -74 -5 -107 -14 -191 -53 -18 -7 -66 -19 -109 -26 -95 -15 -183 -2
-294 43 -99 40 -166 46 -277 24 -124 -24 -205 -17 -281 25 -32 18 -66 39 -75
48 -17 14 -18 -29 -18 -884 0 -535 4 -927 10 -967 18 -121 66 -184 164 -212
45 -13 124 -15 517 -13 l464 3 2 64 c1 35 3 65 5 67 2 2 26 5 53 7 l50 4 5 52
c3 28 11 56 17 62 6 6 31 10 57 8 32 -3 46 0 46 8 0 7 5 13 10 13 6 0 10 -4
10 -10 0 -18 22 -10 27 10 3 11 14 20 24 20 33 0 21 16 -22 29 -35 11 -39 14
-28 28 10 12 26 14 66 10 l53 -6 10 42 c19 72 17 70 58 62 50 -9 55 -13 48
-44 -6 -24 -5 -24 6 -6 6 11 14 22 17 25 4 3 15 25 26 50 26 63 29 65 75 46
56 -22 63 -21 84 19 31 58 40 60 93 30 l47 -26 18 25 c10 13 27 34 36 46 l18
22 47 -33 47 -33 38 37 c21 20 42 37 48 37 6 0 21 -12 35 -26 43 -46 52 -47
99 -7 l42 36 38 -44 38 -44 38 18 c29 14 35 21 23 28 -11 7 -10 9 7 9 31 0 75
-23 69 -38 -2 -7 4 -21 16 -33 l20 -20 46 21 c25 11 49 20 53 20 3 0 17 -22
30 -50 13 -27 26 -50 30 -50 4 0 28 7 54 16 26 9 49 15 51 12 2 -2 12 -26 22
-53 l18 -49 48 -1 c26 0 49 5 51 10 7 17 24 -16 31 -62 l6 -43 58 0 58 0 9
-52 c8 -46 12 -53 34 -56 93 -10 90 -8 90 -68 0 -58 3 -61 58 -68 18 -2 36 -6
39 -10 3 -3 7 -33 7 -66 0 -33 4 -60 8 -60 4 0 19 -5 35 -12 15 -6 31 -12 35
-12 17 -2 20 -19 8 -60 -7 -25 -9 -53 -5 -63 5 -10 7 -27 6 -38 -3 -19 -2 -19
11 -2 12 16 17 17 42 6 21 -10 26 -17 21 -33 -20 -66 -23 -89 -12 -100 23 -22
67 -46 84 -47 10 0 13 -3 6 -5 -6 -3 -23 -27 -37 -54 l-25 -48 39 -36 c38 -34
58 -63 25 -36 -10 9 -15 9 -15 1 0 -6 -7 -11 -15 -11 -8 0 -15 5 -15 10 0 6
-4 10 -10 10 -21 0 -9 -20 16 -26 14 -4 35 -16 47 -28 33 -33 374 -199 527
-256 156 -59 341 -115 520 -159 344 -83 577 -140 594 -143 14 -2 29 18 69 97
27 55 56 104 64 108 7 5 11 12 8 18 -4 5 11 40 32 78 21 38 35 72 33 75 -6 5
-145 40 -520 131 -288 69 -352 87 -505 137 -303 100 -591 246 -824 417 -83 61
-171 133 -171 141 0 5 30 11 68 14 840 75 1424 248 2001 593 l114 68 -199 3
c-112 1 -203 7 -208 12 -6 6 -21 10 -34 10 -45 0 -81 32 -113 100 -17 36 -42
77 -56 92 -22 23 -24 30 -13 43 7 8 18 15 25 15 20 0 73 -69 92 -120 21 -59
41 -79 86 -87 68 -11 67 -17 67 371 l0 346 48 0 c34 0 43 -3 32 -10 -23 -15
-6 -12 26 5 28 14 25 15 -58 15 -89 0 -107 7 -65 25 21 10 22 15 22 123 l0
112 27 0 c24 0 27 4 30 42 2 32 8 44 21 46 12 3 20 -4 24 -17 3 -12 11 -21 17
-21 17 0 86 70 86 86 0 17 40 19 40 2 1 -7 18 -30 39 -52 45 -45 66 -41 58 10
-5 31 -3 34 18 34 17 0 23 -4 19 -14 -3 -8 -1 -23 5 -33 10 -17 10 -17 12 2 1
11 1 24 0 29 -1 5 4 13 11 17 8 6 -3 9 -29 9 -24 0 -43 5 -43 10 0 6 39 11 93
12 l92 2 -77 3 c-43 2 -78 8 -78 14 0 24 30 76 59 102 17 15 31 36 31 47 0 10
4 29 9 42 5 13 12 32 16 43 6 17 10 15 25 -20 10 -22 19 -49 19 -61 1 -11 19
-39 41 -62 22 -22 40 -50 40 -61 0 -11 5 -23 11 -26 7 -5 10 27 8 104 -1 61
-6 111 -11 111 -4 0 -8 7 -8 15 0 11 11 15 40 15 39 0 40 1 40 33 0 18 -5 38
-11 44 -8 8 -7 17 4 34 9 13 21 45 27 71 7 26 18 53 26 59 8 6 14 20 14 31 0
12 4 17 12 12 8 -5 9 -2 5 9 -3 10 -2 17 3 17 14 0 25 -51 13 -59 -14 -8 -57
-130 -50 -137 16 -17 35 10 46 63 7 37 18 64 31 73 11 8 15 17 9 20 -6 4 -4
17 6 36 8 16 15 35 15 42 0 6 5 12 10 12 6 0 10 7 10 15 0 23 -17 18 -23 -6
-5 -20 -7 -20 -22 -6 -13 14 -14 20 -3 37 7 11 20 20 28 20 12 -1 12 -3 -2
-14 -24 -18 -23 -29 2 -14 13 9 18 19 14 35 -4 13 -2 23 4 23 6 0 14 9 17 20
3 11 13 20 21 20 8 0 12 -4 9 -10 -3 -6 1 -7 9 -4 9 3 16 12 16 20 0 8 16 22
35 31 21 10 35 24 35 35 0 10 6 18 13 18 7 0 13 18 15 50 l3 50 -193 0 c-820
1 -910 0 -939 -16 -17 -8 -33 -23 -36 -32 -16 -50 -51 -111 -82 -145 -36 -40
-116 -87 -148 -87 -10 0 -28 -15 -40 -33 -24 -36 -33 -119 -32 -315 l0 -112
-29 27 -29 28 -1 164 c-1 141 1 168 17 200 25 47 58 78 104 94 67 23 122 76
159 152 25 53 44 77 76 100 l44 30 339 3 c236 2 339 0 339 -8 0 -7 6 -8 19 -1
10 6 79 10 152 10 74 -1 169 -1 211 0 l76 1 7 31 c4 18 12 29 19 26 7 -3 21 9
31 26 10 18 23 35 29 39 7 5 6 8 -3 8 -8 0 -11 6 -7 16 3 8 2 23 -4 33 -6 12
-5 24 5 39 12 16 12 21 2 25 -9 3 -8 9 4 21 14 16 17 16 29 1 9 -11 10 -19 2
-27 -8 -8 -7 -16 1 -28 8 -14 8 -22 -2 -33 -8 -10 -9 -17 -1 -22 5 -3 10 -14
10 -24 0 -29 24 -71 41 -71 11 0 19 -12 24 -37 4 -21 16 -44 27 -52 20 -13 20
-15 3 -27 -14 -10 -17 -22 -12 -53 2 -21 0 -44 -6 -50 -7 -7 -3 -8 12 -4 15 4
21 1 21 -10 0 -9 20 -28 45 -42 101 -60 215 -227 246 -363 8 -34 18 -54 31
-58 22 -7 24 -22 3 -30 -19 -8 -21 -74 -2 -74 8 0 19 11 25 25 13 29 20 27
100 -27 40 -27 42 -28 42 -8 0 11 5 20 10 20 6 0 10 -11 10 -25 0 -14 8 -32
18 -39 9 -8 37 -31 62 -51 25 -20 98 -89 163 -153 l118 -117 20 25 c19 24 20
24 34 6 8 -11 12 -29 9 -43 -8 -31 10 -51 40 -46 19 4 24 1 23 -13 -2 -24 96
-64 173 -71 67 -6 178 24 230 62 32 23 35 30 37 81 1 31 9 75 17 97 12 31 13
37 3 25 -8 -10 -16 -18 -19 -18 -3 0 -6 78 -6 174 -2 153 0 175 14 180 9 4 14
9 11 12 -5 5 -200 -129 -244 -169 l-22 -20 -33 30 c-18 16 -78 73 -133 127
-154 151 -356 304 -477 362 -21 10 -38 24 -38 32 0 7 12 58 27 113 14 54 24
101 21 104 -2 3 -123 6 -269 7 -249 1 -265 2 -286 21 -13 11 -23 24 -23 28 0
14 394 9 402 -4 6 -9 8 -9 8 1 0 17 41 15 76 -3 16 -8 45 -15 64 -14 19 0 29
3 23 6 -20 7 -15 23 6 23 15 0 22 14 35 73 49 224 86 539 93 800 6 193 7 207
25 207 18 0 135 -35 338 -101 568 -186 1027 -479 1284 -820 67 -89 74 -106 50
-123 -10 -8 -68 -50 -129 -94 -60 -45 -135 -98 -165 -120 -30 -21 -178 -127
-327 -236 l-273 -197 -1 -159 c-2 -179 -1 -170 -13 -189 -6 -10 -6 -12 3 -7
10 6 12 -12 9 -78 -2 -47 -2 -86 0 -86 4 0 135 92 142 100 5 5 88 66 186 135
23 17 147 106 276 199 128 94 312 227 409 297 96 70 197 151 223 179 149 159
140 371 -27 596 -233 314 -526 550 -942 761 -300 151 -549 244 -919 343 -82
22 -152 43 -156 47 -6 7 -24 137 -35 248 -1 17 -10 68 -19 115 -8 47 -18 102
-20 123 -3 21 -7 41 -10 46 -3 4 -8 23 -11 42 -25 144 -106 409 -188 614 -41
103 -175 375 -228 462 -99 163 -236 353 -348 483 -127 149 -371 377 -516 483
-27 20 -66 48 -85 62 -106 80 -351 223 -513 300 -530 252 -1155 407 -1852 460
-110 8 -220 17 -245 20 -101 11 -1515 16 -1500 6 8 -6 11 -11 6 -11 -5 0 -3
-6 4 -14 6 -8 17 -13 24 -10 7 3 24 -6 37 -18 28 -26 93 -50 115 -41 8 3 14 0
14 -6 0 -6 6 -11 13 -11 7 0 18 -5 24 -11 7 -7 61 -12 138 -12 114 -2 128 -4
141 -22 9 -13 24 -19 39 -17 13 2 27 -3 32 -10 4 -7 17 -14 28 -16 11 -1 25
-4 32 -5 18 -4 63 -56 63 -73 0 -7 5 -14 10 -14 14 0 59 -51 60 -67 0 -7 5
-13 11 -13 5 0 16 -15 24 -34 8 -19 22 -41 30 -50 26 -26 6 -41 -20 -16 -15
14 -28 19 -37 14 -20 -13 -61 -5 -77 14 -13 16 -13 16 -8 0 5 -13 1 -18 -11
-18 -25 1 -55 27 -47 40 6 9 2 9 -12 2 -16 -9 -25 -6 -50 17 -16 15 -35 25
-41 23 -5 -1 -13 6 -17 17 -8 27 -45 48 -45 26 0 -8 -5 -15 -11 -15 -5 0 -8 3
-5 8 2 4 -12 8 -32 9 -22 1 -73 20 -126 47 -48 25 -102 48 -120 52 -17 3 -34
11 -37 16 -4 6 -22 11 -40 12 -19 2 -33 7 -32 12 1 5 4 21 8 35 5 21 2 27 -14
32 -25 6 -36 -19 -14 -31 9 -5 13 -14 9 -21 -9 -14 -36 -15 -36 -1 0 6 -3 9
-7 8 -18 -3 -43 16 -43 33 0 12 -7 19 -20 19 -30 0 -24 26 10 42 l30 15 -20
26 c-12 15 -18 31 -15 37 4 6 -11 10 -38 10 -31 0 -44 -4 -44 -14 0 -8 6 -12
14 -9 7 3 13 0 13 -5 0 -17 -41 -26 -51 -11 -5 8 -9 10 -9 4 0 -13 50 -60 64
-60 18 0 18 -32 1 -39 -20 -7 -58 11 -50 25 4 5 -5 9 -19 9 -14 0 -28 5 -31
10 -8 13 -45 13 -45 -1 0 -5 -5 -7 -10 -4 -6 4 -8 11 -5 16 4 5 0 9 -9 9 -8 0
-21 3 -30 6 -11 4 -16 1 -16 -11 0 -14 -7 -15 -47 -9 -27 3 -54 11 -60 16 -9
7 -13 7 -13 -2 0 -8 -15 -11 -50 -8 -57 4 -67 -8 -15 -18 56 -10 41 -25 -22
-22 -54 3 -58 5 -58 27 0 16 -6 25 -20 27 -11 2 -27 12 -36 22 -14 18 -16 18
-27 3 -10 -15 -13 -14 -26 3 -9 10 -13 23 -10 27 3 5 0 9 -5 9 -6 0 -11 -11
-11 -25z m80 -49 c0 -3 -4 -8 -10 -11 -5 -3 -10 -1 -10 4 0 6 5 11 10 11 6 0
10 -2 10 -4z m210 -51 c0 -9 -6 -12 -15 -9 -8 4 -15 10 -15 15 0 5 7 9 15 9 8
0 15 -7 15 -15z m95 -5 c3 -5 1 -10 -4 -10 -6 0 -11 5 -11 10 0 6 2 10 4 10 3
0 8 -4 11 -10z m471 -125 c18 -14 18 -14 -7 -15 -15 0 -32 7 -39 15 -10 12 -9
15 7 15 10 0 28 -7 39 -15z m-1311 -42 c12 -11 15 -24 10 -42 -14 -54 -16
-122 -6 -183 25 -142 25 -142 51 -148 18 -4 26 -14 28 -33 5 -39 -46 -69 -113
-66 -27 2 -62 -3 -76 -10 -19 -9 -32 -10 -45 -3 -13 7 -24 6 -38 -3 -33 -20
-91 -27 -120 -14 -29 14 -35 46 -10 56 14 5 15 16 9 67 -3 34 -12 88 -20 121
-7 33 -16 77 -19 97 -5 28 -12 37 -29 40 -16 2 -22 10 -22 28 0 22 7 27 50 37
28 7 58 10 67 7 23 -7 54 -59 87 -146 27 -70 28 -71 34 -38 4 18 7 65 7 104 0
85 10 102 71 126 57 23 64 23 84 3z m505 -18 c7 -9 13 -47 14 -93 l1 -77 -28
-3 c-39 -5 -54 11 -62 68 l-7 48 -58 7 c-33 4 -64 4 -69 0 -6 -3 -11 -31 -11
-61 0 -48 2 -54 20 -54 15 0 26 13 40 45 11 25 24 45 29 45 6 0 18 -14 26 -31
15 -28 16 -60 6 -181 -1 -10 -31 -38 -41 -38 -20 0 -40 34 -40 66 0 28 -4 35
-17 32 -19 -4 -31 -35 -32 -90 l-1 -38 50 -2 c28 -1 58 -2 67 -2 12 -1 22 16
35 60 20 69 39 83 69 53 18 -18 20 -28 14 -67 -14 -101 -18 -114 -39 -123 -29
-13 -312 3 -328 19 -16 16 1 46 29 50 24 4 31 40 40 210 l5 112 -24 0 c-33 0
-63 23 -55 44 6 14 28 16 180 16 143 0 177 -3 187 -15z m857 -244 c132 -66
154 -83 135 -109 -18 -25 -62 -123 -62 -137 0 -25 -34 -57 -53 -49 -34 13 -39
40 -17 100 11 31 26 64 35 74 14 15 13 18 -10 28 -39 18 -40 17 -69 -45 -15
-32 -45 -92 -66 -133 -22 -41 -40 -78 -40 -83 0 -4 18 -14 40 -23 42 -17 59
-46 40 -69 -18 -22 -50 -18 -106 11 -27 15 -69 37 -94 50 -64 32 -85 57 -70
83 12 24 35 26 70 6 14 -8 30 -14 35 -15 6 0 26 28 44 63 19 34 52 89 73 123
21 34 38 68 38 75 0 8 -13 20 -29 26 -27 10 -30 8 -49 -26 -12 -20 -34 -52
-51 -71 -25 -29 -32 -33 -48 -24 -32 19 -26 41 34 123 41 57 64 80 80 80 12 1
75 -26 140 -58z m466 -290 c34 -37 37 -45 37 -100 0 -85 -31 -161 -88 -217
-88 -86 -176 -103 -253 -51 -40 27 -88 94 -88 122 0 11 14 58 32 105 28 74 38
89 82 122 68 52 118 69 185 63 49 -4 59 -9 93 -44z m-1228 -186 c182 -32 356
-90 525 -175 184 -93 430 -276 430 -321 0 -11 5 -17 10 -14 6 3 15 3 21 0 10
-7 -21 -45 -37 -45 -4 0 -34 24 -68 53 -538 470 -1291 589 -1944 307 -29 -12
-55 -20 -59 -17 -3 4 2 21 10 40 12 24 27 37 54 45 24 7 39 8 41 2 7 -20 41
-9 62 20 24 34 36 37 60 15 15 -13 22 -13 65 1 29 10 49 24 52 35 6 22 19 25
26 7 3 -8 6 -5 6 6 1 14 7 17 26 14 14 -3 28 -1 31 3 3 5 15 9 28 9 12 0 26 4
32 10 30 30 466 34 629 5z m1023 -588 c4 -44 -6 -46 -39 -11 -24 25 -24 26 -4
40 28 21 40 13 43 -29z m-827 -1160 c7 -18 19 -36 26 -40 10 -6 7 -17 -13 -47
-29 -44 -36 -47 -54 -25 -22 27 -20 11 7 -61 25 -67 38 -158 21 -148 -10 6
-30 -44 -23 -56 10 -15 -7 -40 -27 -40 -17 0 -18 -3 -9 -14 10 -11 9 -21 -3
-45 -17 -32 -21 -52 -8 -49 4 1 18 -4 30 -11 13 -7 26 -10 29 -7 3 3 21 -1 41
-10 19 -8 37 -12 40 -9 3 3 0 5 -6 5 -7 0 -12 6 -12 13 0 6 16 -7 36 -30 22
-27 44 -43 58 -43 27 0 46 -18 46 -42 0 -10 4 -26 9 -36 5 -9 21 -45 36 -79
l28 -62 -37 -46 c-37 -44 -51 -52 -71 -37 -14 10 -54 68 -57 83 -2 7 -10 20
-18 30 -8 9 -46 65 -84 123 -57 89 -66 109 -56 121 11 13 10 14 -4 9 -9 -3
-16 -1 -16 5 0 6 -7 11 -14 11 -15 0 -116 154 -116 175 0 6 3 6 8 -1 4 -6 19
-13 35 -16 19 -4 25 -2 18 6 -4 6 -11 23 -15 39 -4 15 -23 46 -43 68 -33 37
-35 42 -21 53 11 8 14 21 11 39 -4 20 -1 27 11 27 18 0 21 21 5 37 -7 7 -3 22
15 49 39 60 68 85 82 73 9 -7 15 -6 21 3 12 21 56 37 69 26 7 -5 18 -23 25
-41z m100 -244 c32 -35 49 -66 49 -91 0 -27 -34 -55 -58 -48 -29 9 -54 53 -47
79 5 17 4 19 -4 7 -9 -12 -12 -13 -20 -1 -12 19 -2 49 22 66 28 20 28 20 58
-12z m-68 -97 c4 -10 -2 -13 -18 -12 -17 1 -21 4 -13 14 14 16 25 15 31 -2z
m-3 -64 c0 -4 -9 -13 -20 -20 -22 -13 -27 -3 -8 16 14 14 28 16 28 4z m35 -32
c3 -5 -1 -10 -9 -10 -9 0 -16 5 -16 10 0 6 4 10 9 10 6 0 13 -4 16 -10z m40
-30 c8 -16 15 -33 15 -38 0 -13 -39 -22 -46 -11 -3 5 -13 5 -24 -1 -39 -21
-43 -9 -7 24 20 18 37 39 37 45 0 19 9 12 25 -19z m-85 10 c0 -5 -4 -10 -10
-10 -5 0 -10 5 -10 10 0 6 5 10 10 10 6 0 10 -4 10 -10z m987 -729 c-8 -9 -17
-24 -21 -35 -5 -14 -13 -17 -36 -13 -23 5 -28 3 -23 -8 3 -8 0 -15 -6 -15 -14
0 -14 25 0 52 8 14 17 18 33 14 14 -3 23 -1 23 7 3 43 14 91 25 105 11 13 13
7 16 -37 2 -35 -2 -59 -11 -70z m2403 -33 c-1 -199 -43 -579 -80 -728 -5 -19
-12 -50 -15 -67 -9 -57 -75 -265 -111 -353 -44 -105 -125 -260 -168 -318 -179
-245 -358 -398 -623 -530 -165 -83 -414 -165 -568 -186 -22 -4 -51 -8 -65 -11
-14 -2 -45 -7 -70 -10 -25 -2 -79 -9 -120 -15 -41 -5 -108 -10 -149 -10 l-74
0 6 128 c31 612 339 1189 859 1606 263 212 631 408 988 527 199 66 190 68 190
-33z m-2540 -108 c0 -12 -40 -33 -48 -25 -4 4 2 13 12 21 23 16 36 18 36 4z
m-65 -42 c-4 -13 -9 -35 -12 -51 -3 -17 -29 -49 -72 -88 -68 -62 -202 -159
-219 -159 -5 0 -26 -14 -48 -30 -21 -17 -47 -30 -58 -28 -12 1 -30 -3 -42 -9
-11 -7 -26 -8 -34 -3 -11 7 -10 12 5 27 35 35 69 52 92 47 17 -5 23 -2 23 10
0 8 54 56 119 105 66 50 146 115 178 145 63 60 79 68 68 34z m-511 -376 c15
-24 -9 -49 -72 -75 -77 -31 -82 -32 -82 -12 0 8 -4 15 -10 15 -5 0 -10 -9 -10
-20 0 -25 -73 -48 -96 -29 -8 6 -23 9 -34 6 -25 -6 -27 11 -2 19 9 3 56 21
104 40 62 24 96 32 118 28 25 -6 29 -4 24 10 -5 12 -2 15 10 10 9 -3 16 -1 16
5 0 13 26 15 34 3z m-1624 -12 c0 -5 -2 -10 -4 -10 -3 0 -8 5 -11 10 -3 6 -1
10 4 10 6 0 11 -4 11 -10z m70 0 c0 -5 -4 -10 -9 -10 -6 0 -13 5 -16 10 -3 6
1 10 9 10 9 0 16 -4 16 -10z m-13 -25 c3 -9 3 -18 0 -21 -7 -8 -47 15 -47 26
0 16 40 11 47 -5z m104 -15 c24 -13 25 -32 2 -28 -10 1 -23 -1 -30 -5 -13 -8
-43 1 -43 14 0 5 9 9 20 9 11 0 20 5 20 10 0 13 6 13 31 0z m189 -62 c11 -12
19 -27 17 -33 -6 -18 -34 -17 -40 2 -2 10 -8 26 -12 36 -10 24 10 22 35 -5z
m870 -18 c17 -10 14 -15 -17 -24 -16 -5 -23 -3 -23 7 0 26 15 33 40 17z m-790
-30 c0 -20 -1 -20 -25 -4 -14 9 -25 18 -25 20 0 2 11 4 25 4 18 0 25 -5 25
-20z m126 6 c18 -14 18 -16 3 -31 -23 -24 -99 -12 -99 15 0 17 16 25 61 29 8
0 24 -5 35 -13z m514 4 c22 -12 17 -36 -11 -51 -13 -6 -25 -6 -38 1 -14 7 -21
6 -24 -3 -4 -9 -7 -9 -18 1 -19 18 0 45 37 53 16 4 30 7 32 8 2 0 12 -4 22 -9z
m908 -28 c2 -14 -7 -28 -27 -43 -17 -13 -31 -30 -31 -39 0 -14 120 -200 151
-234 9 -10 99 40 99 55 0 5 -9 28 -21 50 -23 46 -22 87 3 103 24 15 47 -9 87
-92 42 -86 38 -107 -26 -146 -26 -16 -77 -51 -113 -76 -36 -26 -80 -52 -98
-58 -70 -24 -98 31 -42 80 30 27 31 28 15 58 -9 17 -33 57 -54 89 -21 33 -43
73 -50 89 -16 39 -32 45 -77 26 -38 -16 -64 -7 -64 22 0 23 210 149 234 141 6
-2 12 -13 14 -25z m-1185 5 c15 -11 16 -15 4 -31 -19 -26 -47 -14 -47 19 0 27
16 32 43 12z m163 -2 c2 -5 -4 -19 -12 -30 -14 -19 -16 -19 -28 -3 -12 16 -14
16 -29 0 -16 -15 -17 -15 -17 4 0 11 6 26 12 32 15 15 70 12 74 -3z m754 -207
c37 -77 37 -95 4 -110 -33 -15 -50 -5 -78 48 l-22 41 -62 -19 c-69 -21 -72
-27 -44 -95 15 -37 19 -40 35 -29 11 9 17 27 17 54 0 48 12 59 44 39 22 -15
43 -61 68 -150 13 -45 -2 -70 -41 -65 -19 2 -28 11 -35 36 -12 43 -42 41 -38
-3 5 -48 23 -95 35 -95 7 0 35 9 62 19 l50 19 0 69 c0 63 2 68 23 71 36 5 49
-13 67 -94 20 -89 13 -102 -58 -123 -23 -7 -53 -18 -67 -23 -49 -21 -145 -48
-168 -48 -31 0 -39 27 -15 52 19 19 20 21 3 91 -10 40 -29 102 -44 138 -14 36
-26 71 -26 77 0 8 -14 10 -43 6 -35 -5 -45 -3 -50 10 -9 22 29 44 156 90 56
20 111 41 122 46 11 5 33 9 48 9 25 1 31 -6 57 -61z m-439 -68 c30 -16 23 -38
-18 -57 -21 -10 -38 -25 -39 -33 -32 -284 -42 -341 -61 -362 -20 -22 -66 -23
-86 -3 -14 14 -73 174 -108 295 -12 43 -20 55 -36 56 -47 3 -58 34 -20 58 27
17 110 30 137 21 26 -8 25 -30 -1 -49 -21 -14 -21 -15 -4 -67 10 -30 27 -74
39 -99 l20 -45 12 65 c26 147 26 148 2 152 -24 3 -36 34 -21 49 22 22 152 35
184 19z m-593 -12 c7 -7 12 -26 12 -42 0 -17 12 -104 27 -193 l27 -163 27 0
c47 0 66 -49 27 -74 -24 -14 -168 7 -183 28 -10 14 -13 14 -27 0 -14 -14 -25
-14 -99 -2 -74 12 -84 16 -87 36 -3 23 12 34 50 36 23 1 48 54 109 230 47 134
83 178 117 144z m6422 -8 c0 -5 -11 -10 -25 -10 -14 0 -25 5 -25 10 0 6 11 10
25 10 14 0 25 -4 25 -10z m-976 -407 c4 -9 2 -21 -4 -27 -12 -12 -15 -8 -24
22 -9 27 18 32 28 5z m-5654 -234 c72 -9 100 -16 100 -25 0 -9 -12 -14 -37
-14 -74 1 -255 49 -186 50 12 0 67 -5 123 -11z m4680 -159 c0 -57 -11 -64 -91
-58 l-44 3 -3 53 c-3 47 -1 53 15 50 11 -2 18 -12 18 -25 0 -12 4 -25 8 -29 4
-4 7 4 7 19 0 47 31 41 43 -8 4 -16 5 -15 6 6 1 27 19 51 33 43 4 -3 8 -27 8
-54z m-278 -71 c2 -34 -1 -50 -10 -54 -7 -3 -10 -10 -7 -15 4 -6 1 -18 -6 -26
-10 -12 -9 -13 4 -8 25 9 35 -45 12 -63 -11 -7 -13 -13 -7 -13 7 0 12 -11 12
-25 0 -28 -9 -31 -30 -12 -9 7 -8 4 1 -8 9 -11 14 -26 11 -34 -3 -8 0 -11 6
-7 17 10 21 -537 5 -575 -9 -22 -9 -28 3 -33 8 -3 14 -18 14 -33 0 -44 25 -71
96 -103 35 -16 64 -33 64 -38 0 -5 -11 -14 -25 -20 -20 -9 -34 -7 -78 13 -75
33 -140 115 -91 115 8 0 12 5 9 10 -4 6 -14 9 -23 8 -16 -3 -17 23 -20 300 -1
166 1 302 4 302 4 0 13 -8 21 -17 13 -16 13 -16 3 4 -5 12 -14 24 -19 27 -6 4
-8 320 -2 368 1 4 12 3 25 -3 20 -9 25 -20 28 -60z m3003 0 c0 -42 -4 -54 -16
-57 -10 -2 -19 5 -22 17 -4 16 -13 20 -46 19 -47 0 -56 4 -48 27 4 10 20 15
46 15 30 0 43 5 51 21 19 35 35 16 35 -42z m-2730 -69 c0 -8 -11 -17 -25 -21
-21 -5 -22 -7 -7 -14 23 -10 21 -31 -5 -49 l-22 -16 26 0 c32 0 43 -13 23 -30
-13 -11 -83 -12 -112 -2 -22 7 -14 30 18 53 l32 22 -32 26 c-50 41 -41 52 37
49 51 -2 67 -7 67 -18z m2672 -50 c50 -22 69 -42 57 -61 -6 -10 -110 -59 -125
-59 -12 0 -11 37 1 45 6 3 10 17 10 30 0 13 -4 27 -10 30 -15 9 -13 48 3 42 6
-3 35 -15 64 -27z m-2690 -162 c27 -25 31 -73 8 -105 -10 -15 -26 -21 -55 -21
-42 -1 -54 7 -44 31 3 9 17 14 37 13 28 -1 32 3 35 27 3 24 0 27 -27 27 -16 0
-31 -5 -33 -12 -5 -15 -28 -1 -28 17 0 44 69 59 107 23z m2743 -23 c10 -12 8
-16 -15 -25 -15 -6 -32 -10 -39 -9 -32 4 -46 -3 -46 -21 0 -11 -7 -20 -15 -20
-11 0 -15 11 -15 38 0 21 3 42 7 45 13 14 110 7 123 -8z m-2747 -167 c31 1 35
-13 10 -40 -15 -17 -15 -19 2 -32 11 -8 16 -19 12 -30 -6 -14 -18 -16 -69 -14
l-63 3 -3 42 c-4 52 25 89 61 76 12 -4 34 -6 50 -5z"/>
<path d="M8114 18077 c2 -37 7 -71 10 -74 14 -15 15 8 1 73 l-14 69 3 -68z"/>
<path d="M7941 18109 c-2 -14 32 -115 41 -124 7 -7 9 -2 4 16 -6 28 -44 118
-45 108z"/>
<path d="M9855 17804 c-72 -37 -125 -116 -125 -184 0 -63 19 -87 71 -88 33 -1
51 7 99 45 63 49 80 80 80 149 0 35 -5 47 -31 68 -35 30 -52 32 -94 10z"/>
<path d="M8890 15891 c0 -6 4 -13 10 -16 6 -3 7 1 4 9 -7 18 -14 21 -14 7z"/>
<path d="M9078 15209 c-9 -16 -13 -29 -7 -29 9 0 33 49 27 56 -2 1 -11 -11
-20 -27z"/>
<path d="M9045 15660 c-3 -5 -1 -10 4 -10 6 0 11 5 11 10 0 6 -2 10 -4 10 -3
0 -8 -4 -11 -10z"/>
<path d="M8287 13540 c-3 -8 -15 -39 -26 -67 l-19 -53 34 0 c33 0 34 1 33 38
-2 54 -14 101 -22 82z"/>
<path d="M8216 13334 c-8 -22 -8 -24 8 -24 7 0 19 -6 25 -14 10 -12 16 -12 44
2 42 20 42 19 27 37 -17 21 -96 20 -104 -1z"/>
<path d="M12707 12304 c-9 -10 2 -24 19 -24 8 0 14 7 14 15 0 15 -21 21 -33 9z"/>
<path d="M9075 18680 c3 -5 15 -10 25 -10 10 0 22 5 25 10 4 6 -7 10 -25 10
-18 0 -29 -4 -25 -10z"/>
<path d="M7758 18673 c7 -3 16 -2 19 1 4 3 -2 6 -13 5 -11 0 -14 -3 -6 -6z"/>
<path d="M9350 18589 c0 -5 5 -7 10 -4 6 3 10 8 10 11 0 2 -4 4 -10 4 -5 0
-10 -5 -10 -11z"/>
<path d="M9827 18516 c-5 -15 -6 -31 -3 -34 8 -8 18 25 14 45 -3 13 -6 10 -11
-11z"/>
<path d="M10030 18317 c0 -15 4 -27 10 -27 5 0 9 9 7 20 -5 31 -17 36 -17 7z"/>
<path d="M11133 17265 c0 -22 2 -30 4 -17 2 12 2 30 0 40 -3 9 -5 -1 -4 -23z"/>
<path d="M9060 16531 c0 -10 30 -24 37 -17 3 2 -5 9 -16 16 -12 6 -21 7 -21 1z"/>
<path d="M7840 16271 c0 -11 29 -35 35 -29 2 2 -4 12 -15 21 -11 9 -20 13 -20
8z"/>
<path d="M8870 16100 c0 -11 4 -20 9 -20 5 0 7 9 4 20 -3 11 -7 20 -9 20 -2 0
-4 -9 -4 -20z"/>
<path d="M8470 15823 c0 -13 5 -23 10 -23 13 0 13 11 0 30 -8 12 -10 11 -10
-7z"/>
<path d="M8419 15538 l-53 -63 48 45 c43 41 74 80 62 80 -2 0 -28 -28 -57 -62z"/>
<path d="M8190 15521 c0 -5 8 -11 18 -15 9 -3 23 -9 30 -12 11 -5 12 -2 3 15
-11 20 -51 30 -51 12z"/>
<path d="M7886 15343 c-6 -14 -5 -15 5 -6 7 7 10 15 7 18 -3 3 -9 -2 -12 -12z"/>
<path d="M7960 15210 c0 -5 6 -10 14 -10 8 0 17 -6 19 -12 4 -8 6 -7 6 3 1 9
-6 20 -15 23 -21 8 -24 8 -24 -4z"/>
<path d="M11015 14568 c-79 -64 -146 -120 -195 -163 -205 -182 -427 -460 -559
-700 -30 -54 -31 -58 -9 -37 13 12 29 22 36 22 6 0 15 6 19 14 16 29 183 174
207 180 34 8 108 82 130 127 9 20 42 61 72 90 74 73 70 69 167 199 68 93 200
312 185 309 -1 0 -25 -18 -53 -41z"/>
<path d="M10805 14140 c3 -5 8 -10 11 -10 2 0 4 5 4 10 0 6 -5 10 -11 10 -5 0
-7 -4 -4 -10z"/>
<path d="M14103 13773 c-28 -11 -11 -39 20 -34 4 0 7 -5 7 -13 0 -8 4 -18 10
-21 6 -3 7 1 4 9 -4 9 -1 16 6 16 10 0 10 4 0 15 -7 9 -20 13 -28 10 -10 -3
-12 0 -8 10 3 8 4 15 3 14 -1 0 -8 -3 -14 -6z"/>
<path d="M7792 13688 c-21 -80 -21 -80 31 -97 43 -13 52 -13 75 0 21 12 28 23
30 56 l3 41 -56 21 c-31 12 -59 21 -64 21 -5 0 -13 -19 -19 -42z"/>
<path d="M10555 13719 c-4 -6 -5 -12 -2 -15 2 -3 7 2 10 11 7 17 1 20 -8 4z"/>
<path d="M14095 13710 c3 -5 8 -10 11 -10 2 0 4 5 4 10 0 6 -5 10 -11 10 -5 0
-7 -4 -4 -10z"/>
<path d="M13488 13653 c7 -3 16 -2 19 1 4 3 -2 6 -13 5 -11 0 -14 -3 -6 -6z"/>
<path d="M14022 13600 c0 -19 2 -27 5 -17 2 9 2 25 0 35 -3 9 -5 1 -5 -18z"/>
<path d="M14082 13605 c0 -16 2 -22 5 -12 2 9 2 23 0 30 -3 6 -5 -1 -5 -18z"/>
<path d="M10230 13556 c0 -8 7 -21 15 -30 8 -8 12 -23 9 -33 -5 -17 -5 -17 6
-1 8 13 7 25 -5 48 -17 33 -25 38 -25 16z"/>
<path d="M12758 13513 c7 -3 16 -2 19 1 4 3 -2 6 -13 5 -11 0 -14 -3 -6 -6z"/>
<path d="M14041 13474 c-12 -15 -21 -31 -21 -35 0 -5 -15 -48 -34 -97 -19 -48
-37 -99 -40 -114 -4 -17 -13 -28 -24 -28 -14 0 -15 -2 -2 -10 12 -7 12 -18 3
-62 -6 -29 -9 -56 -6 -60 2 -5 22 -8 44 -8 34 0 39 3 39 23 0 34 11 67 22 67
6 0 8 -7 4 -15 -3 -8 -1 -15 4 -15 6 0 10 7 10 15 0 8 5 15 10 15 6 0 10 -20
10 -45 l0 -45 45 0 c45 0 45 0 45 35 0 19 5 35 11 35 5 0 7 -5 3 -11 -4 -8 0
-9 15 -4 18 5 22 2 27 -25 6 -29 9 -31 48 -28 40 3 41 4 38 38 -6 55 -68 262
-101 334 -42 93 -65 90 -34 -5 28 -82 42 -199 24 -199 -6 0 -11 -4 -11 -10 0
-5 7 -10 15 -10 10 0 15 -10 15 -34 0 -38 -15 -55 -33 -37 -15 15 -17 28 -33
238 -6 85 -23 137 -39 122 -8 -9 -25 -168 -25 -241 0 -67 -7 -89 -26 -81 -8 3
-14 -1 -15 -8 0 -8 -4 -4 -9 8 -11 27 22 224 50 297 12 34 -3 34 -29 0z"/>
<path d="M14210 13475 c13 -14 25 -25 27 -25 2 0 -4 11 -13 25 -9 14 -21 25
-27 25 -6 0 0 -11 13 -25z"/>
<path d="M13965 13435 c-21 -30 -42 -55 -47 -55 -13 0 -9 28 5 33 6 3 2 6 -10
6 -16 1 -20 -4 -16 -18 3 -12 -2 -20 -16 -24 -12 -3 -19 -1 -15 4 3 5 0 9 -5
9 -14 0 -14 -37 -1 -45 6 -3 10 -1 10 4 0 6 5 11 11 11 8 0 8 -4 1 -12 -5 -7
-13 -27 -16 -45 -4 -17 -18 -43 -31 -57 -14 -15 -22 -33 -19 -41 4 -10 0 -15
-15 -15 -12 0 -21 -6 -21 -15 0 -9 6 -12 15 -9 8 4 15 4 15 1 0 -2 -7 -24 -15
-47 -21 -58 -20 -60 23 -60 38 0 39 1 50 51 7 28 12 61 12 73 0 13 9 34 20 48
14 18 16 28 8 36 -8 8 -7 13 6 18 10 4 21 2 26 -5 5 -9 9 -6 13 8 3 12 2 21
-1 21 -4 0 -13 4 -21 9 -11 7 -7 20 19 69 17 33 41 70 51 81 11 12 16 21 11
21 -5 0 -27 -25 -47 -55z"/>
<path d="M14271 13376 c29 -62 79 -240 79 -283 0 -20 5 -23 39 -23 l40 0 -15
53 c-9 28 -28 79 -43 112 -27 59 -117 205 -125 205 -3 0 8 -29 25 -64z"/>
<path d="M10000 13359 c0 -5 5 -7 10 -4 6 3 10 8 10 11 0 2 -4 4 -10 4 -5 0
-10 -5 -10 -11z"/>
<path d="M9985 13320 c4 -6 11 -8 16 -5 14 9 11 15 -7 15 -8 0 -12 -5 -9 -10z"/>
<path d="M13836 13314 c-8 -22 1 -31 16 -16 9 9 9 15 1 23 -7 7 -12 5 -17 -7z"/>
<path d="M14413 13265 c7 -16 44 -138 51 -167 4 -19 13 -28 26 -28 11 0 20 3
20 6 0 11 -53 138 -62 149 -5 5 -16 19 -24 30 -9 11 -14 16 -11 10z"/>
<path d="M13900 13149 c0 -5 5 -7 10 -4 6 3 10 8 10 11 0 2 -4 4 -10 4 -5 0
-10 -5 -10 -11z"/>
<path d="M13690 12980 c0 -20 5 -30 15 -30 10 0 15 10 15 30 0 20 -5 30 -15
30 -10 0 -15 -10 -15 -30z"/>
<path d="M13754 12995 c-11 -28 4 -45 41 -45 32 0 35 2 35 30 0 28 -3 30 -35
30 -22 0 -38 -6 -41 -15z"/>
<path d="M13870 12980 l0 -31 58 3 c53 3 57 5 57 28 0 23 -4 25 -58 28 l-57 3
0 -31z"/>
<path d="M14019 13000 c-6 -46 -8 -45 80 -48 88 -3 103 3 94 39 -5 17 -15 19
-89 19 -49 0 -85 -4 -85 -10z"/>
<path d="M14227 12988 c-9 -33 -1 -38 59 -38 53 0 54 0 54 30 0 30 -1 30 -54
30 -47 0 -54 -3 -59 -22z"/>
<path d="M14372 12983 c3 -25 7 -28 43 -28 36 0 40 3 40 25 0 22 -5 25 -43 28
-42 3 -43 2 -40 -25z"/>
<path d="M14490 12981 c0 -21 5 -31 16 -31 11 0 14 8 12 27 -4 39 -28 42 -28
4z"/>
<path d="M14128 12913 c6 -2 18 -2 25 0 6 3 1 5 -13 5 -14 0 -19 -2 -12 -5z"/>
<path d="M14268 12913 c6 -2 18 -2 25 0 6 3 1 5 -13 5 -14 0 -19 -2 -12 -5z"/>
<path d="M14458 12913 c12 -2 30 -2 40 0 9 3 -1 5 -23 4 -22 0 -30 -2 -17 -4z"/>
<path d="M14528 12913 c6 -2 18 -2 25 0 6 3 1 5 -13 5 -14 0 -19 -2 -12 -5z"/>
<path d="M13625 12878 c-10 -24 -1 -178 10 -178 13 0 19 170 6 183 -7 7 -12 5
-16 -5z"/>
<path d="M13704 12877 c-3 -8 -4 -52 -2 -98 3 -81 4 -84 27 -87 15 -3 30 3 38
14 21 28 16 42 -13 36 l-26 -5 4 69 c3 57 7 69 21 68 9 -1 17 2 17 7 0 14 -60
10 -66 -4z"/>
<path d="M13827 12883 c-9 -15 0 -174 10 -184 6 -6 34 -9 64 -7 l54 3 0 95 0
95 -62 3 c-34 2 -64 -1 -66 -5z m118 -72 c0 -56 -2 -64 -22 -72 -37 -14 -56
15 -50 73 8 62 13 70 45 66 26 -3 27 -5 27 -67z"/>
<path d="M14010 12796 l0 -95 33 -6 c26 -5 86 -3 150 4 4 1 6 43 5 94 l-3 92
-92 3 -93 3 0 -95z m128 72 c7 -7 12 -38 12 -70 l0 -58 -46 0 -45 0 2 63 c1
34 7 65 13 69 17 12 51 9 64 -4z"/>
<path d="M14252 12793 l3 -98 60 0 60 0 3 98 3 97 -66 0 -66 0 3 -97z m74 60
c1 -12 4 -40 8 -62 5 -33 3 -42 -12 -50 -10 -6 -29 -7 -41 -4 -20 5 -22 11
-20 67 2 74 4 78 37 74 20 -2 27 -9 28 -25z"/>
<path d="M14437 12884 c-11 -11 -8 -182 2 -189 6 -3 15 3 20 14 15 26 14 31
-5 31 -13 0 -15 11 -12 68 3 50 7 67 18 67 8 0 15 -7 16 -15 1 -8 2 -35 3 -60
l2 -45 15 28 c8 15 14 45 12 65 -3 33 -6 37 -33 40 -17 2 -34 0 -38 -4z"/>
<path d="M13672 12850 c0 -19 2 -27 5 -17 2 9 2 25 0 35 -3 9 -5 1 -5 -18z"/>
<path d="M13760 12851 c0 -6 4 -13 10 -16 6 -3 7 1 4 9 -7 18 -14 21 -14 7z"/>
<path d="M13446 12788 c-3 -13 -6 -35 -6 -50 0 -23 4 -28 25 -28 22 0 25 4 20
25 -3 14 -7 36 -10 50 -7 31 -21 32 -29 3z"/>
<path d="M13672 12790 c0 -14 2 -19 5 -12 2 6 2 18 0 25 -3 6 -5 1 -5 -13z"/>
<path d="M13412 12788 c-5 -7 -17 -28 -26 -45 -16 -31 -16 -33 1 -33 14 0 21
12 29 45 11 49 11 51 -4 33z"/>
<path d="M13505 12783 c3 -10 9 -30 12 -45 6 -30 33 -39 33 -12 0 20 -31 74
-43 74 -5 0 -6 -8 -2 -17z"/>
<path d="M13672 12730 c0 -19 2 -27 5 -17 2 9 2 25 0 35 -3 9 -5 1 -5 -18z"/>
<path d="M13528 12683 c12 -2 30 -2 40 0 9 3 -1 5 -23 4 -22 0 -30 -2 -17 -4z"/>
<path d="M13415 12654 c6 -2 9 -32 7 -70 l-4 -65 44 3 43 3 1 68 0 67 -50 -1
c-28 0 -46 -2 -41 -5z m84 -70 c5 -25 -26 -46 -50 -33 -21 11 -25 49 -7 67 15
15 51 -6 57 -34z"/>
<path d="M13540 12654 c11 -4 15 -20 15 -66 0 -41 4 -63 13 -66 10 -3 12 12
10 67 -3 69 -4 71 -28 70 -14 -1 -18 -3 -10 -5z"/>
<path d="M13624 12649 c-3 -6 -1 -16 6 -22 9 -9 11 -9 7 -1 -5 9 96 12 385 13
239 1 396 5 402 11 7 7 -131 10 -391 10 -279 0 -404 -3 -409 -11z"/>
<path d="M13624 12568 c1 -21 1 -39 1 -40 0 -1 163 -5 362 -8 l361 -5 23 35
c13 19 26 40 30 45 5 7 -125 10 -385 10 l-392 0 0 -37z"/>
<path d="M13165 12570 c-8 -27 11 -50 41 -50 28 0 38 14 30 46 -8 32 -61 35
-71 4z m59 1 c10 -16 -5 -41 -24 -41 -23 0 -34 16 -26 35 6 16 42 20 50 6z"/>
<path d="M13133 12493 c31 -2 83 -2 115 0 31 2 5 3 -58 3 -63 0 -89 -1 -57 -3z"/>
<path d="M13413 12493 c26 -2 67 -2 90 0 23 2 2 3 -48 3 -49 0 -68 -1 -42 -3z"/>
<path d="M13638 12493 c23 -2 59 -2 80 0 20 2 1 4 -43 4 -44 0 -61 -2 -37 -4z"/>
<path d="M13908 12493 c12 -2 30 -2 40 0 9 3 -1 5 -23 4 -22 0 -30 -2 -17 -4z"/>
<path d="M14068 12493 c23 -2 59 -2 80 0 20 2 1 4 -43 4 -44 0 -61 -2 -37 -4z"/>
<path d="M14263 12493 c9 -2 25 -2 35 0 9 3 1 5 -18 5 -19 0 -27 -2 -17 -5z"/>
<path d="M13087 12464 c-4 -4 -7 -40 -7 -81 l0 -73 109 0 c125 0 124 -1 112
100 l-6 55 -101 3 c-55 1 -103 0 -107 -4z m138 -69 c0 -47 -1 -50 -28 -53 -36
-4 -57 13 -57 48 0 50 9 61 49 58 l36 -3 0 -50z"/>
<path d="M13608 12458 c-4 -10 -3 -73 1 -140 1 -5 32 -8 70 -8 79 0 79 0 80
89 0 34 -4 58 -12 63 -20 13 -134 10 -139 -4z m107 -88 c0 -22 -5 -25 -38 -28
-39 -3 -55 13 -43 44 4 11 17 14 43 12 33 -3 38 -6 38 -28z"/>
<path d="M13890 12417 c0 -45 2 -49 14 -32 8 12 20 16 35 12 18 -4 21 -1 21
29 0 25 -4 34 -17 35 -10 0 -26 2 -35 4 -15 3 -18 -5 -18 -48z"/>
<path d="M14034 12461 c-2 -2 -4 -18 -4 -34 0 -26 3 -28 23 -22 30 10 66 10
100 1 28 -8 28 -7 25 25 l-3 34 -68 0 c-37 0 -70 -1 -73 -4z"/>
<path d="M13020 12385 c0 -43 4 -75 10 -75 6 0 10 32 10 75 0 43 -4 75 -10 75
-6 0 -10 -32 -10 -75z"/>
<path d="M13377 12453 c-4 -3 -7 -37 -7 -75 l0 -69 83 3 82 3 3 73 3 72 -79 0
c-43 0 -82 -3 -85 -7z m108 -83 c0 -20 -5 -25 -25 -25 -20 0 -26 6 -28 28 -3
26 -1 28 25 25 22 -2 28 -8 28 -28z"/>
<path d="M14250 12413 c1 -45 2 -47 16 -28 9 11 22 32 30 48 14 27 14 27 -16
27 -29 0 -30 -1 -30 -47z"/>
<path d="M14186 12375 c4 -8 8 -15 10 -15 2 0 4 7 4 15 0 8 -4 15 -10 15 -5 0
-7 -7 -4 -15z"/>
<path d="M14055 12360 c-22 -11 -65 -31 -95 -45 l-55 -25 138 0 c75 0 137 -3
137 -7 0 -5 -7 -16 -14 -25 -12 -16 -38 -18 -285 -18 l-271 0 0 -25 0 -25 336
2 c313 3 332 4 278 17 -33 7 -61 15 -63 17 -2 2 10 24 27 48 18 24 32 49 32
55 0 6 5 11 10 11 6 0 10 5 10 11 0 8 -5 8 -15 -1 -12 -10 -23 -8 -60 9 -54
25 -59 25 -110 1z"/>
<path d="M13890 12351 c0 -5 5 -13 10 -16 6 -3 10 -2 10 4 0 5 -4 13 -10 16
-5 3 -10 2 -10 -4z"/>
<path d="M13188 12263 c7 -3 16 -2 19 1 4 3 -2 6 -13 5 -11 0 -14 -3 -6 -6z"/>
<path d="M13248 12263 c7 -3 16 -2 19 1 4 3 -2 6 -13 5 -11 0 -14 -3 -6 -6z"/>
<path d="M13345 12260 l-40 -7 37 -2 c20 0 40 4 43 9 3 6 5 9 3 9 -2 -1 -21
-5 -43 -9z"/>
<path d="M13528 12254 c-3 -3 -39 -6 -78 -8 -57 -2 -76 -7 -86 -21 -8 -10 -14
-24 -14 -29 0 -7 3 -8 8 -1 4 6 48 10 97 10 83 0 90 1 90 20 0 19 8 20 190 25
l190 6 -196 2 c-108 1 -198 -1 -201 -4z"/>
<path d="M13968 12253 c7 -3 16 -2 19 1 4 3 -2 6 -13 5 -11 0 -14 -3 -6 -6z"/>
<path d="M13001 12224 c0 -11 3 -14 6 -6 3 7 2 16 -1 19 -3 4 -6 -2 -5 -13z"/>
<path d="M13080 12230 c0 -15 21 -21 77 -22 106 -2 133 2 133 17 0 12 -18 15
-105 15 -65 0 -105 -4 -105 -10z"/>
<path d="M13330 12230 c-9 -6 -10 -10 -3 -10 6 0 15 5 18 10 8 12 4 12 -15 0z"/>
<path d="M14305 12180 c27 -12 43 -12 25 0 -8 5 -22 9 -30 9 -10 0 -8 -3 5 -9z"/>
<path d="M13098 12168 c-1 -2 -4 -122 -7 -268 l-6 -265 -29 -3 c-16 -2 -32 2
-37 10 -13 21 -11 88 3 86 6 -2 14 5 16 14 2 13 -1 16 -12 12 -14 -5 -16 4
-14 70 1 69 3 76 22 77 20 0 20 1 -1 11 -21 10 -23 19 -26 122 -1 61 -3 -6 -2
-149 l0 -260 48 -3 c45 -3 47 -5 47 -33 0 -16 5 -29 10 -29 6 0 10 53 10 139
0 92 4 142 11 147 6 3 14 2 18 -4 4 -6 12 -7 20 -3 10 7 9 9 -3 14 -9 4 -16
12 -16 18 0 8 4 8 15 -1 11 -9 18 -10 28 -1 8 6 17 8 20 4 4 -3 7 -1 7 5 0 7
-5 12 -11 12 -5 0 -8 4 -5 9 3 5 -2 12 -11 15 -9 4 -20 1 -24 -5 -4 -7 -15 -9
-25 -5 -18 7 -18 8 0 22 23 16 46 18 46 4 0 -5 6 -7 14 -4 8 3 21 -5 30 -18
13 -18 16 -52 16 -190 0 -145 2 -167 15 -162 9 4 15 19 15 35 0 25 4 29 27 29
24 0 25 1 10 13 -15 10 -18 33 -20 153 -1 107 1 145 12 157 12 15 11 17 -3 17
-14 0 -16 15 -17 98 -1 53 -1 100 0 105 1 6 -186 11 -191 5z m112 -73 c7 -9
10 -36 8 -72 -4 -57 -5 -58 -33 -58 l-29 0 -4 73 c-4 71 -3 72 21 72 13 0 30
-7 37 -15z"/>
<path d="M13383 12163 c4 -3 2 -12 -4 -19 -7 -8 -10 -97 -10 -255 1 -167 -2
-246 -10 -255 -9 -11 -7 -14 10 -14 17 0 21 -6 21 -32 0 -29 3 -33 28 -33 32
0 94 36 121 71 17 22 18 40 15 271 -2 137 -5 254 -6 261 -1 8 -26 12 -86 12
-47 0 -82 -3 -79 -7z m105 -67 c5 -24 -18 -38 -38 -23 -13 10 -13 10 -2 -5 9
-11 10 -18 2 -23 -27 -17 -43 38 -18 63 18 18 52 10 56 -12z m0 -83 c-3 -45
-5 -48 -32 -48 -25 0 -29 4 -32 33 -3 27 0 32 16 32 12 0 23 7 26 15 13 32 25
13 22 -32z m5 -155 c13 -10 19 -35 24 -96 l6 -83 -59 3 -59 3 -3 79 c-2 44 -1
85 2 93 7 17 67 17 89 1z"/>
<path d="M13450 11729 c0 -5 -4 -7 -10 -4 -5 3 -10 -1 -10 -9 0 -23 25 -19 27
4 1 11 0 20 -3 20 -2 0 -4 -5 -4 -11z"/>
<path d="M13615 12133 c-4 -21 -10 -48 -15 -60 -6 -15 -6 -23 0 -23 6 0 10
-72 10 -187 0 -102 3 -184 6 -180 4 3 7 39 8 79 l1 73 50 0 c44 0 50 -3 53
-23 3 -16 -10 -35 -45 -68 l-48 -46 60 50 60 50 -3 56 c-3 35 1 62 8 71 10 11
10 15 1 15 -15 0 -11 62 4 67 6 2 19 -3 30 -11 16 -12 17 -16 6 -30 -7 -9 -9
-16 -4 -16 5 0 8 -23 6 -50 -4 -47 -2 -50 14 -40 13 9 18 24 18 58 0 32 4 46
13 45 6 -2 12 4 12 12 0 8 -6 14 -12 13 -8 -2 -14 11 -16 36 -3 34 -1 38 11
27 8 -6 20 -10 27 -9 7 2 14 -5 15 -15 3 -14 -1 -16 -18 -11 -22 6 -22 6 1
-11 12 -9 20 -20 17 -25 -3 -5 -3 -21 1 -35 5 -22 11 -25 38 -23 25 2 31 -1
31 -17 0 -16 -7 -20 -34 -21 -66 -1 -41 -19 63 -47 116 -30 143 -33 106 -12
-23 13 -23 14 -4 15 11 0 25 -5 32 -12 8 -8 15 -8 26 2 13 10 17 9 22 -3 3 -9
3 -21 -1 -27 -3 -5 -2 -10 4 -10 5 0 18 -3 28 -6 10 -3 14 -2 7 3 -5 4 -10 31
-10 58 0 28 -2 112 -3 188 l-3 137 -73 0 c-57 0 -74 -3 -79 -16 -3 -9 -7 -70
-7 -137 -1 -67 -4 -135 -8 -152 -6 -28 -7 -29 -19 -10 -6 11 -12 14 -12 8 0
-7 -3 -13 -7 -13 -5 0 -6 61 -5 135 2 75 1 143 -4 153 -4 9 -6 20 -6 25 1 4
-14 7 -34 7 -19 0 -33 -4 -29 -9 3 -5 1 -12 -5 -16 -5 -3 -10 -24 -10 -45 0
-41 -14 -53 -42 -39 -13 7 -15 17 -11 44 4 28 2 35 -10 35 -13 0 -17 -13 -19
-62 -2 -38 -8 -63 -15 -66 -7 -2 -13 3 -13 12 0 9 -6 16 -13 16 -9 0 -12 10
-9 30 2 16 1 46 -2 65 l-7 35 -64 0 -64 0 -6 -37z m83 -15 c13 -13 16 -58 4
-58 -4 0 -13 5 -20 12 -7 7 -12 8 -12 3 0 -16 17 -37 26 -33 5 1 10 -7 12 -20
2 -12 -3 -24 -11 -28 -9 -3 -13 -13 -10 -25 5 -16 0 -19 -31 -19 -26 0 -36 4
-36 15 0 9 6 18 14 21 8 3 11 14 9 28 -3 13 0 27 6 30 6 4 11 13 11 19 0 7 -4
6 -10 -3 -7 -11 -10 -8 -10 16 0 30 15 54 35 54 6 0 16 -5 23 -12z m250 -57
c4 -62 -9 -84 -35 -58 -16 15 -15 17 8 26 16 7 18 10 7 10 -9 1 -20 10 -23 21
-9 29 4 62 23 58 13 -2 18 -16 20 -57z m188 34 c3 -14 4 -43 2 -65 -2 -26 1
-41 9 -44 7 -3 10 -12 7 -21 -4 -10 -20 -15 -49 -15 -47 0 -67 16 -44 34 9 7
13 27 11 60 -4 62 2 76 32 76 19 0 27 -7 32 -25z m-406 -130 c0 -8 -4 -15 -10
-15 -5 0 -10 7 -10 15 0 8 5 15 10 15 6 0 10 -7 10 -15z m-25 -60 c0 -26 -37
-32 -55 -10 -12 14 -11 18 1 26 23 15 54 6 54 -16z m432 10 c7 -20 3 -23 -35
-31 -27 -6 -32 -4 -32 13 0 11 3 23 7 26 12 13 54 7 60 -8z"/>
<path d="M13670 11899 c0 -5 5 -7 10 -4 6 3 10 8 10 11 0 2 -4 4 -10 4 -5 0
-10 -5 -10 -11z"/>
<path d="M14255 12137 c-6 -30 -9 -139 -6 -192 1 -16 8 -21 29 -20 20 0 27 -5
27 -20 0 -15 -7 -20 -27 -20 -27 1 -28 -1 -28 -51 0 -33 -5 -54 -12 -57 -7 -2
7 -8 32 -13 l45 -10 3 186 c3 215 1 230 -33 230 -19 0 -25 -6 -30 -33z m43
-79 c-2 -48 -7 -63 -18 -63 -11 0 -16 15 -18 63 -3 57 -1 62 18 62 19 0 21 -5
18 -62z"/>
<path d="M14388 12153 c-15 -4 -17 -25 -17 -199 -1 -108 -3 -199 -6 -204 -4
-7 17 -20 33 -20 4 0 5 30 4 66 -3 48 0 69 10 75 10 7 10 9 1 9 -10 0 -13 34
-13 136 0 133 0 135 21 129 15 -5 19 -4 15 4 -7 11 -18 12 -48 4z"/>
<path d="M14453 11941 c2 -138 -1 -212 -8 -215 -5 -2 14 -11 44 -20 63 -19 74
-20 66 -6 -3 6 -20 10 -36 10 l-30 0 3 63 3 62 43 3 c24 2 50 -2 58 -9 12 -10
14 8 13 124 -1 74 1 139 5 145 3 5 -4 12 -17 16 -43 11 -47 8 -35 -24 6 -17 8
-45 4 -62 -4 -23 -2 -34 11 -44 28 -20 3 -36 -52 -32 -49 3 -74 25 -39 34 16
4 19 13 16 64 -3 55 -2 61 19 68 22 9 22 9 -7 16 -16 4 -37 9 -47 12 -16 5
-17 -8 -14 -205z m106 -25 c9 -10 8 -16 -3 -25 -27 -23 -74 8 -49 32 11 12 40
8 52 -7z"/>
<path d="M14658 11875 l-3 -214 100 -24 c55 -14 102 -23 105 -20 3 3 -1 8 -7
10 -10 4 -13 55 -13 212 l0 208 -41 12 c-23 7 -46 14 -53 17 -6 2 -12 -7 -13
-23 -1 -26 0 -26 12 -9 20 27 31 13 32 -39 1 -44 0 -45 -29 -45 -22 0 -29 4
-25 15 4 8 2 17 -3 20 -5 3 -7 22 -4 42 5 38 -6 53 -38 53 -16 0 -18 -20 -20
-215z m153 -26 c5 -8 9 -49 9 -91 l0 -78 -54 0 c-34 0 -55 5 -58 13 -4 10 -3
63 1 161 1 16 7 18 47 13 26 -2 50 -11 55 -18z"/>
<path d="M14620 12018 c0 -19 2 -20 10 -8 13 19 13 30 0 30 -5 0 -10 -10 -10
-22z"/>
<path d="M13315 12020 c-3 -5 1 -10 10 -10 9 0 13 5 10 10 -3 6 -8 10 -10 10
-2 0 -7 -4 -10 -10z"/>
<path d="M14917 11852 c1 -97 4 -193 6 -213 4 -34 3 -36 -22 -32 -22 3 -23 2
-6 -5 11 -5 35 -12 53 -15 l32 -6 0 159 c0 106 4 161 11 166 6 3 14 2 18 -4 4
-7 12 -8 21 -1 12 7 11 10 -7 15 -13 4 -20 10 -17 15 10 16 54 9 72 -11 19
-23 19 -21 22 -225 2 -82 5 -134 9 -115 6 34 8 35 53 38 l47 3 3 165 c2 90 0
164 -4 164 -5 0 -8 -7 -8 -15 0 -8 -4 -15 -9 -15 -6 0 -9 -9 -8 -20 1 -11 5
-20 9 -20 4 0 8 -54 8 -120 l0 -120 -40 0 -41 0 2 167 1 167 -79 22 c-43 11
-89 24 -103 27 l-25 6 2 -177z m137 117 c-6 -10 -47 -12 -57 -3 -3 3 -3 12 -1
19 4 10 12 11 35 3 16 -5 26 -14 23 -19z"/>
<path d="M15140 11956 c0 -21 16 -28 29 -12 9 11 8 15 -5 20 -22 8 -24 8 -24
-8z"/>
<path d="M15238 11754 c2 -115 7 -194 12 -194 6 0 10 -6 10 -14 0 -19 56 -11
89 13 27 19 31 25 62 93 42 95 147 174 217 163 43 -6 -161 67 -263 95 -38 10
-83 23 -100 28 l-30 9 3 -193z"/>
<path d="M13327 11920 c-3 -13 0 -20 9 -20 15 0 19 26 5 34 -5 3 -11 -3 -14
-14z"/>
<path d="M15046 11894 c-4 -9 1 -14 14 -14 23 0 27 15 6 23 -8 3 -17 -1 -20
-9z"/>
<path d="M13770 11890 c0 -5 5 -10 10 -10 6 0 10 5 10 10 0 6 -4 10 -10 10 -5
0 -10 -4 -10 -10z"/>
<path d="M15670 11797 c0 -8 -33 -30 -74 -50 -81 -40 -113 -74 -151 -161 -26
-59 -74 -101 -105 -93 -11 3 -20 2 -20 -2 0 -4 21 -13 48 -20 58 -17 228 -81
302 -114 127 -57 324 -160 351 -183 8 -8 19 -14 22 -14 10 0 171 -115 224
-162 264 -225 473 -508 595 -803 78 -191 142 -433 156 -600 8 -87 10 -509 3
-615 -4 -69 -18 -148 -52 -295 -74 -322 -254 -669 -477 -920 -174 -196 -436
-415 -497 -415 -27 0 -35 -5 -43 -28 -7 -19 -31 -39 -90 -72 -44 -25 -83 -53
-85 -62 -5 -19 -27 -25 -27 -8 0 6 -8 5 -19 -2 -24 -15 -17 -31 10 -23 10 4
19 4 19 2 0 -2 -16 -33 -35 -68 -20 -35 -45 -83 -56 -106 l-19 -42 -29 16 -28
17 36 70 c57 113 58 109 -22 71 -46 -22 -77 -44 -85 -60 -7 -14 -18 -25 -23
-25 -6 0 -8 4 -4 9 12 21 -16 20 -61 -1 -42 -21 -52 -32 -101 -125 -30 -57
-61 -103 -69 -103 -8 0 -11 -6 -8 -15 3 -8 -1 -23 -9 -35 l-14 -21 -6 23 c-4
13 -1 26 6 30 9 6 9 8 0 8 -7 0 -13 12 -13 26 0 21 3 24 23 19 22 -6 22 -6 2
10 -12 10 -16 19 -10 23 6 4 22 30 36 58 l26 51 -116 -39 c-64 -21 -131 -41
-148 -44 -18 -3 -33 -9 -33 -13 0 -3 25 -35 56 -70 30 -35 62 -75 71 -88 8
-12 18 -23 22 -23 4 0 19 22 33 50 l26 49 6 -31 c10 -53 7 -87 -14 -128 -20
-39 -40 -60 -40 -41 0 6 -5 11 -10 11 -6 0 -6 -7 2 -19 9 -15 6 -27 -15 -65
-14 -25 -23 -46 -19 -46 4 0 45 12 92 26 47 14 109 33 137 41 29 9 50 20 47
24 -10 16 47 120 65 118 30 -3 35 1 17 14 -19 14 -11 32 81 197 32 57 103 52
73 -5 -10 -19 -20 -25 -35 -21 -18 4 -18 4 -3 -8 15 -11 10 -25 -57 -144 -40
-73 -71 -132 -69 -132 19 0 269 107 397 171 788 390 1320 1021 1510 1794 40
162 63 311 78 515 15 203 6 422 -27 640 -43 297 -134 579 -264 827 -225 428
-549 766 -985 1026 -106 63 -473 237 -501 237 -2 0 -4 -6 -4 -13z m-195 -4802
c0 -27 -3 -29 -24 -16 -12 8 -12 12 -2 25 19 22 26 20 26 -9z m-15 -65 c0 -5
-9 -10 -20 -10 -11 0 -20 5 -20 10 0 6 9 10 20 10 11 0 20 -4 20 -10z m-70
-103 c-1 -32 -74 -172 -91 -172 -24 0 -13 45 31 128 40 75 60 90 60 44z m-142
-270 c2 -11 -6 -21 -20 -26 -29 -11 -31 -9 -18 23 11 29 33 31 38 3z"/>
<path d="M15050 11765 c-10 -12 -10 -15 4 -15 9 0 16 7 16 15 0 8 -2 15 -4 15
-2 0 -9 -7 -16 -15z"/>
<path d="M14601 11744 c0 -11 3 -14 6 -6 3 7 2 16 -1 19 -3 4 -6 -2 -5 -13z"/>
<path d="M14596 11695 c-3 -8 -1 -15 4 -15 6 0 10 7 10 15 0 8 -2 15 -4 15 -2
0 -6 -7 -10 -15z"/>
<path d="M15041 11694 c0 -11 3 -14 6 -6 3 7 2 16 -1 19 -3 4 -6 -2 -5 -13z"/>
<path d="M14991 11576 c2 -2 18 -6 34 -10 22 -5 26 -4 15 4 -14 9 -59 15 -49
6z"/>
<path d="M15165 11530 c11 -5 27 -9 35 -9 13 -1 13 0 0 9 -8 5 -24 9 -35 9
l-20 0 20 -9z"/>
<path d="M9785 11260 c-83 -9 -209 -40 -313 -76 -41 -14 -82 -24 -93 -21 -10
3 -22 0 -26 -5 -3 -7 -1 -8 5 -4 7 4 12 4 12 -1 0 -4 -34 -27 -75 -50 -60 -35
-79 -41 -98 -34 -26 10 -41 4 -50 -19 -3 -9 -6 -3 -6 13 -1 25 -4 27 -23 21
-31 -9 -35 -14 -20 -23 18 -11 5 -38 -21 -45 l-21 -5 23 -25 23 -24 -33 -29
c-46 -39 -86 -80 -110 -114 l-20 -29 58 0 c56 0 60 2 111 51 29 27 57 47 62
44 6 -3 10 2 10 12 0 15 2 16 10 3 8 -13 10 -12 10 3 0 17 46 66 63 67 4 0 21
10 36 21 16 12 34 19 39 15 5 -3 12 1 16 9 6 16 115 69 124 60 3 -2 10 2 16 9
6 8 69 29 140 47 124 30 136 31 270 26 166 -7 193 -11 308 -43 343 -95 633
-362 759 -698 17 -47 30 -62 88 -105 38 -28 71 -51 75 -51 8 0 -4 53 -14 60
-4 3 -18 41 -30 85 -13 44 -39 108 -57 142 -19 34 -34 64 -33 65 4 7 -26 64
-37 71 -7 4 -13 12 -13 18 0 13 -96 135 -140 179 -20 19 -39 44 -43 54 -4 10
-10 16 -14 13 -3 -4 -25 10 -47 31 -174 160 -466 275 -726 285 -69 3 -157 2
-195 -3z m-595 -219 c0 -6 -4 -13 -10 -16 -5 -3 -10 1 -10 9 0 9 5 16 10 16 6
0 10 -4 10 -9z m-40 -30 c0 -12 -20 -25 -27 -18 -7 7 6 27 18 27 5 0 9 -4 9
-9z"/>
<path d="M9270 11199 c0 -5 5 -7 10 -4 6 3 10 8 10 11 0 2 -4 4 -10 4 -5 0
-10 -5 -10 -11z"/>
<path d="M9370 11200 c20 -13 33 -13 25 0 -3 6 -14 10 -23 10 -15 0 -15 -2 -2
-10z"/>
<path d="M9236 11181 c-4 -5 -2 -12 3 -15 5 -4 12 -2 15 3 4 5 2 12 -3 15 -5
4 -12 2 -15 -3z"/>
<path d="M9140 11130 c-9 -16 -8 -18 5 -14 8 4 15 12 15 20 0 20 -7 17 -20 -6z"/>
<path d="M13335 11075 c-141 -55 -551 -134 -698 -135 l-32 -1 30 -25 c215
-184 360 -333 484 -497 l54 -72 -7 189 c-5 158 -4 187 8 183 63 -24 96 -29
111 -17 34 29 7 70 -58 85 -15 4 -29 11 -32 15 -2 4 36 61 86 126 117 153 132
174 122 173 -4 -1 -35 -12 -68 -24z"/>
<path d="M9700 11073 c0 -5 7 -17 15 -27 9 -12 12 -29 8 -45 -6 -26 -6 -26 16
-7 l21 19 -20 19 c-11 10 -20 25 -20 33 0 8 -4 15 -10 15 -5 0 -10 -3 -10 -7z"/>
<path d="M10175 11060 c-3 -5 -1 -10 4 -10 6 0 11 5 11 10 0 6 -2 10 -4 10 -3
0 -8 -4 -11 -10z"/>
<path d="M9782 10998 c2 -5 8 -9 13 -9 5 0 11 4 13 9 1 5 -4 9 -13 9 -9 0 -14
-4 -13 -9z"/>
<path d="M9830 10995 c0 -8 2 -15 4 -15 2 0 6 7 10 15 3 8 1 15 -4 15 -6 0
-10 -7 -10 -15z"/>
<path d="M9735 10940 c-3 -5 1 -10 10 -10 9 0 13 5 10 10 -3 6 -8 10 -10 10
-2 0 -7 -4 -10 -10z"/>
<path d="M9345 10883 c7 -45 -6 -58 -24 -26 -5 10 -13 14 -17 10 -5 -4 -3 -17
4 -27 10 -17 10 -20 -5 -21 -21 0 19 -20 53 -26 18 -3 22 2 22 24 0 14 -9 45
-20 67 l-19 41 6 -42z"/>
<path d="M9178 10813 c7 -3 16 -2 19 1 4 3 -2 6 -13 5 -11 0 -14 -3 -6 -6z"/>
<path d="M13563 10663 c-17 -6 -17 -48 0 -61 19 -16 334 -114 354 -110 9 2 21
11 27 21 21 34 -6 50 -175 104 -163 52 -182 56 -206 46z"/>
<path d="M14216 10457 c-11 -8 -17 -22 -14 -37 3 -22 21 -31 177 -88 96 -34
182 -60 192 -57 22 7 31 32 19 54 -8 16 -150 74 -282 115 -24 8 -50 16 -58 20
-9 4 -24 0 -34 -7z"/>
<path d="M14848 10209 c-10 -5 -18 -21 -18 -34 0 -20 12 -30 63 -56 34 -17
107 -58 163 -90 55 -33 108 -59 117 -59 19 0 39 33 32 52 -3 8 -29 29 -58 48
-49 33 -266 150 -277 149 -3 0 -13 -4 -22 -10z"/>
<path d="M13201 9888 c-17 -35 -60 -119 -96 -188 -35 -68 -61 -128 -56 -133 4
-4 27 -9 50 -10 l43 -2 35 68 c34 63 54 80 68 57 4 -6 -10 -40 -30 -76 -20
-36 -34 -68 -31 -72 4 -3 23 -6 44 -6 20 0 40 -4 43 -9 3 -5 9 1 12 13 4 16 2
20 -9 16 -8 -3 -14 -1 -14 5 0 15 58 127 70 134 6 4 32 -2 58 -13 141 -60 336
-20 430 89 l33 38 -55 16 c-31 9 -65 13 -77 10 -13 -4 -25 -2 -29 5 -10 16
-31 4 -24 -14 3 -9 -7 -15 -33 -19 -69 -12 -93 -9 -93 12 0 15 10 20 51 25 29
4 48 11 43 15 -8 6 -377 101 -395 101 -3 0 -20 -28 -38 -62z m144 -18 c3 -5
14 -10 24 -10 11 0 29 -9 42 -19 19 -15 21 -22 12 -32 -10 -10 -21 -9 -53 4
l-40 16 -21 -40 c-23 -46 -44 -42 -36 6 10 60 53 105 72 75z"/>
<path d="M15400 9821 c-5 -11 -10 -22 -10 -26 0 -3 38 -46 85 -96 47 -50 102
-112 121 -140 24 -33 43 -49 58 -49 24 0 46 17 46 36 0 17 -88 129 -170 217
-76 81 -109 96 -130 58z"/>
<path d="M13877 9726 c-52 -61 -147 -121 -178 -113 -10 3 -17 1 -14 -3 7 -11
-61 -30 -124 -36 -56 -5 -142 13 -158 33 -7 9 -13 11 -18 3 -3 -5 -10 -8 -15
-5 -7 5 -60 -82 -60 -98 0 -6 43 -17 295 -77 579 -140 618 -151 742 -213 83
-42 185 -133 215 -191 64 -124 14 -254 -134 -352 -26 -17 -45 -34 -42 -36 11
-12 -128 -264 -166 -300 -35 -34 -44 -38 -92 -38 -114 1 -208 78 -208 172 0
29 -1 30 -42 24 -24 -3 -113 -10 -198 -16 -85 -5 -156 -9 -158 -10 -2 0 0 -4
3 -10 3 -6 -4 -10 -17 -10 -18 0 -20 2 -8 10 10 7 -13 10 -75 10 -256 0 -512
30 -710 83 l-49 13 -35 -73 c-35 -75 -61 -94 -61 -46 0 25 43 111 62 124 5 3
-10 13 -34 22 -47 18 -68 21 -68 10 -1 -25 -18 -35 -41 -23 l-24 11 22 -18
c17 -13 20 -22 13 -33 -9 -13 -11 -13 -20 0 -7 11 -8 7 -6 -15 1 -18 -8 -50
-24 -80 -82 -152 -103 -196 -94 -205 16 -15 93 -38 88 -26 -5 14 58 128 74
134 27 9 22 -31 -11 -92 l-36 -64 31 -11 c34 -12 55 -14 46 -5 -5 4 161 347
175 360 7 7 57 -18 57 -28 0 -5 -15 -36 -32 -69 -32 -56 -50 -71 -63 -49 -3 6
-11 10 -17 10 -6 0 -1 -8 10 -19 25 -21 27 -38 8 -64 -14 -18 -14 -18 -19 0
-3 10 -5 3 -6 -15 -1 -33 -45 -131 -64 -143 -8 -6 19 -15 70 -25 7 -1 41 -9
76 -18 35 -9 99 -21 143 -26 43 -6 111 -15 149 -21 180 -25 692 -21 852 7 l31
6 -19 32 c-37 64 6 141 80 141 71 0 118 -54 108 -121 -5 -28 -3 -31 14 -27 11
3 24 14 29 24 13 24 39 31 78 20 23 -7 47 -6 81 5 41 12 48 18 44 34 -3 10 1
31 9 47 25 50 97 180 126 230 16 26 50 90 77 141 27 51 55 97 62 104 11 8 25
6 63 -12 27 -13 51 -29 54 -37 5 -12 -33 -154 -80 -302 -8 -25 -13 -46 -11
-47 2 -2 166 194 186 223 3 5 19 19 35 31 21 16 33 19 46 12 15 -8 22 1 50 63
80 177 76 381 -10 564 l-32 68 -126 63 c-264 132 -366 190 -421 237 -31 27
-46 38 -33 24 12 -14 22 -28 22 -31 0 -8 -350 179 -371 198 -28 26 -54 16
-102 -40z m-479 -1295 c8 -24 17 -30 44 -33 25 -2 34 -8 36 -25 4 -27 -21 -30
-71 -10 -38 16 -52 32 -61 70 -6 24 -4 27 18 27 18 0 27 -8 34 -29z m282 -3
c84 -57 49 -178 -51 -178 -54 0 -109 51 -109 100 0 23 10 42 34 66 41 41 78
44 126 12z m156 -93 c3 -8 -6 -35 -20 -59 -33 -56 -33 -62 4 -81 32 -16 40
-42 15 -51 -19 -8 -115 45 -115 64 0 13 43 102 63 130 13 17 46 15 53 -3z"/>
<path d="M13601 8381 c-36 -36 -22 -81 26 -81 41 0 53 62 16 87 -19 13 -24 12
-42 -6z"/>
<path d="M14275 9684 c28 -14 55 -29 60 -34 6 -4 96 -51 200 -105 105 -54 203
-106 219 -116 l30 -18 -27 -10 c-40 -15 -33 -21 9 -8 l36 11 -43 38 c-109 96
-263 181 -430 237 -110 37 -119 38 -54 5z"/>
<path d="M11335 9473 c-51 -7 -189 -51 -210 -68 -16 -12 -17 -14 -2 -9 10 4
18 1 19 -7 0 -8 2 -18 2 -24 1 -5 5 -15 9 -22 9 -14 5 -16 -55 -33 l-47 -12 2
-57 2 -56 -56 -13 c-44 -11 -59 -20 -73 -43 -18 -30 -13 -57 4 -29 7 12 10 11
16 -4 4 -10 2 -26 -4 -36 -8 -13 -7 -21 1 -29 6 -6 7 -11 1 -11 -5 0 -15 5
-21 11 -7 7 -26 9 -51 4 -40 -6 -41 -8 -49 -58 l-8 -52 -52 3 -52 4 -11 -44
c-7 -23 -14 -49 -16 -56 -4 -14 -68 -14 -96 0 -13 6 -20 -1 -34 -40 -9 -26
-21 -51 -25 -56 -7 -8 -54 1 -105 21 -8 3 -19 -8 -28 -29 -27 -62 -29 -63 -75
-42 -32 15 -39 23 -35 39 4 17 2 17 -18 -5 -13 -14 -35 -41 -50 -60 l-27 -34
-44 22 c-24 12 -47 22 -50 22 -3 0 -21 -16 -39 -36 -23 -24 -39 -33 -51 -28
-9 3 -17 9 -17 13 0 3 30 26 66 51 36 24 68 48 71 53 7 12 -215 -141 -287
-197 -30 -23 -72 -68 -93 -98 -127 -186 -103 -378 81 -643 250 -361 621 -661
1127 -910 144 -70 461 -205 483 -205 4 0 12 10 18 23 6 12 50 97 97 190 48 92
81 167 74 167 -30 0 -384 148 -540 226 -111 56 -328 189 -442 271 -193 139
-396 352 -514 540 -62 99 -92 69 394 405 744 515 797 550 848 555 42 5 46 3
73 -32 168 -216 382 -431 589 -591 35 -26 171 -111 229 -141 16 -9 25 3 81
111 35 67 70 122 78 124 17 4 30 29 21 43 -3 5 4 26 16 46 11 19 20 36 18 37
-2 1 -37 22 -78 46 -178 103 -407 314 -582 535 -74 94 -172 183 -227 207 -52
23 -164 48 -201 46 -14 0 -38 -3 -55 -5z"/>
<path d="M11045 9360 c-3 -6 1 -7 9 -4 18 7 21 14 7 14 -6 0 -13 -4 -16 -10z"/>
<path d="M10910 9269 c-30 -21 -80 -56 -110 -77 -30 -20 -105 -72 -166 -114
-61 -43 -167 -115 -235 -162 -161 -109 -177 -123 -156 -123 9 0 17 6 17 13 0
6 48 31 107 54 92 37 136 60 267 143 22 14 74 59 167 142 82 74 109 95 126 95
7 0 10 7 7 15 -4 8 1 17 9 21 9 3 18 12 21 20 7 18 10 20 -54 -27z"/>
<path d="M15796 9274 c-9 -8 -16 -16 -16 -18 0 -1 13 -39 30 -83 16 -45 38
-126 49 -179 11 -53 26 -101 33 -105 20 -13 34 -11 49 7 18 22 -1 145 -42 269
-41 123 -64 148 -103 109z"/>
<path d="M10872 9148 c7 -19 38 -22 38 -4 0 10 -9 16 -21 16 -12 0 -19 -5 -17
-12z"/>
<path d="M10345 8830 c3 -5 8 -10 11 -10 2 0 4 5 4 10 0 6 -5 10 -11 10 -5 0
-7 -4 -4 -10z"/>
<path d="M10183 8764 l-28 -25 33 22 c17 13 32 24 32 26 0 8 -11 1 -37 -23z"/>
<path d="M15872 8603 c-5 -10 -13 -34 -17 -53 -4 -19 -25 -90 -47 -158 -45
-140 -46 -166 -5 -170 24 -3 29 2 45 40 37 87 93 286 90 319 -2 28 -7 35 -30
37 -18 2 -30 -3 -36 -15z"/>
<path d="M14560 8579 c0 -5 5 -7 10 -4 6 3 10 8 10 11 0 2 -4 4 -10 4 -5 0
-10 -5 -10 -11z"/>
<path d="M14136 8551 c-64 -19 -85 -43 -86 -99 0 -25 6 -35 26 -44 24 -11 29
-10 51 17 26 33 85 146 75 144 -4 -1 -33 -9 -66 -18z"/>
<path d="M14038 8523 c7 -3 16 -2 19 1 4 3 -2 6 -13 5 -11 0 -14 -3 -6 -6z"/>
<path d="M13988 8513 c6 -2 18 -2 25 0 6 3 1 5 -13 5 -14 0 -19 -2 -12 -5z"/>
<path d="M14526 8364 c-19 -38 -47 -88 -61 -111 -29 -48 -29 -49 18 -27 31 15
37 25 61 106 15 50 25 93 22 95 -3 3 -21 -26 -40 -63z"/>
<path d="M14586 8361 c-3 -5 1 -11 9 -15 8 -3 15 -1 15 4 0 13 -18 22 -24 11z"/>
<path d="M13951 8182 c-27 -50 35 -97 70 -53 26 31 11 65 -29 69 -22 2 -34 -2
-41 -16z"/>
<path d="M15707 7953 c-14 -14 -6 -149 14 -232 33 -140 70 -195 106 -158 15
15 16 22 4 64 -43 154 -51 193 -51 248 0 34 -5 66 -12 73 -13 13 -50 16 -61 5z"/>
<path d="M11685 7008 c3 -8 -6 -31 -20 -52 -14 -20 -25 -43 -25 -49 0 -7 -4
-17 -9 -22 -12 -15 -121 -224 -121 -234 0 -12 67 -34 83 -28 7 3 25 30 41 61
30 59 37 64 55 43 8 -11 4 -27 -19 -69 l-30 -56 32 -11 c17 -6 35 -8 39 -4 3
5 39 71 78 148 39 77 75 145 81 152 5 7 10 19 10 26 0 20 26 41 35 27 8 -12
25 -13 25 -1 0 8 -103 45 -105 38 -4 -23 -92 -176 -99 -174 -23 8 -16 40 23
113 l41 75 -28 10 c-15 6 -42 13 -60 16 -25 5 -31 3 -27 -9z"/>
<path d="M11956 6935 c7 -16 46 -27 57 -16 4 4 -8 12 -27 18 -27 8 -33 8 -30
-2z"/>
<path d="M16496 6911 c-9 -10 -16 -23 -16 -29 0 -16 69 -61 211 -136 124 -65
127 -66 148 -49 33 27 18 49 -58 87 -36 19 -104 56 -151 83 -110 64 -115 65
-134 44z"/>
<path d="M12145 6879 c-4 -6 -3 -14 1 -18 15 -13 153 -71 168 -71 13 0 60 49
54 56 -2 1 -21 5 -43 8 -22 4 -53 10 -70 15 -58 18 -103 22 -110 10z"/>
<path d="M14920 6870 c0 -5 5 -10 11 -10 5 0 7 5 4 10 -3 6 -8 10 -11 10 -2 0
-4 -4 -4 -10z"/>
<path d="M11905 6839 c-10 -16 2 -25 72 -54 307 -127 689 -299 901 -404 56
-28 114 -51 130 -50 38 0 -369 203 -723 359 -237 105 -375 159 -380 149z"/>
<path d="M12412 6831 c-11 -7 -11 -9 2 -14 10 -4 16 -1 16 8 0 17 -1 17 -18 6z"/>
<path d="M12524 6809 c-18 -6 -63 -85 -53 -92 2 -2 51 -28 108 -57 71 -36 109
-50 118 -44 8 5 28 34 45 64 16 30 34 59 39 65 22 23 7 34 -58 40 -38 4 -93
12 -124 19 -31 7 -65 9 -75 5z"/>
<path d="M14635 6810 c-4 -6 6 -7 27 -3 44 8 48 13 10 13 -17 0 -34 -4 -37
-10z"/>
<path d="M14970 6816 c0 -2 7 -9 15 -16 13 -11 14 -10 9 4 -5 14 -24 23 -24
12z"/>
<path d="M14484 6782 c3 -5 40 -35 83 -68 197 -149 309 -237 326 -256 14 -17
23 -19 55 -13 31 7 34 9 15 14 -13 3 -49 29 -80 56 -65 57 -175 146 -275 223
-48 37 -76 52 -98 52 -17 0 -29 -4 -26 -8z"/>
<path d="M11894 6773 c8 -8 77 -33 91 -33 6 0 -10 9 -34 20 -43 20 -70 26 -57
13z"/>
<path d="M14441 6776 c2 -2 60 -48 129 -102 229 -179 293 -236 278 -246 -10
-7 -8 -8 5 -4 10 3 23 6 28 6 20 0 -415 349 -435 350 -5 0 -7 -2 -5 -4z"/>
<path d="M14814 6739 l-18 -41 23 -19 c32 -26 35 -25 56 21 18 39 18 40 -6 59
-13 11 -27 20 -30 21 -3 0 -14 -19 -25 -41z"/>
<path d="M12835 6750 c3 -5 8 -10 11 -10 2 0 4 5 4 10 0 6 -5 10 -11 10 -5 0
-7 -4 -4 -10z"/>
<path d="M12948 6753 c6 -2 18 -2 25 0 6 3 1 5 -13 5 -14 0 -19 -2 -12 -5z"/>
<path d="M15030 6751 c0 -5 5 -13 10 -16 6 -3 10 -2 10 4 0 5 -4 13 -10 16 -5
3 -10 2 -10 -4z"/>
<path d="M13052 6737 c-5 -6 -23 -37 -39 -67 -16 -30 -35 -64 -41 -75 -6 -11
-18 -34 -27 -52 l-15 -32 130 -65 c72 -36 136 -63 143 -60 17 6 133 212 146
259 23 82 23 82 -91 90 -57 4 -124 9 -149 11 -29 2 -51 -1 -57 -9z"/>
<path d="M14128 6743 c7 -3 16 -2 19 1 4 3 -2 6 -13 5 -11 0 -14 -3 -6 -6z"/>
<path d="M14277 6738 c-22 -8 -38 -29 -68 -91 -21 -44 -39 -81 -39 -83 0 -3
99 -71 128 -88 8 -5 24 19 52 79 36 76 40 89 31 121 -12 43 -38 74 -60 73 -9
0 -29 -5 -44 -11z"/>
<path d="M13970 6720 c19 -13 30 -13 30 0 0 6 -10 10 -22 10 -19 0 -20 -2 -8
-10z"/>
<path d="M12935 6710 c-3 -5 1 -10 10 -10 9 0 13 5 10 10 -3 6 -8 10 -10 10
-2 0 -7 -4 -10 -10z"/>
<path d="M13638 6713 c7 -3 16 -2 19 1 4 3 -2 6 -13 5 -11 0 -14 -3 -6 -6z"/>
<path d="M13818 6660 c57 -33 108 -60 113 -60 5 0 9 -3 9 -8 0 -4 17 -16 38
-27 20 -11 106 -66 190 -122 85 -57 163 -103 175 -103 21 0 21 1 -3 20 -45 36
-303 206 -405 267 -136 82 -160 93 -192 93 -22 0 -7 -12 75 -60z"/>
<path d="M12060 6704 c0 -8 71 -36 78 -30 3 3 -11 13 -31 21 -40 16 -47 18
-47 9z"/>
<path d="M14035 6690 c-3 -5 1 -10 9 -10 8 0 18 5 21 10 3 6 -1 10 -9 10 -8 0
-18 -4 -21 -10z"/>
<path d="M15085 6680 c3 -5 8 -10 11 -10 2 0 4 5 4 10 0 6 -5 10 -11 10 -5 0
-7 -4 -4 -10z"/>
<path d="M13750 6650 c20 -13 33 -13 25 0 -3 6 -14 10 -23 10 -15 0 -15 -2 -2
-10z"/>
<path d="M11900 6629 c-45 -27 -80 -59 -80 -74 0 -14 226 -73 237 -62 4 5 7
33 7 63 0 47 -3 59 -24 75 -34 25 -96 24 -140 -2z"/>
<path d="M12191 6646 c13 -12 99 -43 99 -37 0 9 -72 41 -92 41 -6 0 -9 -2 -7
-4z"/>
<path d="M12852 6626 c1 -10 8 -17 13 -17 15 1 12 24 -3 29 -9 3 -13 -2 -10
-12z"/>
<path d="M12785 6620 c3 -5 8 -10 11 -10 2 0 4 5 4 10 0 6 -5 10 -11 10 -5 0
-7 -4 -4 -10z"/>
<path d="M14970 6611 c-10 -19 -14 -61 -6 -61 2 0 11 -2 19 -6 21 -8 44 51 27
71 -17 20 -27 19 -40 -4z"/>
<path d="M12931 6604 c0 -11 3 -14 6 -6 3 7 2 16 -1 19 -3 4 -6 -2 -5 -13z"/>
<path d="M13604 6605 c-48 -25 -67 -50 -134 -177 l-61 -118 178 0 178 0 22 43
c44 85 38 168 -16 229 -23 26 -36 32 -82 35 -36 2 -64 -2 -85 -12z"/>
<path d="M17097 6603 c-4 -3 -7 -17 -7 -29 0 -17 12 -28 53 -47 83 -39 249
-99 288 -104 32 -5 38 -2 44 18 6 17 2 27 -15 41 -12 10 -28 18 -36 18 -7 0
-28 7 -46 15 -75 33 -241 95 -257 95 -10 0 -21 -3 -24 -7z"/>
<path d="M12197 6576 c-10 -8 -14 -16 -10 -19 5 -3 14 3 21 14 14 22 13 23
-11 5z"/>
<path d="M12340 6585 c0 -8 92 -47 97 -42 4 4 -81 47 -92 47 -3 0 -5 -2 -5 -5z"/>
<path d="M13875 6580 c3 -5 14 -10 23 -10 15 0 15 2 2 10 -20 13 -33 13 -25 0z"/>
<path d="M18545 6534 c-11 -9 -46 -29 -78 -45 -68 -35 -80 -55 -48 -81 23 -18
24 -17 101 23 91 47 115 69 105 98 -8 25 -50 28 -80 5z"/>
<path d="M14553 6508 c-12 -13 -30 -43 -40 -68 -35 -79 -35 -81 -10 -76 44 9
122 19 134 17 27 -4 29 103 2 135 -18 21 -63 17 -86 -8z"/>
<path d="M12530 6495 c25 -13 52 -24 60 -24 8 0 -7 11 -35 24 -65 31 -83 31
-25 0z"/>
<path d="M13990 6511 c0 -10 30 -24 37 -17 3 2 -5 9 -16 16 -12 6 -21 7 -21 1z"/>
<path d="M12228 6503 c7 -3 16 -2 19 1 4 3 -2 6 -13 5 -11 0 -14 -3 -6 -6z"/>
<path d="M15072 6488 c-6 -6 -22 -10 -37 -10 -15 0 -23 -4 -18 -9 6 -6 25 -4
48 4 21 8 34 16 28 20 -5 3 -15 1 -21 -5z"/>
<path d="M12258 6469 c-16 -6 -28 -14 -28 -19 0 -4 44 -15 98 -25 53 -9 105
-19 115 -22 16 -4 17 -2 9 14 -22 40 -52 57 -110 60 -31 1 -69 -2 -84 -8z"/>
<path d="M12644 6441 c3 -5 16 -11 28 -14 22 -6 22 -5 4 8 -22 17 -40 20 -32
6z"/>
<path d="M14125 6420 c3 -5 14 -10 23 -10 15 0 15 2 2 10 -20 13 -33 13 -25 0z"/>
<path d="M12710 6410 c8 -5 22 -10 30 -10 13 0 13 1 0 10 -8 5 -22 10 -30 10
-13 0 -13 -1 0 -10z"/>
<path d="M14695 6400 c-27 -7 -27 -8 -5 -8 14 0 36 4 50 8 20 6 21 8 5 8 -11
0 -33 -4 -50 -8z"/>
<path d="M17747 6395 c-20 -20 -21 -26 -4 -47 20 -26 305 -50 374 -32 12 3 25
15 28 26 13 39 -8 45 -173 51 -86 3 -169 9 -183 12 -17 5 -31 1 -42 -10z"/>
<path d="M12805 6367 c20 -14 65 -28 65 -21 0 4 -69 34 -78 34 -4 0 2 -6 13
-13z"/>
<path d="M14015 6342 l-30 -17 79 -3 c86 -3 101 2 72 24 -26 19 -84 17 -121
-4z"/>
<path d="M14240 6339 c0 -5 5 -7 10 -4 6 3 10 8 10 11 0 2 -4 4 -10 4 -5 0
-10 -5 -10 -11z"/>
</g>
</svg>
