<svg width="267" height="267" viewBox="0 0 267 267" fill="none" xmlns="http://www.w3.org/2000/svg">
<path d="M186.441 206.821V233.036C186.441 241.676 179.437 248.68 170.797 248.68H49.2698C40.6294 248.68 33.6253 241.676 33.6253 233.036V70.609C33.6253 61.9685 40.6294 54.9645 49.2698 54.9645H85.7737V191.176C85.7737 199.817 92.7778 206.821 101.418 206.821H186.441Z" fill="#FEDB41"/>
<path d="M233.375 65.0813V196.391C233.375 205.031 226.371 212.036 217.73 212.036H96.2034C87.563 212.036 80.5589 205.031 80.5589 196.391V33.9643C80.5589 25.3238 87.563 18.3197 96.2034 18.3197H187.985L188.506 18.8569L187.985 19.3627V56.5811C187.985 61.2755 191.79 65.0813 196.485 65.0813H232.332L232.869 64.5598L233.375 65.0813Z" fill="#FC6873"/>
<path d="M232.869 64.5598L232.332 65.0812H196.485C191.79 65.0812 187.985 61.2755 187.985 56.5811V19.3627L188.506 18.8569L232.869 64.5598Z" fill="#FEDB41"/>
<path d="M204.578 129.49H106.737C103.857 129.49 101.523 127.155 101.523 124.275C101.523 121.395 103.857 119.06 106.737 119.06H204.578C207.458 119.06 209.793 121.395 209.793 124.275C209.793 127.155 207.458 129.49 204.578 129.49ZM165.311 100.318H106.737C103.857 100.318 101.523 97.9833 101.523 95.1031C101.523 92.223 103.857 89.8883 106.737 89.8883H165.311C168.191 89.8883 170.525 92.223 170.525 95.1031C170.525 97.9833 168.191 100.318 165.311 100.318ZM204.578 160.779H106.737C103.857 160.779 101.523 158.444 101.523 155.564C101.523 152.684 103.857 150.349 106.737 150.349H204.578C207.458 150.349 209.793 152.684 209.793 155.564C209.793 158.444 207.458 160.779 204.578 160.779Z" fill="#F6F6F6"/>
</svg>
