<svg width="163" height="136" viewBox="0 0 163 136" fill="none" xmlns="http://www.w3.org/2000/svg">
<path d="M143.987 9.06653C142.174 3.62568 137.195 0 131.305 0H31.6946C25.8049 0 20.8262 3.62568 19.0133 9.06653L0 58.9335V126.933C0 131.918 4.0767 136 9.05541 136H18.1113C23.09 136 27.1667 131.918 27.1667 126.933V122.4H135.833V126.933C135.833 131.918 139.91 136 144.889 136H153.945C158.923 136 163 131.918 163 126.933V58.9335L143.987 9.06653ZM31.6946 95.2C24.0009 95.2 18.1113 89.3074 18.1113 81.6C18.1113 73.8926 24.0009 68 31.6946 68C39.3883 68 45.2779 73.8931 45.2779 81.6C45.2779 89.307 39.3883 95.2 31.6946 95.2ZM131.305 95.2C123.612 95.2 117.722 89.3074 117.722 81.6C117.722 73.8926 123.612 68 131.305 68C138.999 68 144.889 73.8931 144.889 81.6C144.889 89.307 138.999 95.2 131.305 95.2ZM18.1113 49.8665L31.6946 13.6H131.305L144.889 49.8665H18.1113Z" fill="#999999"/>
</svg>
