<svg width="129" height="88" viewBox="0 0 129 88" fill="none" xmlns="http://www.w3.org/2000/svg">
<path d="M109.65 29.3334H107.586L99.5235 11.0294C98.0836 7.7749 95.6072 4.98606 92.4122 3.02084C89.2172 1.05562 85.4495 0.00368839 81.5925 7.21468e-05H42.8925C38.4116 -0.0115928 34.0652 1.39159 30.595 3.97012C27.1249 6.54864 24.7462 10.1427 23.865 14.1387L20.511 29.3334H19.35C14.2181 29.3334 9.29631 31.1877 5.66748 34.4883C2.03866 37.7889 0 42.2656 0 46.9334V64.5334C0 66.0893 0.679551 67.5815 1.88916 68.6817C3.09877 69.7819 4.73935 70.4 6.45 70.4H12.9C12.9 75.0678 14.9387 79.5445 18.5675 82.8451C22.1963 86.1457 27.1181 88 32.25 88C37.3819 88 42.3037 86.1457 45.9325 82.8451C49.5613 79.5445 51.6 75.0678 51.6 70.4H77.4C77.4 75.0678 79.4387 79.5445 83.0675 82.8451C86.6963 86.1457 91.6181 88 96.75 88C101.882 88 106.804 86.1457 110.433 82.8451C114.061 79.5445 116.1 75.0678 116.1 70.4H122.55C124.261 70.4 125.901 69.7819 127.111 68.6817C128.32 67.5815 129 66.0893 129 64.5334V46.9334C129 42.2656 126.961 37.7889 123.333 34.4883C119.704 31.1877 114.782 29.3334 109.65 29.3334ZM70.95 11.7334H81.5925C82.8733 11.7439 84.1216 12.1011 85.1784 12.7593C86.2352 13.4175 87.0526 14.3471 87.5265 15.4294L93.654 29.3334H70.95V11.7334ZM36.507 16.4267C36.8085 15.0816 37.6191 13.8753 38.7977 13.0178C39.9762 12.1602 41.448 11.7057 42.957 11.7334H58.05V29.3334H33.669L36.507 16.4267ZM32.25 76.2667C30.9743 76.2667 29.7273 75.9226 28.6666 75.278C27.6059 74.6333 26.7792 73.7171 26.291 72.6451C25.8028 71.5731 25.6751 70.3935 25.9239 69.2555C26.1728 68.1175 26.7871 67.0721 27.6892 66.2517C28.5912 65.4312 29.7405 64.8724 30.9917 64.6461C32.2428 64.4197 33.5397 64.5359 34.7183 64.9799C35.8969 65.424 36.9042 66.1759 37.613 67.1407C38.3217 68.1054 38.7 69.2397 38.7 70.4C38.7 71.956 38.0204 73.4482 36.8108 74.5484C35.6012 75.6486 33.9606 76.2667 32.25 76.2667ZM96.75 76.2667C95.4743 76.2667 94.2273 75.9226 93.1666 75.278C92.1059 74.6333 91.2792 73.7171 90.791 72.6451C90.3028 71.5731 90.1751 70.3935 90.4239 69.2555C90.6728 68.1175 91.2871 67.0721 92.1892 66.2517C93.0912 65.4312 94.2405 64.8724 95.4917 64.6461C96.7428 64.4197 98.0397 64.5359 99.2183 64.9799C100.397 65.424 101.404 66.1759 102.113 67.1407C102.822 68.1054 103.2 69.2397 103.2 70.4C103.2 71.956 102.52 73.4482 101.311 74.5484C100.101 75.6486 98.4606 76.2667 96.75 76.2667ZM116.1 58.6667H111.069C109.255 56.8518 107.045 55.4017 104.579 54.4094C102.113 53.4172 99.4464 52.9046 96.75 52.9046C94.0536 52.9046 91.3869 53.4172 88.9211 54.4094C86.4552 55.4017 84.2446 56.8518 82.431 58.6667H46.569C44.7554 56.8518 42.5448 55.4017 40.0789 54.4094C37.613 53.4172 34.9464 52.9046 32.25 52.9046C29.5536 52.9046 26.887 53.4172 24.4211 54.4094C21.9552 55.4017 19.7446 56.8518 17.931 58.6667H12.9V46.9334C12.9 45.3774 13.5796 43.8852 14.7892 42.785C15.9988 41.6848 17.6394 41.0667 19.35 41.0667H109.65C111.361 41.0667 113.001 41.6848 114.211 42.785C115.42 43.8852 116.1 45.3774 116.1 46.9334V58.6667Z" fill="#FC8040"/>
</svg>
