<svg width="384" height="336" viewBox="0 0 384 336" fill="none" xmlns="http://www.w3.org/2000/svg">
<path fill-rule="evenodd" clip-rule="evenodd" d="M347.588 183.956C347.588 267.594 279.784 335.398 196.145 335.398C112.507 335.398 44.7041 267.594 44.7041 183.956C44.7041 100.317 112.507 32.5128 196.145 32.5128C279.784 32.5128 347.588 100.317 347.588 183.956Z" stroke="#E9EAEC" stroke-dasharray="5.02 5.02"/>
<path fill-rule="evenodd" clip-rule="evenodd" d="M308.608 183.956C308.608 246.066 258.257 296.418 196.146 296.418C134.034 296.418 83.6855 246.066 83.6855 183.956C83.6855 121.845 134.034 71.4935 196.146 71.4935C258.257 71.4935 308.608 121.845 308.608 183.956Z" stroke="#E9EAEC" stroke-dasharray="5.05 5.05"/>
<path d="M16.0949 204.346L13.2832 204.26" stroke="#D2D8DF" stroke-linecap="round"/>
<path d="M14.0771 199.014L12.0605 200.898" stroke="#D2D8DF" stroke-linecap="round"/>
<path d="M8.82063 196.58L8.77832 199.329" stroke="#D2D8DF" stroke-linecap="round"/>
<path d="M3.40527 198.467L5.36342 200.472" stroke="#D2D8DF" stroke-linecap="round"/>
<path d="M1 203.572L3.81028 203.658" stroke="#D2D8DF" stroke-linecap="round"/>
<path d="M3.0166 208.903L5.03457 207.02" stroke="#D2D8DF" stroke-linecap="round"/>
<path d="M8.27246 211.338L8.31478 208.589" stroke="#D2D8DF" stroke-linecap="round"/>
<path d="M13.6896 209.45L11.7314 207.446" stroke="#D2D8DF" stroke-linecap="round"/>
<path d="M382.777 165.153L381.541 166.491" stroke="#D2D8DF" stroke-linecap="round"/>
<path d="M376.975 166.316L377.907 167.175" stroke="#D2D8DF" stroke-linecap="round"/>
<path d="M376.034 172.246L377.27 170.908" stroke="#D2D8DF" stroke-linecap="round"/>
<path d="M381.835 171.083L380.904 170.224" stroke="#D2D8DF" stroke-linecap="round"/>
<path d="M269.583 7.89519L266.593 7.81494" stroke="#D2D8DF" stroke-linecap="round"/>
<path d="M261.846 0.677124L261.801 3.23205" stroke="#D2D8DF" stroke-linecap="round"/>
<path d="M253.525 7.17627L256.515 7.25506" stroke="#D2D8DF" stroke-linecap="round"/>
<path d="M261.262 14.3943L261.307 11.8394" stroke="#D2D8DF" stroke-linecap="round"/>
<path fill-rule="evenodd" clip-rule="evenodd" d="M48.1842 283.757C46.0335 284.4 42.4513 287.561 41.2256 291.308C41.0199 287.826 38.8093 283.45 36.377 282.82C39.3448 281.771 42.5593 277.915 43.4143 274.665C43.2597 278.071 46.3515 283.016 48.1842 283.757" fill="#EBECEF"/>
<path fill-rule="evenodd" clip-rule="evenodd" d="M98.5567 21.58C96.8976 21.8733 93.9575 23.9161 92.7202 26.6008C92.8675 23.9905 91.5996 20.5396 89.8428 19.8597C92.1438 19.3344 94.8724 16.7401 95.7902 14.3938C95.3802 16.9181 97.2551 20.8694 98.5567 21.58" fill="#EBECEF"/>
<path fill-rule="evenodd" clip-rule="evenodd" d="M318.447 40.5361C316.231 40.4879 314.474 38.6538 314.523 36.4388C314.572 34.2239 316.406 32.4671 318.619 32.5152C320.836 32.5634 322.592 34.3975 322.544 36.6125C322.495 38.8274 320.662 40.5842 318.447 40.5361" fill="#D1D9E0"/>
<path fill-rule="evenodd" clip-rule="evenodd" d="M318.457 303.401C316.529 303.36 315 301.763 315.041 299.835C315.082 297.906 316.679 296.377 318.608 296.418C320.537 296.46 322.067 298.056 322.024 299.985C321.982 301.913 320.386 303.443 318.457 303.401" fill="#EBECEF"/>
<path fill-rule="evenodd" clip-rule="evenodd" d="M28.4644 93.7743C27.2709 93.748 26.3239 92.7602 26.3501 91.5652C26.3749 90.3716 27.3642 89.4261 28.5578 89.4509C29.7514 89.4772 30.6983 90.465 30.6735 91.6586C30.6473 92.8536 29.658 93.8006 28.4644 93.7743Z" stroke="#D2D8DF" stroke-linecap="round"/>
<path fill-rule="evenodd" clip-rule="evenodd" d="M261.308 85.4048C261.308 93.0871 255.079 99.3147 247.398 99.3147C239.714 99.3147 233.488 93.0871 233.488 85.4048C233.488 77.7225 239.714 71.4935 247.398 71.4935C255.079 71.4935 261.308 77.7225 261.308 85.4048" fill="white"/>
<path fill-rule="evenodd" clip-rule="evenodd" d="M107.367 269.236L86.6443 141.32C86.3364 139.426 87.2075 137.535 88.8446 136.537L143.578 103.128C144.655 102.471 145.948 102.271 147.17 102.573L214.686 119.271C215.951 119.584 217.289 119.359 218.383 118.651L263.549 89.4265C266.204 87.7077 269.768 89.0369 270.646 92.0763L308.647 223.284C309.203 225.206 308.488 227.269 306.864 228.435L265.282 258.234C264.154 259.041 262.732 259.313 261.388 258.977L182.296 239.204C181.19 238.929 180.02 239.061 179.005 239.579L114.174 272.685C111.322 274.14 107.88 272.397 107.367 269.236" fill="#F1F2F7"/>
<path fill-rule="evenodd" clip-rule="evenodd" d="M247.569 96.2264C240.992 96.2264 235.66 90.8933 235.66 84.3156C235.66 77.7378 240.992 72.4047 247.569 72.4047C254.149 72.4047 259.48 77.7378 259.48 84.3156C259.48 90.8933 254.149 96.2264 247.569 96.2264M247.569 59.1704C234.068 58.7881 222.812 69.4237 222.43 82.925C222.42 83.3087 222.418 83.6939 222.425 84.0777C222.425 104.934 245.716 124.23 246.697 125.024C247.191 125.448 247.921 125.448 248.417 125.024C249.448 124.099 272.714 102.87 272.714 84.0777C272.968 70.572 262.228 59.4184 248.722 59.166C248.338 59.1587 247.954 59.1602 247.569 59.1704" fill="url(#paint0_linear_319_359)"/>
<path d="M153.768 211.192L194.08 221.709C198.322 222.815 201.659 218.06 199.167 214.454C185.251 194.33 159.206 152.621 183.712 154.372C215.961 156.676 209.818 185.8 216.729 189.667C223.641 193.532 265.103 184.897 266.638 169.636C268.175 154.372 262.801 146.694 252.05 142.087C241.301 137.48 246.696 125.024 246.696 125.024" stroke="#0E1D25" stroke-width="2" stroke-dasharray="7"/>
<path fill-rule="evenodd" clip-rule="evenodd" d="M102.212 158.306L99.4531 147.577C98.8432 145.208 99.8937 142.723 102.02 141.507L135.647 122.292C135.912 122.14 136.188 122.012 136.474 121.907L147.62 117.829C148.585 117.475 149.631 117.403 150.636 117.62L175.094 122.912C177.054 123.335 178.619 124.803 179.17 126.729C180.219 130.4 177.255 133.978 173.454 133.632L162.695 132.655C159.252 132.341 156.397 135.28 156.808 138.712L157.799 146.969C158.1 149.473 156.638 151.854 154.27 152.719L131.662 160.976C130.068 161.557 128.297 161.362 126.869 160.448L120.669 156.482C118.137 154.861 114.771 155.605 113.157 158.141L112.057 159.87C109.505 163.88 103.397 162.91 102.212 158.306" fill="#D8DBEA"/>
<path fill-rule="evenodd" clip-rule="evenodd" d="M250.839 206.863L258.558 239.945C259.445 243.748 263.938 245.401 267.078 243.08L292.778 224.083C294.575 222.757 295.375 220.465 294.796 218.306L288.766 195.836C287.97 192.865 284.869 191.148 281.93 192.048L254.54 200.434C251.807 201.27 250.19 204.08 250.839 206.863" fill="#D8DBEA"/>
<path fill-rule="evenodd" clip-rule="evenodd" d="M219.129 217.818L236.757 218.948C239.065 219.097 241.028 220.69 241.645 222.921L245.071 235.297C246.174 239.279 242.605 242.985 238.584 242.033L221.136 237.9C219.39 237.487 217.961 236.238 217.317 234.565L213.712 225.19C212.29 221.493 215.177 217.566 219.129 217.818" fill="#D8DBEA"/>
<path fill-rule="evenodd" clip-rule="evenodd" d="M137.546 209.763C130.424 209.763 124.65 203.989 124.65 196.869C124.65 189.747 130.424 183.973 137.546 183.973C144.668 183.973 150.44 189.747 150.44 196.869C150.44 203.989 144.668 209.763 137.546 209.763M137.546 169.646C122.927 169.231 110.743 180.745 110.329 195.363C110.317 195.779 110.316 196.195 110.323 196.611C110.323 219.19 135.539 240.081 136.6 240.94C137.136 241.4 137.927 241.4 138.462 240.94C139.581 239.938 164.767 216.957 164.767 196.611C165.043 181.99 153.414 169.914 138.792 169.64C138.376 169.633 137.96 169.634 137.546 169.646" fill="url(#paint1_linear_319_359)"/>
<defs>
<linearGradient id="paint0_linear_319_359" x1="222.421" y1="59.1604" x2="222.421" y2="125.342" gradientUnits="userSpaceOnUse">
<stop stop-color="#FAD961"/>
<stop offset="1" stop-color="#F76B1C"/>
</linearGradient>
<linearGradient id="paint1_linear_319_359" x1="137.545" y1="133.81" x2="68.5114" y2="186.275" gradientUnits="userSpaceOnUse">
<stop stop-color="#FF8960"/>
<stop offset="1" stop-color="#FF62A5"/>
</linearGradient>
</defs>
</svg>
