<svg width="792" height="693" viewBox="0 0 792 693" fill="none" xmlns="http://www.w3.org/2000/svg">
<g id="Enabble Location">
<path id="Stroke 1" fill-rule="evenodd" clip-rule="evenodd" d="M715.593 379.825C715.593 551.788 576.186 691.195 404.223 691.195C232.26 691.195 92.8564 551.788 92.8564 379.825C92.8564 207.862 232.26 68.4551 404.223 68.4551C576.186 68.4551 715.593 207.862 715.593 379.825Z" stroke="#E9EAEC" stroke-dasharray="5.02 5.02"/>
<path id="Stroke 3" fill-rule="evenodd" clip-rule="evenodd" d="M635.451 379.825C635.451 507.526 531.927 611.05 404.226 611.05C276.522 611.05 173.004 507.526 173.004 379.825C173.004 252.124 276.522 148.6 404.226 148.6C531.927 148.6 635.451 252.124 635.451 379.825Z" stroke="#E9EAEC" stroke-dasharray="5.05 5.05"/>
<path id="Stroke 5" d="M34.0349 421.747L28.2539 421.57" stroke="#D2D8DF" stroke-linecap="round"/>
<path id="Stroke 7" d="M29.8862 410.786L25.7402 414.659" stroke="#D2D8DF" stroke-linecap="round"/>
<path id="Stroke 9" d="M19.0802 405.781L18.9932 411.433" stroke="#D2D8DF" stroke-linecap="round"/>
<path id="Stroke 11" d="M7.94531 409.661L11.9713 413.783" stroke="#D2D8DF" stroke-linecap="round"/>
<path id="Stroke 13" d="M3 420.157L8.778 420.334" stroke="#D2D8DF" stroke-linecap="round"/>
<path id="Stroke 15" d="M7.14551 431.118L11.2945 427.245" stroke="#D2D8DF" stroke-linecap="round"/>
<path id="Stroke 17" d="M17.9531 436.125L18.0401 430.473" stroke="#D2D8DF" stroke-linecap="round"/>
<path id="Stroke 19" d="M29.0895 432.243L25.0635 428.121" stroke="#D2D8DF" stroke-linecap="round"/>
<path id="Stroke 21" d="M787.943 341.167L785.402 343.918" stroke="#D2D8DF" stroke-linecap="round"/>
<path id="Stroke 23" d="M776.013 343.557L777.93 345.324" stroke="#D2D8DF" stroke-linecap="round"/>
<path id="Stroke 25" d="M774.079 355.751L776.62 353" stroke="#D2D8DF" stroke-linecap="round"/>
<path id="Stroke 27" d="M786.007 353.36L784.093 351.593" stroke="#D2D8DF" stroke-linecap="round"/>
<path id="Stroke 29" d="M555.211 17.8405L549.064 17.6755" stroke="#D2D8DF" stroke-linecap="round"/>
<path id="Stroke 31" d="M539.305 3L539.212 8.253" stroke="#D2D8DF" stroke-linecap="round"/>
<path id="Stroke 33" d="M522.199 16.3623L528.346 16.5243" stroke="#D2D8DF" stroke-linecap="round"/>
<path id="Stroke 35" d="M538.104 31.2027L538.197 25.9497" stroke="#D2D8DF" stroke-linecap="round"/>
<path id="Fill 37" fill-rule="evenodd" clip-rule="evenodd" d="M100.011 585.019C95.5894 586.342 88.2244 592.84 85.7044 600.544C85.2814 593.386 80.7364 584.389 75.7354 583.093C81.8374 580.936 88.4464 573.007 90.2044 566.326C89.8864 573.328 96.2434 583.495 100.011 585.019Z" fill="#EBECEF"/>
<path id="Fill 39" fill-rule="evenodd" clip-rule="evenodd" d="M203.579 45.9773C200.168 46.5803 194.123 50.7803 191.579 56.3003C191.882 50.9333 189.275 43.8383 185.663 42.4403C190.394 41.3603 196.004 36.0263 197.891 31.2023C197.048 36.3923 200.903 44.5163 203.579 45.9773Z" fill="#EBECEF"/>
<path id="Fill 41" fill-rule="evenodd" clip-rule="evenodd" d="M655.679 84.9506C651.122 84.8516 647.51 81.0806 647.612 76.5266C647.711 71.9726 651.482 68.3606 656.033 68.4596C660.59 68.5586 664.202 72.3296 664.103 76.8836C664.001 81.4376 660.233 85.0496 655.679 84.9506Z" fill="#D1D9E0"/>
<path id="Fill 43" fill-rule="evenodd" clip-rule="evenodd" d="M655.698 625.408C651.735 625.324 648.591 622.039 648.675 618.076C648.759 614.11 652.044 610.966 656.01 611.05C659.976 611.137 663.12 614.419 663.033 618.385C662.946 622.348 659.664 625.495 655.698 625.408Z" fill="#EBECEF"/>
<path id="Stroke 45" fill-rule="evenodd" clip-rule="evenodd" d="M59.4672 194.41C57.0132 194.356 55.0662 192.325 55.1202 189.868C55.1712 187.414 57.2052 185.47 59.6592 185.521C62.1132 185.575 64.0602 187.606 64.0092 190.06C63.9552 192.517 61.9212 194.464 59.4672 194.41Z" stroke="#D2D8DF" stroke-linecap="round"/>
<path id="Fill 47" fill-rule="evenodd" clip-rule="evenodd" d="M538.2 177.202C538.2 192.997 525.393 205.801 509.601 205.801C493.803 205.801 481.002 192.997 481.002 177.202C481.002 161.407 493.803 148.6 509.601 148.6C525.393 148.6 538.2 161.407 538.2 177.202Z" fill="white"/>
<path id="Fill 49" fill-rule="evenodd" clip-rule="evenodd" d="M221.692 555.164L179.086 292.166C178.453 288.272 180.244 284.384 183.61 282.332L296.143 213.641C298.357 212.291 301.015 211.88 303.529 212.501L442.342 246.833C444.943 247.475 447.694 247.013 449.944 245.558L542.806 185.471C548.266 181.937 555.592 184.67 557.398 190.919L635.53 460.685C636.673 464.636 635.203 468.878 631.864 471.275L546.37 532.544C544.051 534.203 541.126 534.761 538.363 534.071L375.748 493.418C373.474 492.851 371.068 493.124 368.983 494.189L235.687 562.256C229.825 565.247 222.748 561.662 221.692 555.164Z" fill="#F1F2F7"/>
<path id="Fill 51" fill-rule="evenodd" clip-rule="evenodd" d="M509.952 199.452C496.428 199.452 485.466 188.487 485.466 174.963C485.466 161.439 496.428 150.474 509.952 150.474C523.479 150.474 534.441 161.439 534.441 174.963C534.441 188.487 523.479 199.452 509.952 199.452ZM509.952 123.264C482.193 122.478 459.051 144.345 458.265 172.104C458.244 172.893 458.241 173.685 458.256 174.474C458.256 217.356 506.142 257.028 508.158 258.66C509.175 259.533 510.675 259.533 511.695 258.66C513.816 256.758 561.651 213.111 561.651 174.474C562.173 146.706 540.09 123.774 512.322 123.255C511.533 123.24 510.744 123.243 509.952 123.264Z" fill="url(#paint0_linear_1_439)"/>
<path id="Stroke 53" d="M317.095 435.823L399.979 457.447C408.7 459.721 415.561 449.944 410.437 442.531C381.826 401.155 328.276 315.4 378.661 319C444.967 323.737 432.337 383.617 446.545 391.567C460.756 399.514 546.004 381.76 549.16 350.383C552.319 319 541.27 303.214 519.166 293.743C497.065 284.269 508.159 258.661 508.159 258.661" stroke="#0E1D25" stroke-width="2" stroke-dasharray="7"/>
<path id="Fill 55" fill-rule="evenodd" clip-rule="evenodd" d="M211.096 327.089L205.423 305.03C204.169 300.158 206.329 295.049 210.7 292.55L279.838 253.043C280.384 252.731 280.951 252.467 281.539 252.251L304.456 243.866C306.439 243.14 308.59 242.99 310.657 243.437L360.943 254.318C364.972 255.188 368.191 258.206 369.322 262.166C371.479 269.714 365.386 277.07 357.571 276.359L335.449 274.349C328.372 273.704 322.501 279.746 323.347 286.802L325.384 303.779C326.002 308.927 322.996 313.823 318.127 315.602L271.645 332.579C268.369 333.773 264.727 333.371 261.79 331.493L249.043 323.339C243.838 320.006 236.917 321.536 233.599 326.75L231.337 330.305C226.09 338.549 213.532 336.554 211.096 327.089Z" fill="#D8DBEA"/>
<path id="Fill 57" fill-rule="evenodd" clip-rule="evenodd" d="M516.675 426.923L532.545 494.942C534.369 502.76 543.606 506.159 550.062 501.386L602.901 462.329C606.597 459.602 608.241 454.889 607.05 450.452L594.654 404.252C593.016 398.144 586.641 394.613 580.599 396.464L524.283 413.705C518.664 415.424 515.34 421.202 516.675 426.923Z" fill="#D8DBEA"/>
<path id="Fill 59" fill-rule="evenodd" clip-rule="evenodd" d="M451.48 449.448L487.723 451.77C492.469 452.076 496.504 455.352 497.773 459.939L504.817 485.385C507.085 493.572 499.747 501.192 491.479 499.233L455.605 490.737C452.017 489.888 449.077 487.32 447.754 483.879L440.341 464.604C437.419 457.002 443.353 448.929 451.48 449.448Z" fill="#D8DBEA"/>
<path id="Fill 61" fill-rule="evenodd" clip-rule="evenodd" d="M283.74 432.886C269.097 432.886 257.226 421.015 257.226 406.375C257.226 391.732 269.097 379.861 283.74 379.861C298.383 379.861 310.251 391.732 310.251 406.375C310.251 421.015 298.383 432.886 283.74 432.886ZM283.74 350.404C253.683 349.552 228.633 373.225 227.781 403.279C227.757 404.134 227.754 404.989 227.769 405.844C227.769 452.269 279.615 495.22 281.796 496.987C282.897 497.932 284.523 497.932 285.624 496.987C287.925 494.926 339.708 447.676 339.708 405.844C340.275 375.784 316.365 350.956 286.302 350.392C285.447 350.377 284.592 350.38 283.74 350.404Z" fill="url(#paint1_linear_1_439)"/>
</g>
<defs>
<linearGradient id="paint0_linear_1_439" x1="458.247" y1="123.243" x2="458.247" y2="259.314" gradientUnits="userSpaceOnUse">
<stop stop-color="#FAD961"/>
<stop offset="1" stop-color="#F76B1C"/>
</linearGradient>
<linearGradient id="paint1_linear_1_439" x1="283.739" y1="276.725" x2="141.804" y2="384.595" gradientUnits="userSpaceOnUse">
<stop stop-color="#FF8960"/>
<stop offset="1" stop-color="#FF62A5"/>
</linearGradient>
</defs>
</svg>
