<svg width="445" height="444" viewBox="0 0 445 444" fill="none" xmlns="http://www.w3.org/2000/svg">
<circle cx="222.446" cy="222.424" r="221.576" fill="#D9D9D9"/>
<path d="M250.348 205.683H204.391C198.297 205.683 192.453 203.192 188.143 198.76C183.834 194.328 181.413 188.316 181.413 182.048C181.413 175.779 183.834 169.768 188.143 165.335C192.453 160.903 198.297 158.413 204.391 158.413H261.837C264.884 158.413 267.806 159.658 269.961 161.874C272.116 164.09 273.326 167.096 273.326 170.23C273.326 173.365 274.537 176.37 276.691 178.587C278.846 180.803 281.768 182.048 284.815 182.048C287.862 182.048 290.785 180.803 292.939 178.587C295.094 176.37 296.304 173.365 296.304 170.23C296.304 160.828 292.673 151.81 286.209 145.162C279.745 138.513 270.978 134.778 261.837 134.778H238.859V111.143C238.859 108.009 237.648 105.003 235.494 102.787C233.339 100.571 230.417 99.326 227.37 99.326C224.322 99.326 221.4 100.571 219.246 102.787C217.091 105.003 215.88 108.009 215.88 111.143V134.778H204.391C192.203 134.778 180.514 139.758 171.895 148.623C163.277 157.488 158.435 169.511 158.435 182.048C158.435 194.584 163.277 206.608 171.895 215.472C180.514 224.337 192.203 229.317 204.391 229.317H250.348C256.442 229.317 262.287 231.807 266.596 236.24C270.905 240.672 273.326 246.684 273.326 252.952C273.326 259.22 270.905 265.232 266.596 269.664C262.287 274.097 256.442 276.587 250.348 276.587H192.902C189.855 276.587 186.933 275.342 184.778 273.126C182.624 270.91 181.413 267.904 181.413 264.77C181.413 261.635 180.203 258.63 178.048 256.413C175.893 254.197 172.971 252.952 169.924 252.952C166.877 252.952 163.955 254.197 161.8 256.413C159.645 258.63 158.435 261.635 158.435 264.77C158.435 274.172 162.066 283.189 168.53 289.838C174.994 296.487 183.761 300.222 192.902 300.222H215.88V323.856C215.88 326.991 217.091 329.996 219.246 332.213C221.4 334.429 224.322 335.674 227.37 335.674C230.417 335.674 233.339 334.429 235.494 332.213C237.648 329.996 238.859 326.991 238.859 323.856V300.222H250.348C262.536 300.222 274.226 295.242 282.844 286.377C291.463 277.512 296.304 265.489 296.304 252.952C296.304 240.415 291.463 228.392 282.844 219.528C274.226 210.663 262.536 205.683 250.348 205.683Z" fill="#5C5C5C"/>
</svg>
