<svg width="440" height="440" viewBox="0 0 440 440" fill="none" xmlns="http://www.w3.org/2000/svg">
<path d="M96.25 103.125C122.829 103.125 144.375 81.5787 144.375 55C144.375 28.4213 122.829 6.875 96.25 6.875C69.6713 6.875 48.125 28.4213 48.125 55C48.125 81.5787 69.6713 103.125 96.25 103.125Z" fill="#FC8040"/>
<path d="M343.75 103.125C370.329 103.125 391.875 81.5787 391.875 55C391.875 28.4213 370.329 6.875 343.75 6.875C317.171 6.875 295.625 28.4213 295.625 55C295.625 81.5787 317.171 103.125 343.75 103.125Z" fill="#FC8040"/>
<path d="M220.138 144.65C246.792 144.65 268.4 123.042 268.4 96.3875C268.4 69.7329 246.792 48.125 220.138 48.125C193.483 48.125 171.875 69.7329 171.875 96.3875C171.875 123.042 193.483 144.65 220.138 144.65Z" fill="#FC8040"/>
<path d="M432.712 341.344L408.1 274.588C422.125 272.8 433.056 260.975 433.056 246.469V186.588C433.056 148.088 401.775 116.806 363.275 116.806H317.212C292.325 116.806 269.225 130.213 256.781 151.731C254.512 151.388 252.244 151.181 249.906 151.181H190.162C187.756 151.181 185.487 151.388 183.15 151.8C170.706 130.213 147.606 116.806 122.719 116.806H76.6562C38.1562 116.806 6.875 148.088 6.875 186.588V246.469C6.875 261.938 19.25 274.519 34.65 274.863V426.181C34.65 429.963 37.7437 433.056 41.525 433.056H151.25C155.031 433.056 158.125 429.963 158.125 426.181V329.519C185.488 353.513 214.913 368.706 217.181 369.875C218.144 370.356 219.244 370.631 220.275 370.631C221.306 370.631 222.406 370.356 223.369 369.875C224.881 369.119 238.356 362.106 255.2 350.556H281.394V426.181C281.394 429.963 284.488 433.056 288.269 433.056H397.994C401.775 433.056 404.869 429.963 404.869 426.181V350.556H426.181C428.45 350.556 430.513 349.456 431.819 347.6C433.125 345.744 433.4 343.406 432.644 341.275L432.712 341.344ZM103.813 419.375V343.75C103.813 339.969 100.719 336.875 96.9375 336.875C93.1563 336.875 90.0625 339.969 90.0625 343.75V419.375H48.4V192.5C48.4 188.719 45.3062 185.625 41.525 185.625C37.7437 185.625 34.65 188.719 34.65 192.5V261.181C26.8812 260.769 20.625 254.375 20.625 246.538V186.656C20.625 155.788 45.7875 130.625 76.6562 130.625H122.719C141.694 130.625 159.294 140.388 169.606 156.2C155.581 163.281 145.681 177.375 144.581 193.806C124.369 203.019 110.275 223.369 110.275 246.95C110.275 273.006 125.469 296.863 144.444 316.525V419.375H103.881H103.813ZM220.344 219.588C213.812 207.419 203.088 197.588 189.75 192.5C183.013 189.888 175.931 188.513 168.713 188.513C165.481 188.513 162.25 188.856 159.156 189.338C162.594 175.381 175.106 165 190.162 165H249.906C264.894 165 277.406 175.381 280.844 189.269C277.956 188.788 274.931 188.513 271.906 188.513C264.687 188.513 257.606 189.819 250.938 192.5C237.6 197.588 226.806 207.419 220.344 219.656V219.588ZM295.281 350.625H336.944V419.375H295.281V350.625ZM391.256 419.375H350.694V350.625H391.256V419.375ZM273.831 336.875C301.538 314.6 330.344 282.838 330.344 246.95C330.344 223.094 315.975 202.538 295.419 193.463C294.181 177.1 284.281 163.144 270.325 156.063C280.637 140.319 298.238 130.556 317.144 130.556H363.206C394.075 130.556 419.237 155.719 419.237 186.588V246.469C419.237 254.306 413.05 260.7 405.281 261.113L405.694 192.5C405.694 188.719 402.669 185.625 398.888 185.556C395.106 185.556 392.013 188.581 392.013 192.363L391.6 267.988C391.6 268.056 391.6 268.125 391.6 268.263C391.6 268.95 391.737 269.706 391.944 270.394L416.419 336.738H273.831V336.875Z" fill="#FC8040"/>
</svg>
