<svg width="617" height="620" viewBox="0 0 617 620" fill="none" xmlns="http://www.w3.org/2000/svg">
<path d="M308.5 125.938C272.272 125.938 236.858 136.733 206.735 156.958C176.613 177.183 153.135 205.929 139.271 239.562C125.407 273.195 121.78 310.204 128.848 345.909C135.916 381.613 153.361 414.41 178.978 440.152C204.595 465.893 237.233 483.424 272.765 490.526C308.297 497.628 345.127 493.983 378.597 480.052C412.067 466.12 440.675 442.529 460.802 412.26C480.929 381.991 491.672 346.404 491.672 310C491.618 261.2 472.303 214.414 437.963 179.908C403.623 145.401 357.064 125.991 308.5 125.938ZM308.5 474.688C276.086 474.687 244.399 465.029 217.447 446.933C190.496 428.837 169.489 403.116 157.085 373.023C144.68 342.93 141.435 309.817 147.759 277.871C154.082 245.925 169.691 216.58 192.612 193.548C215.532 170.516 244.735 154.831 276.527 148.477C308.318 142.122 341.271 145.384 371.218 157.849C401.165 170.313 426.762 191.422 444.77 218.505C462.779 245.587 472.391 277.428 472.391 310C472.342 353.663 455.06 395.524 424.335 426.398C393.61 457.272 351.952 474.639 308.5 474.688Z" fill="#FF8F45"/>
<path d="M125.328 203.438V106.562H106.047V193.75H96.4062V106.562H77.125V193.75H67.4844V106.562H48.2031V193.75H38.5625V106.562H19.2812V251.875C19.2885 257.884 21.1455 263.743 24.5975 268.65C28.0495 273.557 32.9275 277.27 38.5625 279.281V503.75C38.5625 511.458 41.6096 518.85 47.0335 524.3C52.4574 529.751 59.8138 532.812 67.4844 532.812H77.125C84.7956 532.812 92.152 529.751 97.5759 524.3C103 518.85 106.047 511.458 106.047 503.75V279.281C111.682 277.27 116.56 273.557 120.012 268.65C123.464 263.743 125.321 257.884 125.328 251.875V203.438ZM106.047 251.875C106.047 254.444 105.031 256.908 103.223 258.725C101.415 260.542 98.9631 261.562 96.4062 261.562C93.8494 261.562 91.3973 262.583 89.5893 264.4C87.7813 266.217 86.7656 268.681 86.7656 271.25V503.75C86.7656 506.319 85.7499 508.783 83.9419 510.6C82.134 512.417 79.6819 513.438 77.125 513.438H67.4844C64.9275 513.438 62.4754 512.417 60.6674 510.6C58.8595 508.783 57.8438 506.319 57.8438 503.75V271.25C57.8438 268.681 56.828 266.217 55.0201 264.4C53.2121 262.583 50.76 261.562 48.2031 261.562C45.6463 261.562 43.1941 260.542 41.3862 258.725C39.5782 256.908 38.5625 254.444 38.5625 251.875V213.125H106.047V251.875ZM588.078 96.875C565.074 96.9006 543.02 106.095 526.754 122.44C510.488 138.785 501.338 160.947 501.312 184.062V310C501.312 317.708 504.36 325.1 509.784 330.55C515.207 336.001 522.564 339.062 530.234 339.062V523.125C530.234 525.694 531.25 528.158 533.058 529.975C534.866 531.792 537.318 532.812 539.875 532.812H588.078C590.635 532.812 593.087 531.792 594.895 529.975C596.703 528.158 597.719 525.694 597.719 523.125V106.562C597.719 103.993 596.703 101.529 594.895 99.7124C593.087 97.8956 590.635 96.875 588.078 96.875ZM578.438 513.438H549.516V329.375C549.516 326.806 548.5 324.342 546.692 322.525C544.884 320.708 542.432 319.688 539.875 319.688H530.234C527.678 319.688 525.225 318.667 523.417 316.85C521.609 315.033 520.594 312.569 520.594 310V184.062C520.614 167.761 526.468 152.01 537.088 139.686C547.708 127.363 562.384 119.289 578.438 116.938V513.438Z" fill="#FF8F45"/>
<path d="M549.516 155H530.234V300.312H549.516V155Z" fill="#FF8F45"/>
<path d="M308.5 213.125C289.433 213.125 270.794 218.807 254.94 229.451C239.086 240.096 226.729 255.226 219.432 272.928C212.136 290.629 210.226 310.107 213.946 328.899C217.666 347.691 226.848 364.953 240.331 378.501C253.813 392.049 270.991 401.276 289.692 405.014C308.393 408.752 327.777 406.833 345.393 399.501C363.009 392.169 378.066 379.752 388.659 363.821C399.252 347.89 404.906 329.16 404.906 310C404.878 284.316 394.712 259.692 376.639 241.53C358.565 223.369 334.06 213.153 308.5 213.125ZM308.5 387.5C293.246 387.5 278.335 382.955 265.652 374.439C252.969 365.923 243.083 353.819 237.246 339.658C231.408 325.497 229.881 309.914 232.857 294.881C235.833 279.847 243.178 266.038 253.964 255.199C264.751 244.361 278.493 236.979 293.454 233.989C308.415 230.999 323.922 232.534 338.015 238.399C352.107 244.265 364.153 254.199 372.627 266.943C381.102 279.688 385.625 294.672 385.625 310C385.602 330.547 377.469 350.246 363.01 364.775C348.552 379.304 328.948 387.477 308.5 387.5Z" fill="#FF8F45"/>
</svg>
