<svg width="172" height="172" viewBox="0 0 172 172" fill="none" xmlns="http://www.w3.org/2000/svg">
<path d="M38.7336 84.9456C42.89 89.221 48.4613 91.5861 54.3863 91.5861C60.3113 91.5861 65.8383 89.221 70.0389 84.9456L73.1783 81.7163L83.9671 92.8142L79.3244 97.5899C74.549 92.6322 65.3519 92.6322 60.5766 97.5899L26.1761 132.976C19.2784 140.071 19.2784 151.624 26.1761 158.719C32.8528 165.587 44.4818 165.587 51.2027 158.719L85.6031 123.333C90.7764 118.012 90.7764 109.37 85.6031 104.048L90.2458 99.2728L102.626 112.008C100.106 114.601 98.7354 118.012 98.7354 121.65C98.7354 125.289 100.106 128.746 102.626 131.293L137.027 166.679C140.343 170.09 144.809 172 149.54 172C154.271 172 158.693 170.09 162.053 166.679C165.414 163.267 167.227 158.673 167.227 153.807C167.227 148.94 165.37 144.392 162.053 140.935L127.653 105.549C125.133 102.957 121.816 101.547 118.279 101.547C114.742 101.547 111.381 102.957 108.905 105.549L96.5246 92.8142L104.572 84.5363C109.303 88.4478 116.422 92.4958 125.575 92.4958C135.523 92.4958 145.251 87.7201 154.404 78.2596C163.38 69.0266 169.393 57.7468 171.339 46.5125C173.373 34.687 170.676 24.2714 163.778 17.176C156.88 10.0807 146.754 7.30621 135.258 9.39843C124.337 11.3997 113.371 17.5399 104.395 26.8184C85.5147 46.2396 88.6982 65.6609 98.3374 78.0777L90.29 86.3556L79.5012 75.2578L82.6406 72.0285C86.7969 67.7531 89.0962 62.0222 89.0962 55.9275C89.0962 49.8328 86.7969 44.1474 82.6406 39.8265L45.1008 1.2115C43.2879 -0.42589 40.4581 -0.425891 38.7336 1.34794C37.0092 3.12178 37.0092 5.98721 38.7336 7.76104L76.2734 46.3761C78.7938 48.9686 80.1645 52.3798 80.1645 56.0185C80.1645 59.6571 78.7938 63.0683 76.2734 65.6609L73.134 68.8901L26.2646 20.6327C24.5401 18.8589 21.7545 18.8589 20.0301 20.6327C18.3056 22.4066 18.3056 25.272 20.0301 27.0458L66.8995 75.3032L63.7602 78.5325C58.5868 83.854 50.1857 83.854 45.0124 78.5325L7.5168 39.9175C5.83657 38.1891 2.91829 38.1891 1.28228 39.9175C0.442165 40.7817 0 41.9187 0 43.1468C0 44.3748 0.442165 45.5119 1.28228 46.3761L38.7336 84.9456ZM79.2801 116.92L44.8797 152.306C41.5635 155.717 35.7269 155.717 32.3665 152.306C28.9176 148.758 28.9176 142.982 32.3665 139.434L66.7669 104.048C67.607 103.184 68.7566 102.775 69.9062 102.775C71.0559 102.775 72.2055 103.184 73.0456 104.048L76.185 107.278C76.7598 107.869 77.423 108.233 78.1747 108.46C78.3516 109.234 78.7495 109.916 79.3244 110.507C81.0046 112.235 81.0046 115.146 79.2801 116.92ZM108.817 118.421L111.956 115.192C112.531 114.601 112.929 113.918 113.106 113.145C113.813 112.963 114.521 112.554 115.095 111.962C116.82 110.189 119.606 110.189 121.374 111.962L155.775 147.348C157.455 149.077 158.383 151.351 158.383 153.761C158.383 156.172 157.455 158.492 155.775 160.174C152.458 163.586 146.578 163.586 143.261 160.174L108.861 124.789C108.021 123.925 107.579 122.787 107.579 121.559C107.579 120.331 107.977 119.285 108.817 118.421ZM110.541 33.277C118.279 25.3175 127.565 20.0414 136.717 18.4041C138.663 18.0402 140.608 17.8583 142.465 17.8583C148.612 17.8583 153.785 19.8595 157.455 23.6346C162.23 28.5468 164.043 36.1424 162.54 44.9661C160.904 54.3811 155.775 63.9325 148.081 71.892C141.272 78.8964 133.932 82.8989 126.857 83.3992C119.871 83.8995 113.194 81.0341 107.446 75.0758C95.4634 62.8409 96.613 47.6041 110.541 33.277Z" fill="#F65A82"/>
</svg>
