<svg width="413" height="251" viewBox="0 0 413 251" fill="none" xmlns="http://www.w3.org/2000/svg">
<g clip-path="url(#clip0_583_112)">
<path d="M133.604 218.605H8.06641C5.92706 218.605 3.87534 217.754 2.3626 216.241C0.849851 214.727 0 212.673 0 210.532L0 161.944C0.0109142 142.016 7.35901 122.791 20.64 107.943C33.9209 93.0946 52.2033 83.6648 71.9932 81.4553C91.7831 79.2459 111.693 84.4118 127.917 95.9659C144.141 107.52 155.542 124.652 159.941 144.087C160.375 146.162 159.976 148.325 158.83 150.109C157.684 151.892 155.883 153.153 153.816 153.618C151.749 154.083 149.583 153.716 147.784 152.596C145.985 151.476 144.699 149.692 144.203 147.631C140.663 132.084 131.526 118.386 118.538 109.15C105.549 99.9143 89.617 95.7875 73.7819 97.5572C57.9468 99.3268 43.3171 106.869 32.6841 118.745C22.0511 130.62 16.1593 145.998 16.1328 161.944V202.46H133.604C135.743 202.46 137.795 203.31 139.308 204.824C140.82 206.338 141.67 208.391 141.67 210.532C141.67 212.673 140.82 214.727 139.308 216.241C137.795 217.754 135.743 218.605 133.604 218.605Z" fill="#FC8040"/>
<path d="M80.9625 97.129C71.3661 97.1226 61.9869 94.2689 54.0109 88.9287C46.0348 83.5885 39.8199 76.0015 36.152 67.127C32.484 58.2524 31.5276 48.4887 33.4037 39.0703C35.2797 29.6518 39.9041 21.0015 46.6921 14.2128C53.48 7.42419 62.1269 2.80207 71.5394 0.930816C80.9519 -0.940441 90.7075 0.023182 99.5729 3.69986C108.438 7.37654 116.015 13.6012 121.346 21.5869C126.677 29.5726 129.522 38.9607 129.522 48.5645C129.503 61.4443 124.38 73.7906 115.276 82.895C106.173 91.9993 93.8325 97.1183 80.9625 97.129ZM80.9625 16.1451C74.5568 16.1515 68.2968 18.0583 62.9738 21.6245C57.6508 25.1906 53.5037 30.2561 51.0567 36.1805C48.6098 42.1049 47.9729 48.6224 49.2265 54.909C50.4801 61.1956 53.5679 66.9692 58.0997 71.4999C62.6314 76.0306 68.4037 79.115 74.6867 80.3633C80.9698 81.6116 87.4816 80.9677 93.3991 78.513C99.3166 76.0583 104.374 71.903 107.932 66.5724C111.49 61.2418 113.389 54.9751 113.389 48.5645C113.375 39.9654 109.952 31.7232 103.873 25.6457C97.7944 19.5682 89.5551 16.1515 80.9625 16.1451ZM279.396 251H133.604C131.465 251 129.413 250.15 127.9 248.636C126.387 247.122 125.537 245.068 125.537 242.927V194.105C125.561 172.702 134.067 152.183 149.189 137.049C164.312 121.915 184.815 113.403 206.202 113.379H206.798C228.185 113.403 248.688 121.915 263.811 137.049C278.933 152.183 287.439 172.702 287.463 194.105V242.927C287.463 245.068 286.613 247.122 285.1 248.636C283.587 250.15 281.535 251 279.396 251ZM141.67 234.855H271.33V194.105C271.31 176.983 264.506 160.568 252.408 148.461C240.31 136.354 223.907 129.543 206.798 129.524H206.202C189.093 129.543 172.69 136.354 160.592 148.461C148.494 160.568 141.69 176.983 141.67 194.105V234.855Z" fill="#FC8040"/>
<path d="M206.5 129.524C196.904 129.518 187.524 126.664 179.548 121.324C171.572 115.984 165.357 108.397 161.689 99.5222C158.021 90.6477 157.065 80.884 158.941 71.4655C160.817 62.0471 165.442 53.3967 172.23 46.6081C179.018 39.8195 187.664 35.1973 197.077 33.3261C206.489 31.4548 216.245 32.4184 225.11 36.0951C233.976 39.7718 241.553 45.9965 246.884 53.9821C252.215 61.9678 255.06 71.356 255.06 80.9598C255.041 93.8396 249.917 106.186 240.814 115.29C231.71 124.395 219.37 129.514 206.5 129.524ZM206.5 48.5404C200.094 48.5468 193.834 50.4536 188.511 54.0197C183.188 57.5859 179.041 62.6513 176.594 68.5758C174.147 74.5002 173.51 81.0176 174.764 87.3043C176.018 93.5909 179.105 99.3644 183.637 103.895C188.169 108.426 193.941 111.51 200.224 112.759C206.507 114.007 213.019 113.363 218.937 110.908C224.854 108.454 229.912 104.298 233.47 98.9677C237.028 93.637 238.927 87.3704 238.927 80.9598C238.912 72.3606 235.49 64.1184 229.411 58.0409C223.332 51.9634 215.093 48.5468 206.5 48.5404ZM404.934 218.605H279.396C277.257 218.605 275.205 217.754 273.692 216.241C272.18 214.727 271.33 212.673 271.33 210.532C271.33 208.391 272.18 206.338 273.692 204.824C275.205 203.31 277.257 202.46 279.396 202.46H396.867V161.944C396.864 153.428 395.185 144.995 391.925 137.129C388.665 129.263 383.888 122.116 377.868 116.097C371.848 110.078 364.702 105.305 356.838 102.051C348.974 98.7962 340.547 97.1238 332.038 97.1291C301.982 97.1291 275.387 118.368 268.797 147.639C268.326 149.728 267.046 151.543 265.237 152.687C263.429 153.831 261.24 154.209 259.153 153.738C257.067 153.267 255.252 151.986 254.109 150.176C252.966 148.366 252.589 146.176 253.059 144.087C256.266 129.958 263.198 116.947 273.135 106.408C283.071 95.8703 295.649 88.1904 309.558 84.1681C323.467 80.1458 338.2 79.9282 352.221 83.538C366.243 87.1478 379.042 94.453 389.285 104.693C396.828 112.19 402.808 121.111 406.879 130.938C410.95 140.766 413.03 151.305 413 161.944V210.532C413 212.673 412.15 214.727 410.637 216.241C409.125 217.754 407.073 218.605 404.934 218.605Z" fill="#FC8040"/>
<path d="M332.037 97.129C322.441 97.121 313.063 94.266 305.088 88.9248C297.113 83.5836 290.899 75.9961 287.233 67.1214C283.566 58.2467 282.611 48.4833 284.488 39.0653C286.365 29.6474 290.99 20.9978 297.778 14.21C304.566 7.42214 313.213 2.80083 322.625 0.930226C332.038 -0.940376 341.793 0.023717 350.658 3.70063C359.523 7.37755 367.099 13.6022 372.43 21.5877C377.76 29.5732 380.605 38.9611 380.605 48.5645C380.586 61.4457 375.462 73.7932 366.356 82.8978C357.251 92.0024 344.909 97.1205 332.037 97.129ZM332.037 16.1451C325.632 16.1531 319.373 18.0612 314.051 21.6284C308.729 25.1955 304.583 30.2615 302.137 36.1861C299.692 42.1107 299.056 48.6278 300.31 54.9139C301.565 61.2 304.653 66.9728 309.186 71.5027C313.718 76.0326 319.49 79.1162 325.773 80.3639C332.056 81.6115 338.567 80.9672 344.484 78.5122C350.401 76.0573 355.458 71.902 359.016 66.5715C362.574 61.2411 364.472 54.9747 364.472 48.5645C364.458 39.964 361.034 31.7205 354.954 25.6428C348.873 19.5651 340.631 16.1494 332.037 16.1451Z" fill="#FC8040"/>
</g>
<defs>
<clipPath id="clip0_583_112">
<rect width="413" height="251" fill="white"/>
</clipPath>
</defs>
</svg>
