<svg width="1587" height="1391" viewBox="0 0 1587 1391" fill="none" xmlns="http://www.w3.org/2000/svg">
<path d="M1289.44 1159.17H1190.25V202.854C1190.25 195.168 1186.77 187.797 1180.57 182.363C1174.37 176.928 1165.96 173.875 1157.19 173.875H429.812C421.044 173.875 412.634 176.928 406.434 182.363C400.233 187.797 396.75 195.168 396.75 202.854V1159.17H297.562C288.794 1159.17 280.384 1162.22 274.184 1167.65C267.983 1173.09 264.5 1180.46 264.5 1188.15C264.5 1195.83 267.983 1203.2 274.184 1208.64C280.384 1214.07 288.794 1217.12 297.562 1217.12H1289.44C1298.21 1217.12 1306.62 1214.07 1312.82 1208.64C1319.02 1203.2 1322.5 1195.83 1322.5 1188.15C1322.5 1180.46 1319.02 1173.09 1312.82 1167.65C1306.62 1162.22 1298.21 1159.17 1289.44 1159.17ZM694.312 1159.17V985.292H892.688V1159.17H694.312ZM958.812 1159.17V985.292H991.875C1000.64 985.292 1009.05 982.239 1015.25 976.804C1021.45 971.369 1024.94 963.998 1024.94 956.312C1024.94 948.627 1021.45 941.256 1015.25 935.821C1009.05 930.386 1000.64 927.333 991.875 927.333H595.125C586.356 927.333 577.947 930.386 571.746 935.821C565.546 941.256 562.062 948.627 562.062 956.312C562.062 963.998 565.546 971.369 571.746 976.804C577.947 982.239 586.356 985.292 595.125 985.292H628.188V1159.17H462.875V231.833H1124.12V1159.17H958.812Z" fill="#FC8040"/>
<path d="M628.188 318.771H562.062C553.294 318.771 544.884 321.824 538.684 327.259C532.483 332.693 529 340.064 529 347.75C529 355.436 532.483 362.807 538.684 368.241C544.884 373.676 553.294 376.729 562.062 376.729H628.188C636.956 376.729 645.366 373.676 651.566 368.241C657.767 362.807 661.25 355.436 661.25 347.75C661.25 340.064 657.767 332.693 651.566 327.259C645.366 321.824 636.956 318.771 628.188 318.771ZM826.562 318.771H760.438C751.669 318.771 743.259 321.824 737.059 327.259C730.858 332.693 727.375 340.064 727.375 347.75C727.375 355.436 730.858 362.807 737.059 368.241C743.259 373.676 751.669 376.729 760.438 376.729H826.562C835.331 376.729 843.741 373.676 849.941 368.241C856.142 362.807 859.625 355.436 859.625 347.75C859.625 340.064 856.142 332.693 849.941 327.259C843.741 321.824 835.331 318.771 826.562 318.771ZM1024.94 318.771H958.812C950.044 318.771 941.634 321.824 935.434 327.259C929.233 332.693 925.75 340.064 925.75 347.75C925.75 355.436 929.233 362.807 935.434 368.241C941.634 373.676 950.044 376.729 958.812 376.729H1024.94C1033.71 376.729 1042.12 373.676 1048.32 368.241C1054.52 362.807 1058 355.436 1058 347.75C1058 340.064 1054.52 332.693 1048.32 327.259C1042.12 321.824 1033.71 318.771 1024.94 318.771ZM628.188 463.667H562.062C553.294 463.667 544.884 466.72 538.684 472.154C532.483 477.589 529 484.96 529 492.646C529 500.332 532.483 507.703 538.684 513.137C544.884 518.572 553.294 521.625 562.062 521.625H628.188C636.956 521.625 645.366 518.572 651.566 513.137C657.767 507.703 661.25 500.332 661.25 492.646C661.25 484.96 657.767 477.589 651.566 472.154C645.366 466.72 636.956 463.667 628.188 463.667ZM826.562 463.667H760.438C751.669 463.667 743.259 466.72 737.059 472.154C730.858 477.589 727.375 484.96 727.375 492.646C727.375 500.332 730.858 507.703 737.059 513.137C743.259 518.572 751.669 521.625 760.438 521.625H826.562C835.331 521.625 843.741 518.572 849.941 513.137C856.142 507.703 859.625 500.332 859.625 492.646C859.625 484.96 856.142 477.589 849.941 472.154C843.741 466.72 835.331 463.667 826.562 463.667ZM1024.94 463.667H958.812C950.044 463.667 941.634 466.72 935.434 472.154C929.233 477.589 925.75 484.96 925.75 492.646C925.75 500.332 929.233 507.703 935.434 513.137C941.634 518.572 950.044 521.625 958.812 521.625H1024.94C1033.71 521.625 1042.12 518.572 1048.32 513.137C1054.52 507.703 1058 500.332 1058 492.646C1058 484.96 1054.52 477.589 1048.32 472.154C1042.12 466.72 1033.71 463.667 1024.94 463.667ZM628.188 608.563H562.062C553.294 608.563 544.884 611.616 538.684 617.05C532.483 622.485 529 629.856 529 637.542C529 645.227 532.483 652.598 538.684 658.033C544.884 663.468 553.294 666.521 562.062 666.521H628.188C636.956 666.521 645.366 663.468 651.566 658.033C657.767 652.598 661.25 645.227 661.25 637.542C661.25 629.856 657.767 622.485 651.566 617.05C645.366 611.616 636.956 608.563 628.188 608.563ZM826.562 608.563H760.438C751.669 608.563 743.259 611.616 737.059 617.05C730.858 622.485 727.375 629.856 727.375 637.542C727.375 645.227 730.858 652.598 737.059 658.033C743.259 663.468 751.669 666.521 760.438 666.521H826.562C835.331 666.521 843.741 663.468 849.941 658.033C856.142 652.598 859.625 645.227 859.625 637.542C859.625 629.856 856.142 622.485 849.941 617.05C843.741 611.616 835.331 608.563 826.562 608.563ZM1024.94 608.563H958.812C950.044 608.563 941.634 611.616 935.434 617.05C929.233 622.485 925.75 629.856 925.75 637.542C925.75 645.227 929.233 652.598 935.434 658.033C941.634 663.468 950.044 666.521 958.812 666.521H1024.94C1033.71 666.521 1042.12 663.468 1048.32 658.033C1054.52 652.598 1058 645.227 1058 637.542C1058 629.856 1054.52 622.485 1048.32 617.05C1042.12 611.616 1033.71 608.563 1024.94 608.563ZM628.188 753.458H562.062C553.294 753.458 544.884 756.511 538.684 761.946C532.483 767.381 529 774.752 529 782.438C529 790.123 532.483 797.494 538.684 802.929C544.884 808.364 553.294 811.417 562.062 811.417H628.188C636.956 811.417 645.366 808.364 651.566 802.929C657.767 797.494 661.25 790.123 661.25 782.438C661.25 774.752 657.767 767.381 651.566 761.946C645.366 756.511 636.956 753.458 628.188 753.458ZM826.562 753.458H760.438C751.669 753.458 743.259 756.511 737.059 761.946C730.858 767.381 727.375 774.752 727.375 782.438C727.375 790.123 730.858 797.494 737.059 802.929C743.259 808.364 751.669 811.417 760.438 811.417H826.562C835.331 811.417 843.741 808.364 849.941 802.929C856.142 797.494 859.625 790.123 859.625 782.438C859.625 774.752 856.142 767.381 849.941 761.946C843.741 756.511 835.331 753.458 826.562 753.458ZM1024.94 753.458H958.812C950.044 753.458 941.634 756.511 935.434 761.946C929.233 767.381 925.75 774.752 925.75 782.438C925.75 790.123 929.233 797.494 935.434 802.929C941.634 808.364 950.044 811.417 958.812 811.417H1024.94C1033.71 811.417 1042.12 808.364 1048.32 802.929C1054.52 797.494 1058 790.123 1058 782.438C1058 774.752 1054.52 767.381 1048.32 761.946C1042.12 756.511 1033.71 753.458 1024.94 753.458Z" fill="#FC8040"/>
</svg>
