<svg width="652" height="652" viewBox="0 0 652 652" fill="none" xmlns="http://www.w3.org/2000/svg">
<path d="M183.375 203.75C188.779 203.75 193.961 201.603 197.782 197.782C201.603 193.961 203.75 188.779 203.75 183.375V91.6875C203.75 86.2837 201.603 81.1013 197.782 77.2802C193.961 73.4591 188.779 71.3125 183.375 71.3125C177.971 71.3125 172.789 73.4591 168.968 77.2802C165.147 81.1013 163 86.2837 163 91.6875V183.375C163 188.779 165.147 193.961 168.968 197.782C172.789 201.603 177.971 203.75 183.375 203.75ZM244.5 203.75C249.904 203.75 255.086 201.603 258.907 197.782C262.728 193.961 264.875 188.779 264.875 183.375V145.284L310.77 196.924C310.892 197.067 311.055 197.159 311.187 197.301C311.798 197.93 312.447 198.519 313.133 199.064C313.541 199.4 313.928 199.767 314.356 200.082C315.116 200.587 315.909 201.039 316.729 201.437C317.137 201.651 317.514 201.916 317.932 202.089C319.016 202.542 320.137 202.9 321.283 203.159C321.477 203.159 321.65 203.292 321.843 203.332C323.211 203.613 324.604 203.753 326 203.75C327.293 203.743 328.582 203.614 329.851 203.363C330.33 203.271 330.778 203.108 331.247 202.986C332.017 202.797 332.776 202.562 333.518 202.283C334.048 202.069 334.537 201.804 335.036 201.55C335.679 201.243 336.304 200.903 336.911 200.531C337.42 200.205 337.93 199.828 338.368 199.512C338.806 199.196 339.162 198.982 339.529 198.666C339.682 198.534 339.784 198.371 339.926 198.228C340.443 197.725 340.933 197.194 341.393 196.639C341.801 196.16 342.229 195.702 342.585 195.192C342.942 194.683 343.288 194.062 343.604 193.471C343.92 192.88 344.266 192.35 344.531 191.759C344.796 191.168 344.989 190.537 345.193 189.915C345.397 189.294 345.631 188.662 345.784 188.01C345.937 187.358 345.988 186.788 346.069 186.166C346.179 185.451 346.25 184.73 346.283 184.007C346.283 183.813 346.344 183.619 346.344 183.426V91.6875C346.344 86.2837 344.198 81.1013 340.377 77.2802C336.556 73.4591 331.373 71.3125 325.969 71.3125C320.566 71.3125 315.383 73.4591 311.562 77.2802C307.741 81.1013 305.594 86.2837 305.594 91.6875V129.779L259.73 78.1483C259.598 77.9955 259.435 77.8936 259.302 77.751C258.802 77.2378 258.275 76.7515 257.723 76.2942C257.245 75.8765 256.776 75.4486 256.267 75.0921C255.757 74.7355 255.156 74.4095 254.586 74.0733C254.015 73.7371 253.445 73.4009 252.844 73.1259C252.243 72.8508 251.631 72.6776 251.01 72.4637C250.388 72.2497 249.757 72.0256 249.105 71.8728C248.453 71.72 247.852 71.6691 247.22 71.5774C246.521 71.4694 245.817 71.3979 245.111 71.3634C244.897 71.3634 244.704 71.3125 244.5 71.3125C244.052 71.3125 243.634 71.4144 243.186 71.4449C241.804 71.4912 240.434 71.7172 239.111 72.1173C238.492 72.2813 237.88 72.4716 237.277 72.6878C236.627 72.9432 235.992 73.2322 235.372 73.5537C234.807 73.8245 234.256 74.1237 233.722 74.4503C233.112 74.8428 232.523 75.2679 231.959 75.7237C231.623 75.9886 231.256 76.1719 230.94 76.4572C230.788 76.5896 230.686 76.7526 230.543 76.8952C230.026 77.3987 229.537 77.9292 229.076 78.4845C228.669 78.9633 228.241 79.4218 227.884 79.9311C227.528 80.4405 227.181 81.0619 226.865 81.6426C226.55 82.2233 226.203 82.7633 225.938 83.3541C225.673 83.945 225.48 84.5664 225.276 85.1879C225.072 85.8093 224.838 86.4511 224.685 87.0929C224.533 87.7347 224.482 88.3154 224.4 88.9369C224.29 89.6525 224.219 90.3734 224.186 91.0966C224.186 91.2902 224.125 91.4837 224.125 91.6773V183.365C224.124 186.041 224.65 188.692 225.673 191.165C226.696 193.638 228.197 195.886 230.089 197.779C231.981 199.672 234.228 201.173 236.7 202.198C239.173 203.223 241.823 203.75 244.5 203.75ZM387.125 203.75C392.529 203.75 397.711 201.603 401.532 197.782C405.353 193.961 407.5 188.779 407.5 183.375V145.284L453.395 196.924C453.517 197.067 453.68 197.159 453.812 197.301C454.423 197.93 455.072 198.519 455.758 199.064C456.166 199.4 456.553 199.767 456.981 200.082C457.741 200.587 458.534 201.039 459.354 201.437C459.762 201.651 460.139 201.916 460.557 202.089C461.641 202.542 462.762 202.9 463.908 203.159C464.102 203.159 464.275 203.292 464.468 203.332C465.836 203.613 467.229 203.753 468.625 203.75C469.918 203.743 471.207 203.614 472.476 203.363C472.955 203.271 473.403 203.108 473.872 202.986C474.642 202.797 475.401 202.562 476.143 202.283C476.673 202.069 477.162 201.804 477.661 201.55C478.304 201.243 478.929 200.903 479.536 200.531C480.045 200.205 480.555 199.828 480.993 199.512C481.431 199.196 481.787 198.982 482.154 198.666C482.307 198.534 482.409 198.371 482.551 198.228C483.068 197.725 483.558 197.194 484.018 196.639C484.426 196.16 484.854 195.702 485.21 195.192C485.567 194.683 485.913 194.062 486.229 193.471C486.545 192.88 486.891 192.35 487.156 191.759C487.421 191.168 487.614 190.537 487.818 189.915C488.022 189.294 488.256 188.662 488.409 188.01C488.562 187.358 488.613 186.788 488.694 186.166C488.804 185.451 488.875 184.73 488.908 184.007C488.908 183.813 488.969 183.619 488.969 183.426V91.6875C488.969 86.2837 486.823 81.1013 483.002 77.2802C479.181 73.4591 473.998 71.3125 468.594 71.3125C463.191 71.3125 458.008 73.4591 454.187 77.2802C450.366 81.1013 448.219 86.2837 448.219 91.6875V129.779L402.355 78.1483C402.223 77.9955 402.06 77.8936 401.917 77.751C401.427 77.2422 400.91 76.7593 400.369 76.3044C399.88 75.8867 399.411 75.4486 398.892 75.0819C398.372 74.7151 397.802 74.4095 397.241 74.0631C396.681 73.7167 396.08 73.3704 395.469 73.1055C394.857 72.8406 394.266 72.6572 393.665 72.4535C393.064 72.2497 392.392 72.0052 391.74 71.8524C391.088 71.6996 390.497 71.6487 389.865 71.5672C389.167 71.4592 388.463 71.3878 387.757 71.3533C387.522 71.3634 387.329 71.3125 387.125 71.3125C386.677 71.3125 386.259 71.4144 385.811 71.4449C384.429 71.4914 383.059 71.7175 381.736 72.1173C381.119 72.2746 380.511 72.4616 379.912 72.6776C379.255 72.9355 378.613 73.228 377.987 73.5537C377.429 73.8211 376.885 74.117 376.357 74.4401C375.743 74.8355 375.151 75.264 374.584 75.7237C374.248 75.9886 373.881 76.1719 373.565 76.4572C373.413 76.5896 373.311 76.7526 373.168 76.8952C372.651 77.3987 372.162 77.9292 371.701 78.4845C371.294 78.9633 370.866 79.4218 370.509 79.9311C370.153 80.4405 369.806 81.0619 369.49 81.6426C369.175 82.2233 368.828 82.7633 368.563 83.3541C368.299 83.945 368.105 84.5664 367.901 85.1879C367.697 85.8093 367.463 86.4511 367.31 87.0929C367.158 87.7347 367.107 88.3154 367.025 88.9369C366.915 89.6525 366.844 90.3734 366.811 91.0966C366.811 91.2902 366.75 91.4837 366.75 91.6773V183.365C366.749 186.041 367.275 188.692 368.298 191.165C369.321 193.638 370.822 195.886 372.714 197.779C374.606 199.672 376.853 201.173 379.325 202.198C381.798 203.223 384.448 203.75 387.125 203.75Z" fill="#FC8040"/>
<path d="M611.25 101.875H550.125V40.75C550.125 35.3462 547.978 30.1638 544.157 26.3427C540.336 22.5216 535.154 20.375 529.75 20.375H122.25C116.846 20.375 111.664 22.5216 107.843 26.3427C104.022 30.1638 101.875 35.3462 101.875 40.75V101.875H40.75C35.3462 101.875 30.1638 104.022 26.3427 107.843C22.5216 111.664 20.375 116.846 20.375 122.25V611.25C20.375 616.654 22.5216 621.836 26.3427 625.657C30.1638 629.478 35.3462 631.625 40.75 631.625H611.25C616.654 631.625 621.836 629.478 625.657 625.657C629.478 621.836 631.625 616.654 631.625 611.25V122.25C631.625 116.846 629.478 111.664 625.657 107.843C621.836 104.022 616.654 101.875 611.25 101.875ZM142.625 61.125H509.375V224.125H142.625V61.125ZM142.625 590.875V346.375H305.625V590.875H142.625ZM346.375 590.875V346.375H509.375V590.875H346.375ZM590.875 590.875H550.125V326C550.125 320.596 547.978 315.414 544.157 311.593C540.336 307.772 535.154 305.625 529.75 305.625H122.25C116.846 305.625 111.664 307.772 107.843 311.593C104.022 315.414 101.875 320.596 101.875 326V590.875H61.125V142.625H101.875V247.098C101.875 252.502 104.022 257.684 107.843 261.505C111.664 265.326 116.846 267.473 122.25 267.473H529.75C535.154 267.473 540.336 265.326 544.157 261.505C547.978 257.684 550.125 252.502 550.125 247.098V142.625H590.875V590.875Z" fill="#FC8040"/>
<path d="M264.875 438.062C259.471 438.062 254.289 440.209 250.468 444.03C246.647 447.851 244.5 453.034 244.5 458.438V478.812C244.5 484.216 246.647 489.399 250.468 493.22C254.289 497.041 259.471 499.188 264.875 499.188C270.279 499.188 275.461 497.041 279.282 493.22C283.103 489.399 285.25 484.216 285.25 478.812V458.438C285.25 453.034 283.103 447.851 279.282 444.03C275.461 440.209 270.279 438.062 264.875 438.062ZM387.125 438.062C381.721 438.062 376.539 440.209 372.718 444.03C368.897 447.851 366.75 453.034 366.75 458.438V478.812C366.75 484.216 368.897 489.399 372.718 493.22C376.539 497.041 381.721 499.188 387.125 499.188C392.529 499.188 397.711 497.041 401.532 493.22C405.353 489.399 407.5 484.216 407.5 478.812V458.438C407.5 453.034 405.353 447.851 401.532 444.03C397.711 440.209 392.529 438.062 387.125 438.062Z" fill="#FC8040"/>
</svg>
