<svg width="215" height="236" viewBox="0 0 215 236" fill="none" xmlns="http://www.w3.org/2000/svg">
<path d="M6.29193 220.17C12.9133 229.717 23.8067 235.417 35.4487 235.417H179.551C191.193 235.417 202.087 229.717 208.708 220.17C215.306 210.67 216.826 198.51 212.75 187.64L197.895 148.131C190.997 129.81 173.252 117.5 153.722 117.5H148.83L144.061 69.8037C143.094 60.1078 140.399 50.792 136.046 42.0979L118.048 6.1011C114.041 -1.89047 100.959 -1.89047 96.9518 6.1011L78.9535 42.0863C74.6007 50.7919 71.9062 60.1078 70.9388 69.7921L66.1686 117.5H61.2775C41.7476 117.5 24.0025 129.81 17.1049 148.142L2.23866 187.651C-1.82628 198.51 -0.306336 210.67 6.29193 220.17ZM100.049 52.6459L107.5 37.7451L114.95 52.6574C118.013 58.772 119.913 65.3243 120.593 72.1413L126.421 130.456C126.421 130.453 126.421 130.46 126.421 130.456L129.84 164.667H85.1603L88.5803 130.466C88.581 130.462 88.5782 130.458 88.5789 130.454L94.4071 72.1297C95.0865 65.3243 96.9865 58.772 100.049 52.6459ZM24.3134 195.931L39.1682 156.445C42.6342 147.256 51.5125 141.083 61.2775 141.083H63.8101L60.3908 175.284C60.0569 178.6 61.1508 181.905 63.3848 184.369C65.6188 186.845 68.797 188.25 72.1249 188.25H142.875C146.203 188.25 149.381 186.845 151.615 184.369C153.849 181.905 154.943 178.6 154.609 175.284L151.189 141.083H153.722C163.487 141.083 172.366 147.256 175.832 156.433L190.675 195.919C192.045 199.581 191.562 203.531 189.328 206.732C187.082 209.979 183.524 211.833 179.551 211.833H35.4487C31.476 211.833 27.9177 209.979 25.6722 206.732C23.4382 203.531 22.9546 199.581 24.3134 195.931Z" fill="#E997AB"/>
</svg>
