<svg width="444" height="444" viewBox="0 0 444 444" fill="none" xmlns="http://www.w3.org/2000/svg">
<circle cx="221.576" cy="221.576" r="221.576" fill="#D9D9D9"/>
<path d="M342.257 150.277L283.231 128.437C284.411 129.028 281.46 127.257 279.099 128.437L222.138 149.392L165.473 128.437C166.654 129.028 163.702 127.257 161.341 128.437L102.315 150.277C99.9539 151.163 98.4783 153.228 98.4783 155.885V311.124C98.4783 321.453 111.464 314.665 106.447 316.731L163.112 295.777L219.777 316.731C222.433 317.617 225.385 316.141 224.204 316.731L281.165 295.777L338.125 316.731C341.962 318.207 346.094 315.551 346.094 311.124V155.885C346.094 153.524 344.618 151.163 342.257 150.277ZM157.209 285.447L109.988 302.27V159.721L157.209 142.604V285.447ZM216.236 302.27L169.015 285.152V142.604L216.236 159.721V302.27ZM275.262 285.447L228.041 302.27V159.721L275.262 142.604V285.447ZM334.288 302.27L287.067 285.152V142.604L334.288 159.721V302.27Z" fill="#5C5C5C"/>
</svg>
