<svg width="152" height="216" viewBox="0 0 152 216" fill="none" xmlns="http://www.w3.org/2000/svg">
<path d="M38.7149 10.5703C62.2022 -3.0768 91.0718 -2.83827 114.339 11.1951C137.377 25.5143 151.379 51.0699 151.249 78.5605C150.712 105.871 135.698 131.543 116.93 151.388C106.098 162.894 93.9806 173.068 80.8251 181.702C79.4702 182.486 77.9861 183.01 76.446 183.25C74.9637 183.187 73.5202 182.749 72.2456 181.976C52.1611 169.002 34.5408 152.441 20.2326 133.09C8.25981 116.937 1.45772 97.4221 0.75 77.195L0.803602 74.2524C1.78116 47.8499 16.0666 23.73 38.7149 10.5703ZM85.7531 54.6238C76.205 50.5653 65.1967 52.7703 57.8682 60.2092C50.5396 67.6482 48.3364 78.8538 52.2873 88.5939C56.2381 98.334 65.5637 104.687 75.9097 104.687C82.6876 104.736 89.203 102.021 94.0042 97.1476C98.8054 92.2741 101.493 85.6469 101.47 78.7426C101.506 68.2039 95.3012 58.6824 85.7531 54.6238Z" fill="#276DBF"/>
<path opacity="0.4" d="M76 215.5C105.685 215.5 129.75 210.687 129.75 204.75C129.75 198.813 105.685 194 76 194C46.3147 194 22.25 198.813 22.25 204.75C22.25 210.687 46.3147 215.5 76 215.5Z" fill="#276DBF"/>
</svg>
