<svg width="310" height="310" viewBox="0 0 310 310" fill="none" xmlns="http://www.w3.org/2000/svg">
<path d="M273.635 94.453L160.607 40.0235C157.063 38.3327 152.937 38.3327 149.393 40.0235L36.3658 94.453C28.4388 98.2751 24.383 106.424 26.2818 114.736C28.2244 123.238 35.9189 129.167 45.0071 129.167H64.5836V206.667C50.3365 206.667 38.7502 218.259 38.7502 232.5V245.417C38.7502 259.657 50.3365 271.25 64.5836 271.25H245.417C259.664 271.25 271.25 259.657 271.25 245.417V232.5C271.25 218.259 259.664 206.667 245.417 206.667V129.167H264.993C274.082 129.167 281.776 123.238 283.719 114.736C285.617 106.424 281.562 98.2751 273.635 94.453ZM155 66.0092L232.52 103.333H77.4808L155 66.0092ZM219.584 129.167V206.667H167.917V129.167H219.584ZM142.084 129.167V206.667H90.4169V129.167H142.084ZM245.436 245.417H64.5836V232.5H245.417L245.436 245.417Z" fill="#DFCCF1"/>
</svg>
