<svg width="393" height="393" viewBox="0 0 393 393" fill="none" xmlns="http://www.w3.org/2000/svg">
<path d="M196.5 168.99C166.632 168.99 138.336 173.313 113.97 180.387V126.939L219.294 81.744C222.045 80.565 224.01 77.814 224.01 74.67C224.01 71.526 222.045 68.775 219.294 67.596L109.254 20.436C108.468 20.043 108.075 20.043 107.289 20.043H104.538C104.145 20.043 103.752 20.043 103.752 20.436H103.359C102.966 20.436 102.966 20.829 102.573 20.829C102.573 20.829 102.18 20.829 102.18 21.222C101.787 21.222 101.787 21.615 101.394 21.615L101.001 22.008C100.608 22.401 100.608 22.401 100.608 22.794L100.215 23.187C99.822 23.58 99.822 23.973 99.429 24.366C99.036 24.759 99.036 25.152 99.036 25.938V185.496C50.697 203.967 19.65 235.014 19.65 271.17C19.65 328.548 97.464 373.35 196.5 373.35C295.536 373.35 373.35 328.548 373.35 271.17C373.35 213.792 295.536 168.99 196.5 168.99ZM113.97 110.04V39.3L196.107 74.67L113.97 110.04ZM196.5 357.63C107.682 357.63 35.37 318.723 35.37 271.17C35.37 243.267 60.129 218.508 98.25 202.788V271.17C98.25 288.855 117.114 302.61 141.48 302.61C165.846 302.61 184.71 288.855 184.71 271.17C184.71 253.485 165.846 239.73 141.48 239.73C130.869 239.73 121.437 242.481 113.97 246.804V196.893C137.943 189.033 166.239 184.71 196.5 184.71C285.318 184.71 357.63 223.617 357.63 271.17C357.63 318.723 285.318 357.63 196.5 357.63ZM113.97 271.17C113.97 263.703 125.367 255.45 141.48 255.45C157.593 255.45 168.99 263.703 168.99 271.17C168.99 278.637 157.593 286.89 141.48 286.89C125.367 286.89 113.97 278.637 113.97 271.17ZM263.31 239.73C246.018 239.73 231.87 253.878 231.87 271.17C231.87 288.462 246.018 302.61 263.31 302.61C280.602 302.61 294.75 288.462 294.75 271.17C294.75 253.878 280.602 239.73 263.31 239.73ZM263.31 286.89C254.664 286.89 247.59 279.816 247.59 271.17C247.59 262.524 254.664 255.45 263.31 255.45C271.956 255.45 279.03 262.524 279.03 271.17C279.03 279.816 271.956 286.89 263.31 286.89Z" fill="#FFCE98"/>
</svg>
