<svg width="201" height="235" viewBox="0 0 201 235" fill="none" xmlns="http://www.w3.org/2000/svg">
<path fill-rule="evenodd" clip-rule="evenodd" d="M201 218.283C201 222.717 199.239 226.969 196.104 230.104C192.969 233.239 188.717 235 184.283 235H16.7668C14.5643 235.002 12.383 234.57 10.3478 233.728C8.31256 232.886 6.46334 231.651 4.90596 230.094C3.34859 228.537 2.11364 226.687 1.27181 224.652C0.429986 222.617 -0.00219518 220.436 8.38415e-06 218.233V201.5C8.38415e-06 157.397 67 134.5 67 134.5C67 134.5 70.8357 127.649 67 117.75C52.9133 107.365 51.188 91.1175 50.25 50.75C53.1478 10.3322 81.5222 0.5 100.5 0.5C119.478 0.5 147.852 10.3155 150.75 50.75C149.812 91.1175 148.087 107.365 134 117.75C130.164 127.632 134 134.5 134 134.5C134 134.5 201 157.397 201 201.5V218.283Z" fill="#F65A82"/>
</svg>
