<svg width="67" height="86" viewBox="0 0 67 86" fill="none" xmlns="http://www.w3.org/2000/svg">
<path d="M29.4601 0.319994C37.4601 0.319994 43.7401 1.79999 48.3001 4.75999C52.8601 7.71999 55.9401 11.92 57.5401 17.36H66.5401V23.84H58.7401C58.8201 24.56 58.8601 25.28 58.8601 26C58.9401 26.72 58.9801 27.44 58.9801 28.16C58.9801 29.2 58.9401 30.28 58.8601 31.4C58.7801 32.44 58.6601 33.48 58.5001 34.52H66.5401V41H56.8201C55.6201 44.28 53.7801 47.2 51.3001 49.76C48.8201 52.32 45.6201 54.36 41.7001 55.88C37.7801 57.32 33.0201 58.04 27.4201 58.04H20.7001V86H10.7401V41H0.300088V34.52H10.7401V23.84H0.300088V17.36H10.7401V0.319994H29.4601ZM45.6601 41H20.7001V49.16H26.8201C31.5401 49.16 35.4601 48.52 38.5801 47.24C41.7001 45.96 44.0601 43.88 45.6601 41ZM48.0601 23.84H20.7001V34.52H47.9401C48.1001 33.64 48.2201 32.72 48.3001 31.76C48.3801 30.72 48.4201 29.68 48.4201 28.64C48.4201 27.76 48.3801 26.96 48.3001 26.24C48.3001 25.44 48.2201 24.64 48.0601 23.84ZM29.1001 9.19999H20.7001V17.36H46.0201C44.5801 14.64 42.4601 12.6 39.6601 11.24C36.8601 9.88 33.3401 9.19999 29.1001 9.19999Z" fill="#787675"/>
</svg>
