<svg width="179" height="179" viewBox="0 0 179 179" fill="none" xmlns="http://www.w3.org/2000/svg">
<path d="M89.5 167.812C46.3274 167.812 11.1875 132.684 11.1875 89.5C11.1875 46.3163 46.3274 11.1875 89.5 11.1875C132.673 11.1875 167.812 46.3163 167.812 89.5C167.812 132.684 132.673 167.812 89.5 167.812ZM89.5 22.375C52.4806 22.375 22.375 52.4806 22.375 89.5C22.375 126.519 52.4806 156.625 89.5 156.625C126.519 156.625 156.625 126.519 156.625 89.5C156.625 52.4806 126.519 22.375 89.5 22.375Z" fill="#FC8040"/>
<path d="M89.5 113.743C102.889 113.743 113.743 102.889 113.743 89.5C113.743 76.1108 102.889 65.2567 89.5 65.2567C76.1108 65.2567 65.2567 76.1108 65.2567 89.5C65.2567 102.889 76.1108 113.743 89.5 113.743Z" fill="#FC8040"/>
</svg>
