<svg width="295" height="295" viewBox="0 0 295 295" fill="none" xmlns="http://www.w3.org/2000/svg">
<circle cx="147.5" cy="147.5" r="147.5" fill="#DE4D6C"/>
<path d="M96.4576 146.361C100.946 150.978 106.962 153.532 113.361 153.532C119.759 153.532 125.728 150.978 130.264 146.361L133.654 142.874L145.305 154.859L140.291 160.016C135.134 154.662 125.202 154.662 120.046 160.016L82.8969 198.228C75.4481 205.891 75.4481 218.366 82.8969 226.028C90.107 233.445 102.665 233.445 109.923 226.028L147.071 187.816C152.658 182.069 152.658 172.737 147.071 166.99L152.085 161.833L165.455 175.586C162.733 178.385 161.253 182.069 161.253 185.998C161.253 189.928 162.733 193.661 165.455 196.411L202.603 234.624C206.184 238.307 211.007 240.37 216.116 240.37C221.225 240.37 226 238.307 229.629 234.624C233.258 230.94 235.216 225.979 235.216 220.724C235.216 215.468 233.21 210.557 229.629 206.824L192.481 168.611C189.759 165.812 186.178 164.289 182.358 164.289C178.538 164.289 174.909 165.812 172.235 168.611L158.865 154.859L167.556 145.919C172.665 150.143 180.352 154.515 190.236 154.515C200.98 154.515 211.485 149.358 221.369 139.141C231.062 129.171 237.555 116.99 239.656 104.858C241.853 92.0877 238.94 80.84 231.491 73.1778C224.043 65.5156 213.108 62.5195 200.693 64.7789C188.899 66.94 177.058 73.5707 167.365 83.5905C146.976 104.563 150.414 125.536 160.823 138.945L152.133 147.884L140.482 135.9L143.872 132.412C148.361 127.795 150.844 121.607 150.844 115.025C150.844 108.443 148.361 102.304 143.872 97.6378L103.333 55.9379C101.376 54.1697 98.3198 54.1697 96.4576 56.0853C94.5954 58.0008 94.5954 61.0952 96.4576 63.0107L136.996 104.711C139.718 107.51 141.198 111.194 141.198 115.123C141.198 119.053 139.718 122.736 136.996 125.536L133.606 129.023L82.9924 76.9107C81.1302 74.9951 78.1221 74.9951 76.2599 76.9107C74.3977 78.8262 74.3977 81.9205 76.2599 83.8361L126.874 135.949L123.483 139.436C117.897 145.183 108.825 145.183 103.238 139.436L62.7469 97.7361C60.9325 95.8696 57.7811 95.8696 56.0144 97.7361C55.1071 98.6693 54.6296 99.8972 54.6296 101.223C54.6296 102.549 55.1071 103.777 56.0144 104.711L96.4576 146.361ZM140.243 180.89L103.095 219.103C99.5135 222.787 93.2107 222.787 89.5818 219.103C85.8574 215.272 85.8574 209.034 89.5818 205.203L126.73 166.99C127.638 166.057 128.879 165.615 130.121 165.615C131.362 165.615 132.603 166.057 133.511 166.99L136.901 170.478C137.522 171.116 138.238 171.509 139.05 171.755C139.241 172.59 139.67 173.326 140.291 173.965C142.106 175.831 142.106 178.975 140.243 180.89ZM172.14 182.511L175.53 179.024C176.15 178.385 176.58 177.649 176.771 176.814C177.535 176.617 178.299 176.175 178.92 175.537C180.782 173.621 183.79 173.621 185.7 175.537L222.849 213.749C224.663 215.616 225.666 218.071 225.666 220.675C225.666 223.278 224.663 225.783 222.849 227.6C219.268 231.284 212.917 231.284 209.336 227.6L172.187 189.387C171.28 188.454 170.803 187.226 170.803 185.9C170.803 184.574 171.232 183.444 172.14 182.511ZM174.002 90.5651C182.358 81.9697 192.385 76.2722 202.269 74.504C204.37 74.111 206.471 73.9146 208.476 73.9146C215.113 73.9146 220.7 76.0757 224.663 80.1524C229.82 85.4569 231.778 93.6594 230.154 103.188C228.388 113.355 222.849 123.67 214.541 132.265C207.187 139.829 199.261 144.151 191.621 144.691C184.077 145.232 176.867 142.137 170.659 135.703C157.719 122.491 158.961 106.037 174.002 90.5651Z" fill="white"/>
</svg>
