<svg width="217" height="217" viewBox="0 0 217 217" fill="none" xmlns="http://www.w3.org/2000/svg">
<path d="M64.4219 122.063C58.3865 122.063 52.4866 120.273 47.4683 116.92C42.45 113.567 38.5388 108.801 36.2291 103.225C33.9195 97.6487 33.3151 91.513 34.4926 85.5936C35.6701 79.6741 38.5764 74.2368 42.8441 69.9691C47.1118 65.7014 52.5491 62.7951 58.4686 61.6176C64.388 60.4402 70.5237 61.0445 76.0997 63.3541C81.6757 65.6638 86.4416 69.5751 89.7947 74.5933C93.1478 79.6116 94.9375 85.5115 94.9375 91.5469C94.9196 99.6346 91.6988 107.386 85.9799 113.105C80.261 118.824 72.5096 122.045 64.4219 122.063ZM64.4219 74.5938C61.0689 74.5938 57.7912 75.5881 55.0032 77.4509C52.2153 79.3137 50.0424 81.9614 48.7592 85.0592C47.4761 88.157 47.1404 91.5657 47.7945 94.8543C48.4486 98.1429 50.0633 101.164 52.4342 103.535C54.8051 105.906 57.8259 107.52 61.1145 108.174C64.4031 108.828 67.8118 108.493 70.9096 107.21C74.0073 105.926 76.6551 103.753 78.5179 100.966C80.3807 98.1776 81.375 94.8999 81.375 91.5469C81.375 89.3206 80.9365 87.1161 80.0845 85.0592C79.2325 83.0024 77.9838 81.1335 76.4095 79.5592C74.8353 77.985 72.9664 76.7362 70.9096 75.8842C68.8527 75.0323 66.6482 74.5938 64.4219 74.5938ZM132.234 88.1563C124.858 88.1563 117.647 85.9688 111.513 81.8706C105.38 77.7724 100.599 71.9474 97.7766 65.1323C94.9536 58.3172 94.215 50.818 95.6542 43.5831C97.0933 36.3482 100.645 29.7026 105.861 24.4865C111.078 19.2705 117.723 15.7183 124.958 14.2792C132.193 12.8401 139.692 13.5787 146.507 16.4016C153.322 19.2245 159.147 24.0049 163.246 30.1384C167.344 36.2718 169.531 43.4828 169.531 50.8594C169.513 60.7456 165.578 70.2218 158.587 77.2125C151.597 84.2031 142.121 88.1383 132.234 88.1563ZM132.234 27.125C127.54 27.125 122.951 28.517 119.048 31.125C115.145 33.7329 112.103 37.4397 110.307 41.7766C108.51 46.1135 108.04 50.8857 108.956 55.4897C109.872 60.0938 112.132 64.3228 115.452 67.6421C118.771 70.9614 123 73.2219 127.604 74.1377C132.208 75.0535 136.98 74.5835 141.317 72.7871C145.654 70.9907 149.361 67.9486 151.969 64.0455C154.577 60.1424 155.969 55.5536 155.969 50.8594C155.969 44.5646 153.468 38.5277 149.017 34.0767C144.566 29.6256 138.529 27.125 132.234 27.125ZM77.9844 203.438H50.8594C40.9676 203.438 31.481 199.508 24.4865 192.514C17.492 185.519 13.5625 176.032 13.5625 166.141C13.5625 156.249 17.492 146.762 24.4865 139.768C31.481 132.773 40.9676 128.844 50.8594 128.844H77.9844C87.8761 128.844 97.3627 132.773 104.357 139.768C111.352 146.762 115.281 156.249 115.281 166.141C115.281 176.032 111.352 185.519 104.357 192.514C97.3627 199.508 87.8761 203.438 77.9844 203.438ZM50.8594 142.406C44.5646 142.406 38.5277 144.907 34.0766 149.358C29.6256 153.809 27.125 159.846 27.125 166.141C27.125 172.435 29.6256 178.472 34.0766 182.923C38.5277 187.374 44.5646 189.875 50.8594 189.875H77.9844C84.2791 189.875 90.3161 187.374 94.7671 182.923C99.2182 178.472 101.719 172.435 101.719 166.141C101.719 159.846 99.2182 153.809 94.7671 149.358C90.3161 144.907 84.2791 142.406 77.9844 142.406H50.8594Z" fill="#545454"/>
<path d="M152.578 203.438H81.375C79.5765 203.438 77.8517 202.723 76.5799 201.451C75.3082 200.18 74.5938 198.455 74.5938 196.656C74.5938 194.858 75.3082 193.133 76.5799 191.861C77.8517 190.589 79.5765 189.875 81.375 189.875H152.578C162.47 189.875 171.956 185.946 178.951 178.951C185.946 171.956 189.875 162.47 189.875 152.578C189.875 142.686 185.946 133.2 178.951 126.205C171.956 119.211 162.47 115.281 152.578 115.281H111.891C110.092 115.281 108.367 114.567 107.096 113.295C105.824 112.023 105.109 110.298 105.109 108.5C105.109 106.702 105.824 104.977 107.096 103.705C108.367 102.433 110.092 101.719 111.891 101.719H152.578C166.067 101.719 179.003 107.077 188.541 116.615C198.079 126.153 203.438 139.089 203.438 152.578C203.438 166.067 198.079 179.003 188.541 188.541C179.003 198.079 166.067 203.438 152.578 203.438Z" fill="#545454"/>
</svg>
