<svg width="223" height="230" viewBox="0 0 223 230" fill="none" xmlns="http://www.w3.org/2000/svg">
<path d="M69.6875 64.6875C67.8393 64.6875 66.0667 63.9302 64.7599 62.5823C63.453 61.2344 62.7188 59.4062 62.7188 57.5V28.75C62.7188 26.8438 63.453 25.0156 64.7599 23.6677C66.0667 22.3198 67.8393 21.5625 69.6875 21.5625C71.5357 21.5625 73.3083 22.3198 74.6151 23.6677C75.922 25.0156 76.6562 26.8438 76.6562 28.75V57.5C76.6562 59.4062 75.922 61.2344 74.6151 62.5823C73.3083 63.9302 71.5357 64.6875 69.6875 64.6875ZM153.312 64.6875C151.464 64.6875 149.692 63.9302 148.385 62.5823C147.078 61.2344 146.344 59.4062 146.344 57.5V28.75C146.344 26.8438 147.078 25.0156 148.385 23.6677C149.692 22.3198 151.464 21.5625 153.312 21.5625C155.161 21.5625 156.933 22.3198 158.24 23.6677C159.547 25.0156 160.281 26.8438 160.281 28.75V57.5C160.281 59.4062 159.547 61.2344 158.24 62.5823C156.933 63.9302 155.161 64.6875 153.312 64.6875Z" fill="#545454"/>
<path d="M181.188 208.438H41.8125C30.2862 208.438 20.9062 198.763 20.9062 186.875V57.5C20.9062 45.6119 30.2862 35.9375 41.8125 35.9375H181.188C192.714 35.9375 202.094 45.6119 202.094 57.5V186.875C202.094 198.763 192.714 208.438 181.188 208.438ZM41.8125 50.3125C39.9643 50.3125 38.1917 51.0698 36.8849 52.4177C35.578 53.7656 34.8438 55.5938 34.8438 57.5V186.875C34.8438 188.781 35.578 190.609 36.8849 191.957C38.1917 193.305 39.9643 194.062 41.8125 194.062H181.188C183.036 194.062 184.808 193.305 186.115 191.957C187.422 190.609 188.156 188.781 188.156 186.875V57.5C188.156 55.5938 187.422 53.7656 186.115 52.4177C184.808 51.0698 183.036 50.3125 181.188 50.3125H41.8125Z" fill="#545454"/>
<path d="M195.125 93.4375H27.875C26.0268 93.4375 24.2542 92.6802 22.9473 91.3323C21.6405 89.9844 20.9063 88.1562 20.9062 86.25C20.9062 84.3438 21.6405 82.5156 22.9473 81.1677C24.2542 79.8198 26.0268 79.0625 27.875 79.0625H195.125C196.973 79.0625 198.746 79.8198 200.053 81.1677C201.36 82.5156 202.094 84.3438 202.094 86.25C202.094 88.1562 201.36 89.9844 200.053 91.3323C198.746 92.6802 196.973 93.4375 195.125 93.4375ZM76.6562 107.812H90.5938V122.188H76.6562V107.812ZM104.531 107.812H118.469V122.188H104.531V107.812ZM132.406 107.812H146.344V122.188H132.406V107.812ZM160.281 107.812H174.219V122.188H160.281V107.812ZM48.7812 136.562H62.7188V150.938H48.7812V136.562ZM76.6562 136.562H90.5938V150.938H76.6562V136.562ZM104.531 136.562H118.469V150.938H104.531V136.562ZM132.406 136.562H146.344V150.938H132.406V136.562ZM160.281 136.562H174.219V150.938H160.281V136.562ZM48.7812 165.312H62.7188V179.688H48.7812V165.312ZM76.6562 165.312H90.5938V179.688H76.6562V165.312ZM104.531 165.312H118.469V179.688H104.531V165.312Z" fill="#545454"/>
</svg>
