<svg width="57" height="72" viewBox="0 0 57 72" fill="none" xmlns="http://www.w3.org/2000/svg">
<path d="M25.1227 0.599995C31.7894 0.599995 37.0227 1.83333 40.8227 4.3C44.6227 6.76666 47.1894 10.2667 48.5227 14.8H56.0227V20.2H49.5227C49.5894 20.8 49.6227 21.4 49.6227 22C49.6894 22.6 49.7227 23.2 49.7227 23.8C49.7227 24.6667 49.6894 25.5667 49.6227 26.5C49.5561 27.3667 49.4561 28.2333 49.3227 29.1H56.0227V34.5H47.9227C46.9227 37.2333 45.3894 39.6667 43.3227 41.8C41.2561 43.9333 38.5894 45.6333 35.3227 46.9C32.0561 48.1 28.0894 48.7 23.4227 48.7H17.8227V72H9.52274V34.5H0.822744V29.1H9.52274V20.2H0.822744V14.8H9.52274V0.599995H25.1227ZM38.6227 34.5H17.8227V41.3H22.9227C26.8561 41.3 30.1227 40.7667 32.7227 39.7C35.3227 38.6333 37.2894 36.9 38.6227 34.5ZM40.6227 20.2H17.8227V29.1H40.5227C40.6561 28.3667 40.7561 27.6 40.8227 26.8C40.8894 25.9333 40.9227 25.0667 40.9227 24.2C40.9227 23.4667 40.8894 22.8 40.8227 22.2C40.8227 21.5333 40.7561 20.8667 40.6227 20.2ZM24.8227 8H17.8227V14.8H38.9227C37.7227 12.5333 35.9561 10.8333 33.6227 9.7C31.2894 8.56666 28.3561 8 24.8227 8Z" fill="#545454"/>
</svg>
