<svg width="398" height="398" viewBox="0 0 398 398" fill="none" xmlns="http://www.w3.org/2000/svg">
<path d="M315.084 116.083H265.334V99.5001C265.334 81.9074 258.345 65.0352 245.905 52.5953C233.465 40.1554 216.593 33.1667 199 33.1667C181.407 33.1667 164.535 40.1554 152.095 52.5953C139.655 65.0352 132.667 81.9074 132.667 99.5001V116.083H82.9168C78.5187 116.083 74.3006 117.831 71.1906 120.941C68.0807 124.051 66.3335 128.269 66.3335 132.667V315.083C66.3335 328.278 71.575 340.932 80.9049 350.262C90.2349 359.592 102.889 364.833 116.083 364.833H281.917C295.111 364.833 307.765 359.592 317.095 350.262C326.425 340.932 331.667 328.278 331.667 315.083V132.667C331.667 128.269 329.92 124.051 326.81 120.941C323.7 117.831 319.482 116.083 315.084 116.083ZM165.833 99.5001C165.833 90.7037 169.328 82.2677 175.548 76.0477C181.768 69.8277 190.204 66.3334 199 66.3334C207.797 66.3334 216.233 69.8277 222.453 76.0477C228.672 82.2677 232.167 90.7037 232.167 99.5001V116.083H165.833V99.5001ZM298.5 315.083C298.5 319.482 296.753 323.7 293.643 326.81C290.533 329.92 286.315 331.667 281.917 331.667H116.083C111.685 331.667 107.467 329.92 104.357 326.81C101.247 323.7 99.5002 319.482 99.5002 315.083V149.25H132.667V165.833C132.667 170.232 134.414 174.45 137.524 177.56C140.634 180.67 144.852 182.417 149.25 182.417C153.648 182.417 157.866 180.67 160.976 177.56C164.086 174.45 165.833 170.232 165.833 165.833V149.25H232.167V165.833C232.167 170.232 233.914 174.45 237.024 177.56C240.134 180.67 244.352 182.417 248.75 182.417C253.148 182.417 257.366 180.67 260.476 177.56C263.586 174.45 265.334 170.232 265.334 165.833V149.25H298.5V315.083Z" fill="#90DCFC"/>
</svg>
