<svg width="445" height="445" viewBox="0 0 445 445" fill="none" xmlns="http://www.w3.org/2000/svg">
<path d="M333.75 185.417C348.419 185.417 362.758 181.067 374.955 172.917C387.151 164.768 396.658 153.185 402.271 139.632C407.885 126.08 409.353 111.168 406.492 96.7808C403.63 82.3939 396.566 69.1787 386.194 58.8063C375.821 48.4339 362.606 41.3702 348.219 38.5084C333.832 35.6467 318.92 37.1154 305.368 42.7289C291.815 48.3424 280.232 57.8486 272.083 70.0452C263.933 82.2419 259.583 96.5812 259.583 111.25C259.583 130.92 267.397 149.785 281.306 163.694C295.215 177.603 314.08 185.417 333.75 185.417ZM333.75 74.1667C341.084 74.1667 348.254 76.3416 354.352 80.4163C360.451 84.4911 365.204 90.2827 368.011 97.0588C370.817 103.835 371.552 111.291 370.121 118.485C368.69 125.678 365.158 132.286 359.972 137.472C354.786 142.658 348.178 146.19 340.985 147.621C333.791 149.052 326.335 148.317 319.559 145.511C312.783 142.704 306.991 137.951 302.916 131.852C298.842 125.754 296.667 118.584 296.667 111.25C296.667 101.415 300.574 91.9826 307.528 85.0281C314.483 78.0737 323.915 74.1667 333.75 74.1667ZM312.427 231.215C310.764 228.531 308.444 226.317 305.686 224.782C302.928 223.246 299.823 222.44 296.667 222.44C293.51 222.44 290.406 223.246 287.648 224.782C284.89 226.317 282.569 228.531 280.906 231.215L262.365 261.438L201.363 157.604C199.721 154.837 197.387 152.545 194.592 150.953C191.796 149.361 188.634 148.524 185.417 148.524C182.199 148.524 179.038 149.361 176.242 150.953C173.446 152.545 171.113 154.837 169.471 157.604L39.6792 380.104C38.0564 382.915 37.1998 386.102 37.1949 389.347C37.1899 392.592 38.0369 395.782 39.6511 398.598C41.2652 401.413 43.5901 403.756 46.3933 405.391C49.1964 407.026 52.3797 407.897 55.625 407.917H389.375C392.688 407.923 395.942 407.042 398.799 405.365C401.656 403.688 404.012 401.276 405.621 398.38C407.229 395.484 408.033 392.209 407.948 388.898C407.862 385.586 406.891 382.357 405.135 379.548L312.427 231.215ZM193.76 370.833H87.8875L185.417 203.958L239.929 296.667L216.752 333.75L193.76 370.833ZM237.333 370.833L264.96 326.89L278.125 307.235L296.667 276.085L356 370.833H237.333Z" fill="#65F1D0"/>
</svg>
