<svg width="243" height="243" viewBox="0 0 243 243" fill="none" xmlns="http://www.w3.org/2000/svg">
<path d="M206.054 210.99H153.095C141.901 210.99 132.825 201.915 132.825 190.72C132.825 179.525 141.901 170.449 153.095 170.449H206.054C217.249 170.449 226.325 179.525 226.325 190.72C226.325 201.915 217.249 210.99 206.054 210.99ZM89.7209 127.324C89.7209 138.519 80.6453 147.595 69.4507 147.595H23.2485C12.0539 147.595 2.97827 138.519 2.97827 127.324C2.97827 116.129 12.0539 107.054 23.2485 107.054H69.4507C80.6453 107.054 89.7209 116.129 89.7209 127.324Z" fill="#FC6873"/>
<path d="M157.214 207.592H61.7961C57.3676 207.592 53.7776 204.002 53.7776 199.573V49.2081C53.7776 44.7796 57.3676 41.1897 61.7961 41.1897H157.214C161.642 41.1897 165.232 44.7796 165.232 49.2081V199.573C165.232 204.002 161.642 207.592 157.214 207.592Z" fill="#F78E48"/>
<path d="M149.783 63.7928H69.2233V177.646H149.783V63.7928Z" fill="white"/>
<path d="M124.883 56.2387H107.331C106.237 56.2387 105.35 55.3514 105.35 54.2578C105.35 53.1641 106.237 52.2768 107.331 52.2768H124.883C125.977 52.2768 126.864 53.1641 126.864 54.2578C126.864 55.3514 125.977 56.2387 124.883 56.2387ZM99.5569 56.2387H94.1279C93.0336 56.2387 92.1469 55.3514 92.1469 54.2578C92.1469 53.1641 93.0336 52.2768 94.1279 52.2768H99.5569C100.651 52.2768 101.538 53.1641 101.538 54.2578C101.538 55.3514 100.651 56.2387 99.5569 56.2387Z" fill="white"/>
<path d="M205.676 88.871V135.254C205.676 138.382 203.14 140.918 200.012 140.918H193.403V162.279L170.368 140.918H118.815C115.687 140.918 113.151 138.382 113.151 135.254V88.871C113.151 85.7428 115.687 83.2069 118.815 83.2069H200.012C203.14 83.2069 205.676 85.7428 205.676 88.871Z" fill="white"/>
<path d="M200.012 81.2254H167.874V49.2086C167.874 43.3301 163.092 38.5479 157.214 38.5479H61.7957C55.9179 38.5479 51.1364 43.3302 51.1364 49.2086V199.573C51.1364 205.451 55.9179 210.233 61.7957 210.233H157.214C163.092 210.233 167.873 205.45 167.873 199.573V142.899H169.591L192.056 163.731C192.631 164.265 193.47 164.411 194.196 164.095C194.917 163.779 195.384 163.067 195.384 162.279V142.899H200.012C204.227 142.899 207.657 139.47 207.657 135.255V88.8707C207.657 84.6547 204.227 81.2254 200.012 81.2254ZM162.591 199.573C162.591 202.538 160.179 204.95 157.214 204.95H61.7957C58.8307 204.95 56.419 202.538 56.419 199.573V49.2086C56.419 46.2436 58.8307 43.8306 61.7957 43.8306H157.214C160.179 43.8306 162.591 46.2436 162.591 49.2086V81.2254H118.815C114.599 81.2254 111.17 84.6547 111.17 88.8707V135.255C111.17 139.469 114.599 142.899 118.815 142.899H162.591V199.573ZM203.695 135.255C203.695 137.285 202.043 138.937 200.012 138.937H193.403C192.309 138.937 191.422 139.824 191.422 140.918V157.741L171.716 139.466C171.349 139.125 170.868 138.937 170.368 138.937H118.815C116.784 138.937 115.132 137.285 115.132 135.255V88.8707C115.132 86.8394 116.784 85.1873 118.815 85.1873H200.012C202.043 85.1873 203.695 86.8394 203.695 88.8707L203.695 135.255Z" fill="black"/>
<path d="M138.201 119.339C142.304 119.339 145.631 116.013 145.631 111.909C145.631 107.806 142.304 104.479 138.201 104.479C134.097 104.479 130.771 107.806 130.771 111.909C130.771 116.013 134.097 119.339 138.201 119.339Z" fill="#3CDAF6"/>
<path d="M159.413 119.339C163.517 119.339 166.843 116.013 166.843 111.909C166.843 107.806 163.517 104.479 159.413 104.479C155.31 104.479 151.983 107.806 151.983 111.909C151.983 116.013 155.31 119.339 159.413 119.339Z" fill="#3CDAF6"/>
<path d="M180.626 119.339C184.729 119.339 188.056 116.013 188.056 111.909C188.056 107.806 184.729 104.479 180.626 104.479C176.522 104.479 173.196 107.806 173.196 111.909C173.196 116.013 176.522 119.339 180.626 119.339Z" fill="#3CDAF6"/>
<path d="M219.752 72.5506H196.882C185.687 72.5506 176.612 63.4753 176.612 52.2804C176.612 41.0855 185.687 32.0102 196.882 32.0102H219.752C230.947 32.0102 240.022 41.0855 240.022 52.2804C240.022 63.4753 230.947 72.5506 219.752 72.5506Z" fill="#FC6873"/>
<path d="M27.6835 60.5466C33.7082 60.5466 38.5921 55.6627 38.5921 49.638C38.5921 43.6134 33.7082 38.7294 27.6835 38.7294C21.6589 38.7294 16.7749 43.6134 16.7749 49.638C16.7749 55.6627 21.6589 60.5466 27.6835 60.5466Z" fill="#48DA97"/>
<path d="M228.763 130.457C233.023 130.457 236.476 127.004 236.476 122.744C236.476 118.484 233.023 115.031 228.763 115.031C224.504 115.031 221.051 118.484 221.051 122.744C221.051 127.004 224.504 130.457 228.763 130.457Z" fill="#FFF2D7"/>
<path d="M35.3988 207.81C38.6416 207.81 41.2704 205.181 41.2704 201.938C41.2704 198.695 38.6416 196.067 35.3988 196.067C32.1559 196.067 29.5271 198.695 29.5271 201.938C29.5271 205.181 32.1559 207.81 35.3988 207.81Z" fill="#F68CFF"/>
</svg>
