<svg width="224" height="289" viewBox="0 0 224 289" fill="none" xmlns="http://www.w3.org/2000/svg">
<path d="M112 128.185C124.658 128.185 137.032 124.426 147.556 117.384C158.081 110.341 166.284 100.331 171.128 88.6198C175.972 76.9084 177.24 64.0215 174.77 51.5888C172.301 39.156 166.205 27.7358 157.255 18.7723C148.304 9.80879 136.901 3.70457 124.486 1.23155C112.071 -1.24148 99.2027 0.0277701 87.5083 4.87878C75.8138 9.7298 65.8184 17.9447 58.7859 28.4847C51.7535 39.0246 48 51.4163 48 64.0926C48 81.091 54.7428 97.3932 66.7452 109.413C78.7475 121.433 95.0261 128.185 112 128.185ZM112 32.0463C118.329 32.0463 124.516 33.9258 129.778 37.4471C135.041 40.9684 139.142 45.9733 141.564 51.829C143.986 57.6847 144.62 64.1281 143.385 70.3445C142.15 76.5609 139.103 82.271 134.627 86.7527C130.152 91.2345 124.45 94.2866 118.243 95.5231C112.035 96.7596 105.601 96.125 99.7541 93.6995C93.9069 91.274 88.9092 87.1665 85.393 81.8965C81.8768 76.6266 80 70.4307 80 64.0926C80 55.5934 83.3714 47.4423 89.3726 41.4324C95.3738 35.4226 103.513 32.0463 112 32.0463ZM112 160.231C82.2958 160.231 53.8081 172.048 32.804 193.083C11.8 214.117 0 242.646 0 272.393C0 276.643 1.68571 280.719 4.68629 283.723C7.68688 286.728 11.7565 288.417 16 288.417C20.2435 288.417 24.3131 286.728 27.3137 283.723C30.3143 280.719 32 276.643 32 272.393C32 251.145 40.4285 230.768 55.4315 215.743C70.4344 200.718 90.7827 192.278 112 192.278C133.217 192.278 153.566 200.718 168.569 215.743C183.571 230.768 192 251.145 192 272.393C192 276.643 193.686 280.719 196.686 283.723C199.687 286.728 203.757 288.417 208 288.417C212.243 288.417 216.313 286.728 219.314 283.723C222.314 280.719 224 276.643 224 272.393C224 242.646 212.2 214.117 191.196 193.083C170.192 172.048 141.704 160.231 112 160.231Z" fill="#FC8040"/>
</svg>
