<svg width="464" height="443" viewBox="0 0 464 443" fill="none" xmlns="http://www.w3.org/2000/svg">
<path fill-rule="evenodd" clip-rule="evenodd" d="M48.8767 61.4987C48.8767 27.5563 76.1594 0.0403748 109.814 0.0403748H353.564C387.219 0.0403748 414.502 27.5563 414.502 61.4987V356.499C414.502 376.864 398.131 393.374 377.939 393.374H85.4392C65.2462 393.374 48.8767 376.864 48.8767 356.499V61.4987ZM109.814 24.6237C89.6212 24.6237 73.2517 41.1331 73.2517 61.4987V356.499C73.2517 363.286 78.7083 368.79 85.4392 368.79H377.939C384.669 368.79 390.127 363.286 390.127 356.499V61.4987C390.127 41.1331 373.756 24.6237 353.564 24.6237H109.814Z" fill="#FC8040"/>
<path fill-rule="evenodd" clip-rule="evenodd" d="M97.6274 86.0846C97.6274 65.7191 113.997 49.2096 134.19 49.2096H329.19C349.382 49.2096 365.752 65.7191 365.752 86.0846V233.585C365.752 240.372 360.295 245.876 353.565 245.876H109.815C103.084 245.876 97.6274 240.372 97.6274 233.585V86.0846ZM134.19 73.793C127.459 73.793 122.002 79.2962 122.002 86.0846V221.293H341.377V86.0846C341.377 79.2962 335.92 73.793 329.19 73.793H134.19ZM158.565 295.043C151.834 295.043 146.377 300.547 146.377 307.335C146.377 314.122 151.834 319.626 158.565 319.626C165.296 319.626 170.752 314.122 170.752 307.335C170.752 300.547 165.296 295.043 158.565 295.043ZM122.002 307.335C122.002 286.97 138.372 270.46 158.565 270.46C178.758 270.46 195.127 286.97 195.127 307.335C195.127 327.699 178.758 344.21 158.565 344.21C138.372 344.21 122.002 327.699 122.002 307.335ZM304.815 295.043C298.085 295.043 292.627 300.547 292.627 307.335C292.627 314.122 298.085 319.626 304.815 319.626C311.545 319.626 317.002 314.122 317.002 307.335C317.002 300.547 311.545 295.043 304.815 295.043ZM268.252 307.335C268.252 286.97 284.623 270.46 304.815 270.46C325.007 270.46 341.377 286.97 341.377 307.335C341.377 327.699 325.007 344.21 304.815 344.21C284.623 344.21 268.252 327.699 268.252 307.335ZM97.6274 368.793H195.127V405.668C195.127 426.033 178.758 442.543 158.565 442.543H134.19C113.997 442.543 97.6274 426.033 97.6274 405.668V368.793ZM122.002 393.376V405.668C122.002 412.455 127.459 417.96 134.19 417.96H158.565C165.296 417.96 170.752 412.455 170.752 405.668V393.376H122.002ZM268.252 368.793H365.752V405.668C365.752 426.033 349.382 442.543 329.19 442.543H304.815C284.623 442.543 268.252 426.033 268.252 405.668V368.793ZM292.627 393.376V405.668C292.627 412.455 298.085 417.96 304.815 417.96H329.19C335.92 417.96 341.377 412.455 341.377 405.668V393.376H292.627Z" fill="#FC8040"/>
<path fill-rule="evenodd" clip-rule="evenodd" d="M158.563 196.707C154.727 196.707 151.115 198.529 148.813 201.624L134.188 221.29H329.188L314.563 201.624C312.262 198.529 308.65 196.707 304.813 196.707H158.563ZM129.313 186.874C136.218 177.589 147.055 172.124 158.563 172.124H304.813C316.321 172.124 327.158 177.589 334.063 186.874L363.313 226.207C366.082 229.931 366.529 234.914 364.464 239.079C362.399 243.243 358.18 245.874 353.563 245.874H109.813C105.197 245.874 100.977 243.243 98.9127 239.079C96.8482 234.914 97.2937 229.931 100.063 226.207L129.313 186.874ZM390.126 73.7904H426.688C446.881 73.7904 463.251 90.2998 463.251 110.665V184.415C463.251 204.78 446.881 221.29 426.688 221.29H390.126V73.7904ZM414.501 98.3737V196.707H426.688C433.418 196.707 438.876 191.203 438.876 184.415V110.665C438.876 103.877 433.418 98.3737 426.688 98.3737H414.501ZM73.251 73.7904H36.6885C16.4955 73.7904 0.125977 90.2998 0.125977 110.665V184.415C0.125977 204.78 16.4955 221.29 36.6885 221.29H73.251V73.7904ZM48.876 98.3737V196.707H36.6885C29.9576 196.707 24.501 191.203 24.501 184.415V110.665C24.501 103.877 29.9576 98.3737 36.6885 98.3737H48.876Z" fill="#FC8040"/>
</svg>
