<svg width="331" height="331" viewBox="0 0 331 331" fill="none" xmlns="http://www.w3.org/2000/svg">
<g clip-path="url(#clip0_685_95)">
<path d="M117.167 72.4062C137.161 72.4062 153.37 56.1976 153.37 36.2031C153.37 16.2087 137.161 0 117.167 0C97.1726 0 80.9639 16.2087 80.9639 36.2031C80.9639 56.1976 97.1726 72.4062 117.167 72.4062Z" fill="#CBC7C5"/>
<path d="M256.008 186.188H214.633C213.261 186.188 211.946 185.643 210.976 184.673C210.006 183.703 209.461 182.387 209.461 181.016V129.297C209.461 127.925 210.006 126.61 210.976 125.64C211.946 124.67 213.261 124.125 214.633 124.125H256.008C257.379 124.125 258.695 124.67 259.665 125.64C260.635 126.61 261.18 127.925 261.18 129.297V181.016C261.18 182.387 260.635 183.703 259.665 184.673C258.695 185.643 257.379 186.188 256.008 186.188ZM219.805 175.844H250.836V134.469H219.805V175.844Z" fill="#ABA29E"/>
<path d="M249.05 126.97C248.422 123.604 246.484 120.625 243.663 118.686C240.842 116.747 237.367 116.006 234 116.626L185.332 125.47L160.611 89.5769C160.611 89.1631 159.99 88.7494 159.68 88.3356C158.221 86.5842 156.394 85.1757 154.329 84.2103C152.264 83.2449 150.012 82.7463 147.733 82.75H86.4978C84.5881 82.7481 82.6945 83.0988 80.9121 83.7844C77.4652 85.1107 74.6044 87.6231 72.844 90.8699L44.0367 143.313L43.6746 143.933C42.8692 145.44 42.3766 147.093 42.2265 148.795L37.0546 205.685C36.7392 209.115 37.7988 212.529 40.0005 215.177C42.2022 217.824 45.3656 219.489 48.7948 219.805C52.224 220.12 55.638 219.061 58.2859 216.859C60.9337 214.657 62.5985 211.494 62.914 208.065L67.7756 154.38L78.8434 137.779L75.792 212.047V315.484C75.6822 319.599 77.2117 323.589 80.0438 326.577C82.876 329.564 86.7789 331.304 90.8939 331.414C95.0089 331.524 98.9989 329.994 101.986 327.162C104.974 324.33 106.713 320.427 106.823 316.312L111.995 222.391H122.339L127.511 316.312C127.62 320.427 129.36 324.33 132.348 327.162C135.335 329.994 139.325 331.524 143.44 331.414C147.555 331.304 151.458 329.564 154.29 326.577C157.122 323.589 158.652 319.599 158.542 315.484V212.047L155.335 131.314L168.886 147.398L169.351 147.916C170.802 149.681 172.7 151.025 174.846 151.807C176.993 152.589 179.311 152.781 181.557 152.363L238.447 142.02C240.137 141.739 241.754 141.125 243.204 140.213C244.655 139.302 245.909 138.112 246.896 136.712C247.882 135.311 248.581 133.729 248.95 132.057C249.32 130.384 249.354 128.655 249.05 126.97Z" fill="#CBC7C5"/>
<path d="M204.289 331C210.002 331 214.633 326.369 214.633 320.656C214.633 314.944 210.002 310.312 204.289 310.312C198.576 310.312 193.945 314.944 193.945 320.656C193.945 326.369 198.576 331 204.289 331Z" fill="#ABA29E"/>
<path d="M266.352 331C272.064 331 276.695 326.369 276.695 320.656C276.695 314.944 272.064 310.312 266.352 310.312C260.639 310.312 256.008 314.944 256.008 320.656C256.008 326.369 260.639 331 266.352 331Z" fill="#ABA29E"/>
<path d="M282.667 165.5H189.573C183.861 165.5 179.229 170.131 179.229 175.844V310.312C179.229 316.025 183.861 320.656 189.573 320.656H282.667C288.38 320.656 293.011 316.025 293.011 310.312V175.844C293.011 170.131 288.38 165.5 282.667 165.5Z" fill="#CBC7C5"/>
<path d="M204.289 289.625C202.917 289.625 201.602 289.08 200.632 288.11C199.662 287.14 199.117 285.825 199.117 284.453V201.703C199.117 200.331 199.662 199.016 200.632 198.046C201.602 197.076 202.917 196.531 204.289 196.531C205.661 196.531 206.976 197.076 207.946 198.046C208.916 199.016 209.461 200.331 209.461 201.703V284.453C209.461 285.825 208.916 287.14 207.946 288.11C206.976 289.08 205.661 289.625 204.289 289.625ZM235.32 289.625C233.949 289.625 232.633 289.08 231.663 288.11C230.693 287.14 230.148 285.825 230.148 284.453V201.703C230.148 200.331 230.693 199.016 231.663 198.046C232.633 197.076 233.949 196.531 235.32 196.531C236.692 196.531 238.007 197.076 238.977 198.046C239.947 199.016 240.492 200.331 240.492 201.703V284.453C240.492 285.825 239.947 287.14 238.977 288.11C238.007 289.08 236.692 289.625 235.32 289.625ZM266.352 289.625C264.98 289.625 263.664 289.08 262.694 288.11C261.725 287.14 261.18 285.825 261.18 284.453V201.703C261.18 200.331 261.725 199.016 262.694 198.046C263.664 197.076 264.98 196.531 266.352 196.531C267.723 196.531 269.039 197.076 270.009 198.046C270.979 199.016 271.523 200.331 271.523 201.703V284.453C271.523 285.825 270.979 287.14 270.009 288.11C269.039 289.08 267.723 289.625 266.352 289.625Z" fill="#ABA29E"/>
</g>
<defs>
<clipPath id="clip0_685_95">
<rect width="331" height="331" fill="white"/>
</clipPath>
</defs>
</svg>
