<svg width="331" height="331" viewBox="0 0 331 331" fill="none" xmlns="http://www.w3.org/2000/svg">
<g clip-path="url(#clip0_685_95)">
<path d="M116.367 72.4062C136.362 72.4062 152.57 56.1976 152.57 36.2031C152.57 16.2087 136.362 0 116.367 0C96.3728 0 80.1641 16.2087 80.1641 36.2031C80.1641 56.1976 96.3728 72.4062 116.367 72.4062Z" fill="#FC8040"/>
<path d="M256.008 186.188H214.633C213.261 186.188 211.946 185.643 210.976 184.673C210.006 183.703 209.461 182.387 209.461 181.016V129.297C209.461 127.925 210.006 126.61 210.976 125.64C211.946 124.67 213.261 124.125 214.633 124.125H256.008C257.379 124.125 258.695 124.67 259.665 125.64C260.635 126.61 261.18 127.925 261.18 129.297V181.016C261.18 182.387 260.635 183.703 259.665 184.673C258.695 185.643 257.379 186.188 256.008 186.188ZM219.805 175.844H250.836V134.469H219.805V175.844Z" fill="#F8CF6D"/>
<path d="M248.25 126.97C247.622 123.604 245.685 120.625 242.863 118.686C240.042 116.747 236.567 116.006 233.2 116.626L184.532 125.47L159.811 89.5769C159.811 89.1631 159.19 88.7494 158.88 88.3356C157.421 86.5842 155.594 85.1757 153.529 84.2103C151.465 83.2449 149.212 82.7463 146.933 82.75H85.698C83.7883 82.7481 81.8947 83.0988 80.1123 83.7844C76.6654 85.1107 73.8046 87.6231 72.0442 90.8699L43.2369 143.313L42.8748 143.933C42.0694 145.44 41.5768 147.093 41.4267 148.795L36.2548 205.685C35.9394 209.115 36.999 212.529 39.2007 215.177C41.4024 217.824 44.5658 219.489 47.995 219.805C51.4242 220.12 54.8382 219.061 57.4861 216.859C60.1339 214.657 61.7987 211.494 62.1142 208.065L66.9758 154.38L78.0436 137.779L74.9922 212.047V315.484C74.8824 319.599 76.4119 323.589 79.244 326.577C82.0762 329.564 85.9791 331.304 90.0941 331.414C94.2091 331.524 98.1991 329.994 101.186 327.162C104.174 324.33 105.914 320.427 106.023 316.312L111.195 222.391H121.539L126.711 316.312C126.821 320.427 128.561 324.33 131.548 327.162C134.535 329.994 138.525 331.524 142.64 331.414C146.755 331.304 150.658 329.564 153.49 326.577C156.322 323.589 157.852 319.599 157.742 315.484V212.047L154.536 131.314L168.086 147.398L168.551 147.916C170.002 149.681 171.9 151.025 174.047 151.807C176.193 152.589 178.511 152.781 180.757 152.363L237.648 142.02C239.337 141.739 240.954 141.125 242.404 140.213C243.855 139.302 245.11 138.112 246.096 136.712C247.082 135.311 247.781 133.729 248.151 132.057C248.52 130.384 248.554 128.655 248.25 126.97Z" fill="#FC8040"/>
<path d="M204.289 331C210.002 331 214.633 326.369 214.633 320.656C214.633 314.944 210.002 310.312 204.289 310.312C198.576 310.312 193.945 314.944 193.945 320.656C193.945 326.369 198.576 331 204.289 331Z" fill="#F8CF6D"/>
<path d="M266.352 331C272.064 331 276.695 326.369 276.695 320.656C276.695 314.944 272.064 310.312 266.352 310.312C260.639 310.312 256.008 314.944 256.008 320.656C256.008 326.369 260.639 331 266.352 331Z" fill="#F8CF6D"/>
<path d="M281.867 165.5H188.773C183.061 165.5 178.43 170.131 178.43 175.844V310.312C178.43 316.025 183.061 320.656 188.773 320.656H281.867C287.58 320.656 292.211 316.025 292.211 310.312V175.844C292.211 170.131 287.58 165.5 281.867 165.5Z" fill="#EE7231"/>
<path d="M204.289 289.625C202.917 289.625 201.602 289.08 200.632 288.11C199.662 287.14 199.117 285.825 199.117 284.453V201.703C199.117 200.331 199.662 199.016 200.632 198.046C201.602 197.076 202.917 196.531 204.289 196.531C205.661 196.531 206.976 197.076 207.946 198.046C208.916 199.016 209.461 200.331 209.461 201.703V284.453C209.461 285.825 208.916 287.14 207.946 288.11C206.976 289.08 205.661 289.625 204.289 289.625ZM235.32 289.625C233.949 289.625 232.633 289.08 231.663 288.11C230.693 287.14 230.148 285.825 230.148 284.453V201.703C230.148 200.331 230.693 199.016 231.663 198.046C232.633 197.076 233.949 196.531 235.32 196.531C236.692 196.531 238.007 197.076 238.977 198.046C239.947 199.016 240.492 200.331 240.492 201.703V284.453C240.492 285.825 239.947 287.14 238.977 288.11C238.007 289.08 236.692 289.625 235.32 289.625ZM266.352 289.625C264.98 289.625 263.664 289.08 262.694 288.11C261.725 287.14 261.18 285.825 261.18 284.453V201.703C261.18 200.331 261.725 199.016 262.694 198.046C263.664 197.076 264.98 196.531 266.352 196.531C267.723 196.531 269.039 197.076 270.009 198.046C270.979 199.016 271.523 200.331 271.523 201.703V284.453C271.523 285.825 270.979 287.14 270.009 288.11C269.039 289.08 267.723 289.625 266.352 289.625Z" fill="#F8CF6D"/>
</g>
<defs>
<clipPath id="clip0_685_95">
<rect width="331" height="331" fill="white"/>
</clipPath>
</defs>
</svg>
