<svg width="90" height="107" viewBox="0 0 90 107" fill="none" xmlns="http://www.w3.org/2000/svg">
<path d="M51.9231 19.907C59.5385 19.907 65.7692 15.4279 65.7692 9.95349C65.7692 4.47907 59.5385 0 51.9231 0C44.3077 0 38.0769 4.47907 38.0769 9.95349C38.0769 15.4279 44.3077 19.907 51.9231 19.907ZM26.3077 36.8279L8.58461 101.078C7.68461 104.113 11.0077 107 15.3692 107H15.9231C19.1769 107 21.9462 105.407 22.7077 103.118L33.9231 67.186L48.4615 77.1395V102.023C48.4615 104.76 51.5769 107 55.3846 107C59.1923 107 62.3077 104.76 62.3077 102.023V73.9544C62.3077 71.2172 60.7846 68.6293 58.0154 66.7381L47.7692 59.7209L51.9231 44.7907C59.3308 50.9619 70.0615 55.3912 82.1077 56.7846C86.2615 57.2326 90 54.8437 90 51.8079C90 49.3693 87.5077 47.3288 84.1154 46.9307C73.5923 45.6865 64.8692 41.2074 60.2308 35.3349L53.3077 27.3721C49.4308 22.9428 41.6769 21.1512 34.9615 23.1916L8.44615 31.254C3.32308 32.8465 0 36.4298 0 40.4609V52.2558C0 54.993 3.11538 57.2326 6.92308 57.2326C10.7308 57.2326 13.8462 54.993 13.8462 52.2558V40.3116L26.3077 36.8279Z" fill="#FC8040"/>
</svg>
