<svg width="112" height="171" viewBox="0 0 112 171" fill="none" xmlns="http://www.w3.org/2000/svg">
<path d="M86.8134 17C86.8134 26.3887 79.2025 34 69.8134 34C60.4247 34 52.8134 26.3887 52.8134 17C52.8134 7.61115 60.4247 0 69.8134 0C79.2025 0 86.8134 7.61115 86.8134 17ZM63.1944 103.686L85.2642 125.463C86.1104 126.298 86.7721 127.302 87.2065 128.408L98.976 158.395C100.691 162.764 98.5387 167.697 94.1688 169.412C89.799 171.127 84.8664 168.975 83.1511 164.605L72.0408 136.297L34.0934 98.8541C32.237 97.0224 31.3241 94.4397 31.6173 91.848L34.6569 64.9906C27.3303 72.2695 21.6787 82.5108 17.3475 96.0797C15.9204 100.552 11.1379 103.02 6.66558 101.592C2.1933 100.165 -0.274675 95.3823 1.1529 90.9105C9.10125 66.0076 22.2979 47.3679 44.4387 38.8199L44.5395 38.7817C50.1779 36.6864 56.0446 36.8551 61.2691 39.5564C66.2909 42.1523 69.8652 46.6357 72.2057 51.6604C73.1908 53.7761 74.1024 55.7532 74.958 57.6092C77.0311 62.1048 78.7775 65.8924 80.4524 69.221C82.806 73.8977 84.6973 76.9934 86.5664 79.1711C88.2992 81.1894 90.0234 82.4296 92.2206 83.2872C94.5823 84.2099 97.8931 84.8453 103.005 84.9987C107.697 85.1394 111.387 89.0575 111.247 93.7499C111.105 98.4419 107.188 102.132 102.495 101.991C96.3546 101.807 90.9014 101.022 86.036 99.1227C81.0062 97.1584 77.04 94.1732 73.6672 90.2441C71.5401 87.7659 69.6748 84.9401 67.9264 81.8639L63.1944 103.686Z" fill="#999999"/>
<path d="M31.6165 111.434L45.7057 124.947L39.2227 146.825C38.7208 148.518 37.7046 150.012 36.3145 151.101L14.4924 168.196C10.797 171.091 5.45437 170.442 2.55927 166.746C-0.335828 163.051 0.313146 157.708 4.00895 154.813L23.6945 139.392L29.6262 119.374L31.6165 111.434Z" fill="#999999"/>
</svg>
